<svg width="150" height="77" viewBox="0 0 150 77" fill="none" xmlns="http://www.w3.org/2000/svg">
<path d="M10.9678 35.35C10.9678 32.6633 10.7078 30.7133 10.1878 29.5C9.75444 28.2867 8.84444 27.4633 7.45777 27.03C6.07111 26.5967 3.77444 26.38 0.567774 26.38C0.39444 26.38 0.307774 26.12 0.307774 25.6C0.307774 25.08 0.39444 24.82 0.567774 24.82C3.34111 24.82 5.50777 24.8633 7.06777 24.95L16.2978 25.08L25.3978 24.95C27.0444 24.8633 29.2544 24.82 32.0278 24.82C32.2878 24.82 32.4178 25.08 32.4178 25.6C32.4178 26.12 32.2878 26.38 32.0278 26.38C28.9944 26.38 26.7411 26.5967 25.2678 27.03C23.8811 27.4633 22.9278 28.33 22.4078 29.63C21.8878 30.8433 21.6278 32.75 21.6278 35.35V64.47C21.6278 67.1567 21.8444 69.1067 22.2778 70.32C22.7978 71.5333 23.7511 72.3567 25.1378 72.79C26.5244 73.2233 28.8211 73.44 32.0278 73.44C32.2878 73.44 32.4178 73.7 32.4178 74.22C32.4178 74.74 32.2878 75 32.0278 75C29.2544 75 27.0878 74.9567 25.5278 74.87L16.2978 74.74L7.19777 74.87C5.55111 74.9567 3.34111 75 0.567774 75C0.39444 75 0.307774 74.74 0.307774 74.22C0.307774 73.7 0.39444 73.44 0.567774 73.44C3.60111 73.44 5.81111 73.2233 7.19777 72.79C8.67111 72.3567 9.66777 71.5333 10.1878 70.32C10.7078 69.02 10.9678 67.07 10.9678 64.47V35.35ZM77.9218 30.02C82.2552 32.62 85.7218 34.8733 88.3218 36.78C90.9218 38.6867 93.1318 41.07 94.9518 43.93C96.7718 46.79 97.6818 50.0833 97.6818 53.81C97.6818 58.1433 96.3818 62.0867 93.7818 65.64C91.2685 69.1067 87.8018 71.8367 83.3818 73.83C79.0485 75.7367 74.3252 76.69 69.2118 76.69C64.0985 76.69 59.5485 75.7367 55.5618 73.83C51.5752 71.8367 48.4985 69.1933 46.3318 65.9C44.1652 62.6067 43.0818 59.0533 43.0818 55.24C43.0818 50.56 44.6418 46.0967 47.7618 41.85C50.8818 37.6033 54.9985 34.18 60.1118 31.58C57.1652 29.4133 54.8685 27.1167 53.2218 24.69C51.6618 22.2633 50.8818 19.5333 50.8818 16.5C50.8818 12.9467 51.9218 9.95666 54.0018 7.52999C56.0818 5.10333 58.6818 3.32666 61.8018 2.2C65.0085 0.986666 68.2152 0.38 71.4218 0.38C75.1485 0.38 78.4418 1.07333 81.3018 2.46C84.1618 3.76 86.3285 5.44999 87.8018 7.52999C89.3618 9.60999 90.1418 11.7333 90.1418 13.9C90.1418 16.76 89.0152 19.6633 86.7618 22.61C84.5952 25.47 81.5618 27.8967 77.6618 29.89L77.9218 30.02ZM69.6018 2.85C67.0018 2.85 64.8785 3.67333 63.2318 5.32C61.6718 6.96666 60.8918 9.09 60.8918 11.69C60.8918 15.2433 62.1918 18.32 64.7918 20.92C67.3918 23.4333 71.1618 26.12 76.1018 28.98C78.9618 24.56 80.3918 20.27 80.3918 16.11C80.3918 12.21 79.3518 9.04666 77.2718 6.62C75.1918 4.10667 72.6352 2.85 69.6018 2.85ZM72.8518 73.96C77.0985 73.96 80.5218 72.4867 83.1218 69.54C85.8085 66.5933 87.1518 62.9533 87.1518 58.62C87.1518 55.1533 86.2852 52.1633 84.5518 49.65C82.8185 47.05 80.8252 44.97 78.5718 43.41C76.4052 41.85 72.8952 39.64 68.0418 36.78C65.2685 35.0467 63.4052 33.8767 62.4518 33.27C60.0252 35.4367 58.1618 38.1667 56.8618 41.46C55.5618 44.6667 54.9118 48.09 54.9118 51.73C54.9118 55.7167 55.6485 59.4 57.1218 62.78C58.6818 66.16 60.8052 68.89 63.4918 70.97C66.2652 72.9633 69.3852 73.96 72.8518 73.96ZM148.805 47.44C148.979 47.44 149.109 47.7433 149.195 48.35C149.369 48.9567 149.455 49.6067 149.455 50.3C149.455 51.08 149.369 51.7733 149.195 52.38C149.109 52.9867 148.979 53.29 148.805 53.29H130.345V71.75C130.345 71.9233 129.955 72.0967 129.175 72.27C128.482 72.3567 127.745 72.4 126.965 72.4C125.232 72.4 124.365 72.27 124.365 72.01V53.29H105.905C105.732 53.29 105.559 52.9867 105.385 52.38C105.299 51.6867 105.255 50.95 105.255 50.17C105.255 49.4767 105.299 48.87 105.385 48.35C105.472 47.7433 105.602 47.44 105.775 47.44H124.365V28.98C124.365 28.8067 124.669 28.6767 125.275 28.59C125.969 28.4167 126.662 28.33 127.355 28.33C128.135 28.33 128.829 28.4167 129.435 28.59C130.042 28.6767 130.345 28.8067 130.345 28.98V47.44H148.805Z" fill="black"/>
</svg>
