<svg width="160" height="80" viewBox="0 0 160 80" fill="none" xmlns="http://www.w3.org/2000/svg">
<mask id="mask0" mask-type="alpha" maskUnits="userSpaceOnUse" x="0" y="0" width="160" height="80">
<rect width="160" height="80" fill="#C4C4C4"/>
</mask>
<g mask="url(#mask0)">
<g opacity="0.3">
<path d="M23.0672 42.4285H12.2229V42.7961H15.8989V47.1155C15.8989 49.413 15.4394 51.251 10.8443 51.251C8.08731 51.251 6.52499 50.332 5.78978 48.494C4.96267 46.564 4.68696 44.6341 4.68696 40.0391C4.68696 37.0982 4.87076 32.8708 6.06548 30.9408C6.61689 30.0218 7.8116 28.5514 10.8443 28.5514C14.9799 28.5514 16.8179 32.1356 17.645 35.444H17.9207V29.0109H17.645C17.4612 29.3785 17.2774 29.5623 16.6341 29.5623C16.3584 29.5623 15.8989 29.5623 14.888 29.1028C13.1419 28.4595 12.3148 28.1838 10.8443 28.1838C6.15738 28.2757 0 32.687 0 40.4067C0 47.1155 4.50316 51.6186 11.12 51.6186C12.8662 51.6186 14.3366 51.3429 15.9908 50.6996C17.1855 50.2401 17.645 50.0563 18.1964 50.0563C18.4721 50.0563 19.3912 50.0563 19.7588 51.0672H20.0345V42.7961H23.0672V42.4285ZM34.8306 28H34.5549L24.9971 50.6996H22.6077V51.0672H28.3056V50.6996H25.4566L28.6732 42.888H36.7605L39.977 50.6996H36.7605V51.0672H46.7777V50.6996H44.3883L34.8306 28ZM28.857 42.5204L32.7168 33.2384L36.6686 42.5204H28.857ZM56.8868 50.6996H54.5893V29.1947H57.6221V28.8271H47.5129V29.1947H50.5457V50.6996H47.5129V51.0672H66.4446V43.9908H66.1689C65.2499 48.2183 61.2981 50.6996 56.8868 50.6996ZM79.035 50.6996H76.7375V29.1947H79.7702V28.8271H69.6611V29.1947H72.6939V50.6996H69.6611V51.0672H88.5928V43.9908H88.3171C87.398 48.2183 83.4463 50.6996 79.035 50.6996ZM103.848 50.6996H98.8857V39.7634C100.999 39.7634 104.216 39.7634 104.767 44.1746H105.043V35.0764H104.767C104.216 39.3958 101.183 39.3958 98.8857 39.3958V29.1947H102.286C106.697 29.1947 108.168 31.676 109.179 34.2493H109.454V28.8271H91.8093V29.1947H94.7501V50.6996H91.8093V51.0672H111.384V44.8179H111.109C109.546 49.2292 107.249 50.6996 103.848 50.6996ZM135.646 50.7915C133.808 50.7915 133.808 49.2292 133.716 47.0236C133.716 43.5313 133.624 40.3148 126.916 39.3039V39.2119C129.489 38.7524 132.797 37.282 132.797 34.4331C132.797 30.2056 127.926 28.7352 124.159 28.7352C123.515 28.7352 122.872 28.7352 122.229 28.8271C121.585 28.8271 120.942 28.919 120.299 28.919H114.509V29.2866H117.45V50.7915H114.509V51.0672H124.618V50.6996H121.585V39.4877H125.261C127.099 39.4877 128.662 39.9472 129.121 42.1528C129.305 42.9799 129.305 45.1855 129.305 45.7369C129.305 48.494 130.224 51.251 134.819 51.251C136.473 51.251 137.208 50.7915 137.852 50.332L137.576 49.9644C137.117 50.332 136.565 50.7915 135.646 50.7915ZM121.585 39.2119V29.1947C122.137 29.1947 123.331 29.0109 124.159 29.0109C127.651 29.0109 128.57 31.4922 128.57 34.4331C128.57 38.6605 126.916 39.2119 125.261 39.2119H121.585ZM154.21 28.8271V29.1947H156.967L151.177 40.3148L144.744 29.1947H148.053V28.8271H137.3V29.1947H139.874L147.41 41.969V50.6996H144.469V51.0672H154.578V50.6996H151.545V40.4067L157.427 29.1028H160V28.8271H154.21Z" fill="black"/>
</g>
</g>
</svg>
