<svg width="160" height="80" viewBox="0 0 160 80" fill="none" xmlns="http://www.w3.org/2000/svg">
<mask id="mask0" mask-type="alpha" maskUnits="userSpaceOnUse" x="0" y="0" width="160" height="80">
<rect width="160" height="80" fill="#C4C4C4"/>
</mask>
<g mask="url(#mask0)">
<g opacity="0.3">
<path d="M17.0643 37.1664C17.1399 37.0908 17.1399 37.0908 17.1399 37.0908C17.1399 37.0908 17.1399 37.0908 17.0643 37.1664Z" fill="black"/>
<path d="M159.018 12.9157L156.6 13.4445C156.6 13.4445 156.147 14.5777 155.618 15.7865C155.392 16.2398 153.578 19.5638 152.068 19.1861C149.348 18.5062 152.596 12.4624 153.05 11.7069C153.503 10.9514 154.863 8.91165 156.449 8.68501C158.111 8.38282 156.978 11.9335 156.978 11.9335L158.565 11.1781C158.565 11.1781 160.302 6.94742 156.6 7.32516C153.805 7.62735 150.708 9.59158 148.819 15.4087C147.157 20.6215 151.614 21.8303 154.107 19.7149C153.73 20.4704 153.125 21.5281 151.992 22.5857C150.859 23.7189 148.592 25.1543 147.459 24.3233C148.441 23.87 149.272 22.7368 149.121 21.7547C148.97 20.7726 147.988 20.3949 146.855 21.1503C145.797 21.9058 145.646 23.7189 145.722 24.3233C145.722 24.3989 145.797 24.55 145.797 24.6255C143.682 26.5142 143.228 25.381 143.304 25.0032C143.38 24.3989 143.682 23.4923 144.059 22.208C144.815 19.866 145.495 17.8262 146.326 15.1065C145.268 15.3332 144.664 15.4087 143.531 15.6354C142.397 19.2616 141.869 20.8481 141.038 22.8879C139.98 25.381 138.318 26.3631 137.336 26.6653C136.656 26.8919 135.447 25.0788 136.807 20.6215C138.167 16.1642 140.358 11.7069 143.228 11.1781C144.966 10.8759 144.135 13.5956 144.135 13.5956C144.135 13.6711 144.135 13.6711 144.135 13.6711C144.286 13.5956 144.362 13.52 144.513 13.4445C145.268 12.9912 145.873 12.3113 146.477 11.6314C147.459 10.4981 148.29 8.91165 148.517 6.79633C149.046 1.05472 142.851 0.752532 139.376 4.37881C134.918 8.9872 133.634 10.4981 130.083 14.6533C128.27 16.7686 126.91 18.3551 126.079 19.3372L130.612 7.62735L127.061 9.66713L122.982 21.9058C121.395 24.6255 118.071 29.385 114.294 30.4427C111.801 31.1226 113.161 24.7766 113.614 23.1146C114.218 21.0748 116.56 14.9554 119.204 14.5022C121.622 14.0489 119.355 20.9237 119.355 20.9237L120.64 20.0171L124.266 12.5379L122.226 12.9912L121.244 15.7109C121.32 14.1244 120.866 12.7646 119.28 12.9157C115.427 13.2179 112.934 17.8262 112.254 19.4127C111.952 20.1682 110.743 23.3412 110.29 26.3631C109.912 27.4208 108.401 31.1226 106.588 31.5003C105.53 31.727 106.815 28.3273 107.797 25.3054C108.628 22.7368 109.761 19.1106 109.988 18.4306C110.668 16.1642 108.552 15.6354 107.268 15.862C105.908 16.0887 104.246 17.5996 103.037 19.035C103.642 17.1463 103.868 16.3908 103.868 16.3908L101.073 17.0708L100.393 19.1861C99.5621 20.7726 97.5978 25.1543 94.3493 26.7408C94.3493 26.2876 94.3493 25.9098 94.2738 25.5321C94.2738 24.6255 93.8205 24.3233 92.8384 24.3233C92.0073 24.3233 90.7986 24.55 89.9676 25.3054C89.2876 25.9854 88.6833 27.1941 89.1365 27.7985C89.5143 28.3273 90.3453 28.4029 91.1763 28.3273C91.1008 28.554 91.0252 28.7806 90.9497 29.0073C90.0431 31.4248 88.1544 34.9755 86.8701 34.7489C85.2081 34.4467 87.0968 23.1146 90.1187 20.7726C92.9895 18.5062 91.9318 23.1901 91.9318 23.1901C91.9318 23.1901 97.5223 21.5281 98.0511 15.6354C98.58 9.89377 92.3851 9.59158 88.9099 13.2179C84.4526 17.8262 83.1683 19.3372 79.6176 23.4923C77.88 25.5321 76.5957 27.043 75.6891 28.1007L80.4486 15.862L76.8979 17.9018L71.9873 32.6335C71.2318 33.7667 68.8898 36.9397 67.3789 37.6197C66.4723 37.9974 66.5479 37.4686 66.8501 36.6376C67.8322 33.6912 70.7785 24.8522 71.7606 21.6792C69.5698 22.0569 68.8898 22.1324 68.8898 22.1324C68.8898 22.1324 65.5658 32.3313 64.5836 35.2777C64.2059 36.3354 61.1085 39.4328 59.9752 39.6594C59.3709 39.8105 58.9176 38.5262 59.6731 36.4109C60.6552 33.2379 63.9037 23.1901 63.9037 23.1901L61.184 23.5679C61.184 23.5679 59.522 28.8562 58.2377 32.6335C57.2555 34.4467 53.8559 40.4149 52.1183 40.7927C51.8161 40.8682 51.2873 40.6416 52.0428 38.3751C53.4782 33.8423 56.1223 25.9098 56.7267 24.3233C54.9891 24.7011 54.007 24.7766 54.007 24.7766L53.5537 26.0609C51.7406 24.2478 48.492 25.0032 45.5457 28.9317C43.2793 31.9536 41.9194 37.1664 41.7683 38.7529C41.7683 38.904 41.7683 39.1306 41.6928 39.3573V39.4328C41.6928 39.4328 39.8041 43.5879 37.1599 44.7211C35.9512 45.0989 37.6888 33.9934 40.6351 25.2299C43.8081 16.8441 48.1143 6.41859 48.1143 6.41859L44.3369 8.08063C44.3369 8.08063 42.2971 13.52 39.653 20.1682C38.0665 24.0967 36.1778 30.1405 34.5158 34.2956C31.4939 42.077 29.0764 46.912 28.6231 46.3832C27.8676 45.4766 28.3964 34.1445 30.2851 28.7806C33.3826 20.0171 37.8399 8.00508 37.8399 8.00508L34.138 9.74267C34.138 9.74267 23.4858 39.2062 20.3884 46.4587C17.2154 53.9379 7.92308 77.4331 2.86141 77.131C1.7282 76.3755 1.5771 63.1547 10.4917 47.8941C15.4023 39.2062 16.7621 37.4686 17.1399 37.0908C16.2333 37.9219 8.30082 45.401 3.69243 54.8445C-0.387127 63.1547 -1.36924 73.5802 2.18148 77.4331C10.0384 85.8945 27.4143 35.6554 27.4143 35.6554C27.4143 35.6554 25.4501 44.4945 26.4322 50.4627C27.3388 52.2003 28.3209 50.4627 28.7742 49.8583C31.1161 46.3832 33.6847 39.4328 35.5734 34.2956C34.3647 40.4149 33.6092 46.9875 36.7066 46.5343C38.5198 46.2321 40.4085 44.1167 42.0705 40.7927C42.1461 42.2281 42.7504 43.8901 44.7902 43.8146C47.8121 43.6635 49.3231 40.7927 49.3231 40.7927C49.3231 40.7927 49.172 43.1346 51.7406 42.7569C53.7804 42.4547 56.6512 37.6197 57.7844 35.5799C57.7088 35.8065 57.6333 36.0332 57.5577 36.1843C57.1044 37.5441 56.7267 41.3215 58.2377 41.5481C60.0508 41.9259 63.7526 38.4507 64.5836 37.0908C64.4325 38.904 64.9614 40.2638 66.2457 39.9616C67.4544 39.735 69.4942 37.6952 71.9117 34.2956L70.4008 38.904L72.1384 38.5262L75.0092 31.047C75.9157 30.1405 77.5022 28.8562 78.4844 29.1584C79.4665 29.4605 77.2756 33.2379 76.8223 35.5799C76.5201 36.9397 76.5957 38.1485 78.6355 37.8463C80.4486 37.6197 82.4128 34.5222 83.6971 32.1803C83.7727 34.22 84.4526 35.8821 85.7369 36.2598C87.9278 36.9397 91.2519 35.5799 93.5183 30.9715C94.1227 29.7627 94.4249 28.7806 94.6515 27.9496C96.3135 27.3452 98.0511 25.9854 99.2599 24.0211L95.7847 34.6733L98.5044 34.1445L102.735 20.9992C102.735 20.9992 104.17 18.8839 106.286 17.8262C107.192 17.373 108.099 17.7507 107.343 19.9416C106.739 21.7547 105.455 25.5321 104.473 28.7051C103.642 31.4248 103.793 31.8025 104.019 32.3313C104.624 33.9178 106.739 33.1624 107.721 32.3313C108.779 31.4248 109.685 29.9894 110.365 28.7051C110.29 30.8959 110.894 32.558 113.01 32.2558C117.165 31.6514 120.866 27.1186 122.377 25.0788L120.489 30.7449L122.226 30.3671L125.324 22.3591C125.777 21.8303 126.532 21.2259 127.666 20.546C128.799 19.866 129.328 20.4704 128.95 21.6036C128.572 23.039 127.817 25.1543 127.288 26.8919C126.835 28.1762 126.835 29.6872 128.874 29.3095C130.31 29.0828 132.35 26.1365 133.861 23.6434C133.71 25.1543 133.861 28.0251 136.58 27.9496C139.602 27.7985 141.113 24.9277 141.113 24.9277C141.113 24.9277 140.811 27.2697 143.38 26.8164C144.211 26.6653 145.419 26.1365 146.401 25.0788C146.704 25.5321 147.384 25.9854 148.366 26.0609C150.405 26.1365 152.747 23.7189 153.881 21.9058C153.578 23.7945 153.881 25.4565 156.223 24.7766C159.018 23.9456 160 20.8481 160 20.8481C160 20.8481 159.924 20.7726 159.622 20.697C159.169 21.7547 158.338 22.6613 157.734 23.1146C156.978 23.7189 156.449 23.6434 156.298 22.9635C156.147 22.5102 156.223 21.7547 156.374 20.9237C156.6 18.4306 159.018 12.9157 159.018 12.9157ZM49.5497 38.8284C48.492 41.3215 46.83 42.3036 45.8479 42.6058C45.1679 42.8324 43.9592 41.0193 45.319 36.562C46.6789 32.1047 48.8698 27.6474 51.7406 27.1186C53.4782 26.8164 53.176 28.1007 53.176 28.1007C51.5139 33.0113 50.5318 36.4865 49.5497 38.8284ZM84.226 27.1186C83.7727 28.4029 83.546 29.6872 83.4705 30.9715C82.9417 31.9536 81.6573 34.1445 80.373 35.5799C79.3154 36.7131 78.7865 36.1843 79.1643 35.0511C80.0709 32.7091 82.7906 26.8919 79.9198 26.9675C78.8621 26.9675 77.8044 27.4963 76.8979 28.2518C78.6355 26.212 81.2041 23.2657 83.7727 20.4704C86.3413 17.6751 88.6833 14.8043 90.4208 13.5956C94.1227 10.8759 95.7847 13.9733 95.9358 15.5598C96.1624 17.1463 96.238 19.7905 94.3493 21.4525C94.1227 20.1682 93.896 18.1284 90.6475 19.1861C87.9278 20.0171 85.5103 23.3412 84.226 27.1186ZM91.403 27.5719C90.9497 27.6474 90.7986 27.1941 90.7986 26.9675C90.7986 26.5142 90.9497 25.9854 91.3274 25.6076C91.7051 25.2299 92.0829 25.2299 92.1584 25.3054V25.381C92.0829 25.7587 91.9318 26.5142 91.7051 27.4963C91.6296 27.5719 91.4785 27.5719 91.403 27.5719ZM134.238 20.9237C132.803 23.7189 130.461 27.8741 129.705 27.5719C129.554 27.4963 129.554 27.1186 129.781 26.5142C130.159 25.3054 130.763 23.4168 131.292 21.7547C131.896 20.0171 131.594 18.5062 130.159 18.5062C128.874 18.5062 127.59 19.2616 126.532 20.2438C128.27 18.204 131.141 14.8799 134.087 11.7069C136.656 8.91165 138.998 6.04085 140.735 4.83209C144.437 2.11239 146.099 5.20983 146.25 6.79633C146.401 8.00508 146.477 9.81822 145.646 11.4047C145.57 10.8759 145.344 10.5737 145.268 10.4226C143.757 8.68501 140.358 10.0449 137.562 13.4445C135.9 15.3332 134.843 18.6573 134.238 20.9237Z" fill="black"/>
<path d="M74.1782 8.38281C73.8004 8.45836 73.876 8.45836 73.876 8.45836C73.876 8.45836 72.2139 13.3689 67.0012 16.5419L66.019 20.3948C66.0946 20.3948 72.365 16.0131 74.1782 8.38281Z" fill="black"/>
<path d="M29.0009 55.0711C28.0943 56.5065 27.1877 57.5641 26.2056 58.924C68.7388 45.401 112.405 37.393 156.525 33.7667C156.752 33.0868 156.827 33.0868 157.054 32.4069C114.294 35.8065 71.1563 42.6813 29.0009 55.0711Z" fill="black"/>
</g>
</g>
</svg>
