<svg width="160" height="80" viewBox="0 0 160 80" fill="none" xmlns="http://www.w3.org/2000/svg">
<mask id="mask0" mask-type="alpha" maskUnits="userSpaceOnUse" x="0" y="0" width="160" height="80">
<rect width="160" height="80" fill="#C4C4C4"/>
</mask>
<g mask="url(#mask0)">
<g opacity="0.3">
<path d="M59.8 26.5V16.4C59.8 15.6 59.9 15.1 60.3 14.7L58.6 14.1V26C58.6 28.8 56.7 31 54.2 31C51.7 31 49.8 28.8 49.8 26V14.4H46.9V26.8C46.9 29.8 49.8 32.3 53.7 32.3C57.1 32.4 59.8 29.6 59.8 26.5ZM71 30.8C68.8 30.8 67.2 28.8 66.4 27.3L63.6 28.9C64.6 29.6 65.7 32.4 69.8 32.4C73.1 32.4 75.7 30.1 75.7 27.1C75.7 25.4 75 23.2 71.7 21.8L69 20.6C67.5 20 66.2 19.2 66.2 17.7C66.2 16.5 67.1 15.6 68.6 15.6C70.1 15.6 71.1 16.5 72 17.8L74.8 16.4C73.9 15.8 73 14 69.8 14C66.8 14 64.3 16.1 64.3 18.8C64.3 21.5 65.8 22.5 67.9 23.4L70.4 24.5C72.5 25.5 73.4 27 73.4 28.5C73.6 29.8 72.5 30.8 71 30.8ZM84.8 32.4C88.1 32.4 90.7 30.1 90.7 27.1C90.7 25.4 90 23.2 86.7 21.8L84 20.6C82.5 20 81.2 19.2 81.2 17.7C81.2 16.5 82.1 15.6 83.6 15.6C85.1 15.6 86.1 16.5 87 17.8L89.8 16.4C88.9 15.8 88 14 84.8 14C81.8 14 79.3 16.1 79.3 18.8C79.3 21.5 80.8 22.5 82.9 23.4L85.4 24.5C87.5 25.5 88.4 27 88.4 28.5C88.4 29.7 87.2 30.6 85.8 30.6C83.6 30.6 82 28.6 81.2 27.1L78.4 28.7C79.6 29.6 80.8 32.4 84.8 32.4ZM33.1 31.9V26.8L36 25.1L39.7 32.4L43 31.5L38.8 23.9C38.7 23.8 38.7 23.7 38.7 23.6C40.8 22.4 42.8 20.8 42.8 18.4C42.8 15.3 39.8 14.5 36.7 14.5H29.7V15.7H30.2V32H33.1V31.9ZM33.1 15.7H34.5C37.6 15.7 39.8 16.7 39.8 19.4C39.8 20.6 39.2 21.8 37.9 22.7C37.3 22.1 36.6 21.9 35.7 21.9L33.6 23.2C34.4 23.2 35.1 23.5 35.5 24.2L33.1 25.6V15.7ZM104.4 31.6C104.5 30.7 104.7 29.3 105.2 27.3H111.7L113.4 32.3L116.5 31.6L110.5 14.2L107.5 14.9L107.9 16.3C104.6 24 103.4 27.9 102.1 32.4L104.4 31.6ZM108.3 17.7L111.1 26.1H105.3C106 24 106.9 21.1 108.3 17.7ZM130.3 26.4L122.5 14.2L119.4 14.8L120.1 16V32H121.3V17.8L130.2 31.9H131.4V16.4C131.4 15.6 131.5 15.1 131.9 14.7L130.2 14.1V26.4H130.3ZM95.1 31.9H98V14.5H95.1V31.9ZM20.4 50.8L16.3 49C14.1 48.1 11.9 46.9 11.9 44.5C11.9 42.6 13.3 41.3 15.6 41.3C17.9 41.3 19.5 42.6 20.9 44.7L25.3 42.5C24 41.6 22.5 38.8 17.7 38.8C13.2 38.8 9.3 42.1 9.3 46.2C9.3 50.4 11.6 51.8 14.9 53.3L18.8 55C22 56.5 23.4 58.8 23.4 61.1C23.4 63 21.6 64.4 19.4 64.4C16.1 64.4 13.6 61.3 12.4 59.1L8 61.5C9.5 62.5 11.3 66.9 17.5 66.9C22.5 66.9 26.5 63.3 26.5 58.8C26.5 56.4 25.5 53 20.4 50.8ZM150.1 39.1V44V57.8L138.2 39.1L133.5 40L134.5 41.8V66.3H136.4V44.7L150.1 66.3H152V42.6C152 41.4 152.1 40.6 152.8 40.1L150.1 39.1ZM62.2 40.1L62.9 42.2C57.8 54 56 60 54 66.8L57.7 65.7C57.8 64.3 58.1 62.2 58.9 59.1H68.8L71.4 66.8L76.1 65.7L66.9 39L62.2 40.1ZM59.1 57.4C60 54.2 61.4 49.7 63.6 44.5L68 57.4H59.1ZM43.3 64.5H37.7V52.9H45.7V51.1H37.7V41.3H43C45.2 41.3 46 41.7 48.2 44.7L49.7 39.5H32.4V41.3H33.3V64.4H32.4V66.2H50L48.4 60.1C46.6 63.4 46 64.5 43.3 64.5ZM115.4 38.8C108.8 38.8 103.4 45.1 103.4 52.9C103.4 60.6 108.8 67 115.4 67C122 67 127.4 60.7 127.4 52.9C127.4 45.2 122 38.8 115.4 38.8ZM117.8 64.4C112.4 64.4 107.2 56.9 107.2 49.5C107.2 45 109.3 41.3 113 41.3C117.8 41.3 123.6 48.2 123.6 56.2C123.6 61.4 121 64.4 117.8 64.4ZM91.9 50.8L87.8 49C85.6 48.1 83.4 46.9 83.4 44.5C83.4 42.6 84.8 41.3 87.1 41.3C89.4 41.3 91 42.6 92.4 44.7L96.8 42.5C95.5 41.6 94 38.8 89.2 38.8C84.7 38.8 80.8 42.1 80.8 46.2C80.8 50.4 83.1 51.8 86.4 53.3L90.3 55C93.5 56.5 94.9 58.8 94.9 61.1C94.9 63 93.1 64.4 90.9 64.4C87.6 64.4 85.1 61.3 83.9 59.1L79.5 61.5C81 62.5 82.7 66.9 89 66.9C94 66.9 98 63.3 98 58.8C98 56.4 97 53 91.9 50.8Z" fill="black"/>
</g>
</g>
</svg>
