<svg width="160" height="80" viewBox="0 0 160 80" fill="none" xmlns="http://www.w3.org/2000/svg">
<mask id="mask0" mask-type="alpha" maskUnits="userSpaceOnUse" x="0" y="0" width="160" height="80">
<rect width="160" height="80" fill="#C4C4C4"/>
</mask>
<g mask="url(#mask0)">
<g opacity="0.3">
<path d="M8.15313 64.4323C8.29965 64.2125 8.51943 64.066 8.81247 63.9927C9.17877 63.9194 9.61833 63.8462 10.2777 63.7729C10.5707 63.3334 10.8637 62.674 11.1568 61.8682C11.4498 61.0623 11.6696 60.1099 11.8894 59.1575C12.1092 58.1319 12.329 57.033 12.4755 55.9341C12.622 54.7619 12.7685 50.2198 12.915 49.1209C13.0615 48.022 13.1348 46.9964 13.2813 46.1172C13.3546 45.1649 13.4278 44.359 13.5011 43.6997C13.5744 43.0403 13.6476 42.4542 13.8674 42.0147C14.0139 41.5751 14.2337 41.2821 14.4535 40.989C14.6733 40.7693 14.9663 40.6227 15.1861 40.5495C15.4791 40.4762 15.6989 40.403 15.992 40.403C16.2117 40.403 16.578 40.403 17.0909 40.403C17.6037 40.403 19.4352 40.403 20.0945 40.4762C20.7539 40.4762 21.4132 40.5495 22.0725 40.5495C22.7319 40.5495 23.318 40.6227 23.7575 40.696C24.4169 40.7693 24.7832 40.989 25.0029 41.3553C25.1495 41.7216 25.296 42.0879 25.296 42.381C25.296 42.5275 25.2227 42.7473 25.1495 42.9671C25.0762 43.1868 24.8564 43.4066 24.6366 43.5531C24.4901 45.1649 24.3436 46.8498 24.2703 48.4616C24.1971 50.0733 24.1238 55.2748 24.1238 57.1063C24.1238 58.1319 24.1238 59.1575 24.1971 60.1099C24.2703 61.1356 24.3436 62.0879 24.4901 63.0403C25.296 63.1136 25.8088 63.1868 26.0286 63.4066C26.2484 63.6264 26.3949 63.9194 26.4681 64.359C26.5414 64.7253 26.5414 65.1649 26.5414 65.5312C26.5414 65.8975 26.5414 66.2638 26.5414 66.6301C26.5414 67.0696 26.5414 67.4359 26.4681 67.729C26.3949 68.022 26.3216 68.2418 26.2484 68.3883C26.1018 68.5348 25.9553 68.6081 25.8088 68.6813C25.6623 68.7546 25.4425 68.7546 25.2227 68.7546C25.1495 68.7546 25.0029 68.7546 24.8564 68.6813C24.7099 68.6081 24.5634 68.5348 24.4169 68.4616C24.2703 68.3883 24.1238 68.2418 24.0506 68.0953C23.904 67.9487 23.8308 67.8022 23.8308 67.5824C23.8308 67.4359 23.8308 67.2894 23.904 67.1429C23.904 66.9964 23.904 66.8498 23.904 66.7033V66.4835C23.904 66.4103 23.904 66.337 23.904 66.2638C23.611 66.2638 23.318 66.2638 22.9517 66.2638H21.8528C21.1202 66.2638 19.0689 66.2638 18.1898 66.337C17.2374 66.337 16.3583 66.4103 15.4059 66.4835C14.4535 66.5568 13.5744 66.6301 12.7685 66.7033C11.9626 66.7766 11.3033 66.8498 10.7905 66.9231C10.7905 67.2161 10.7905 67.5092 10.8637 67.8755C10.937 68.2418 10.937 68.6081 11.0103 68.9011C10.937 69.1942 10.7172 69.4872 10.4242 69.707C10.0579 69.9268 9.76485 70 9.39855 70C8.95899 70 8.59269 69.8535 8.29965 69.5605C8.22639 69.1942 8.15313 68.7546 8.07987 68.2418C8.00661 67.729 8.0066 67.1429 8.0066 66.6301C8.0066 66.2638 8.00661 65.8975 8.07987 65.5312C7.93335 64.9451 8.00661 64.652 8.15313 64.4323ZM13.4279 63.4066C14.5268 63.3334 15.6989 63.2601 16.9443 63.2601C18.1898 63.1868 20.5341 63.1868 21.5597 63.1868C21.4132 62.0147 21.2667 60.7693 21.1934 59.5971C21.1202 58.4249 21.1202 57.1795 21.1202 55.8608C21.1202 55.055 21.1202 50.8791 21.1202 50.1465C21.1202 49.4872 21.1202 48.7546 21.1934 48.0953C21.1934 47.4359 21.2667 46.7033 21.2667 46.044C21.2667 45.3114 21.3399 44.5788 21.3399 43.7729H20.7539C20.5341 43.7729 20.241 43.7729 20.0213 43.7729C19.7282 43.7729 18.263 43.7729 18.0432 43.7729H17.4572C17.0909 43.7729 16.7978 43.8462 16.578 43.9194C16.3583 43.9927 16.285 44.2125 16.2117 44.5055C15.992 46.4103 15.7722 48.0953 15.6257 49.6337C15.4059 51.1722 15.2594 56.0806 15.0396 57.326C14.8198 58.5715 14.6 59.7436 14.3802 60.7693C14.0872 61.6484 13.7942 62.6008 13.4279 63.4066Z" fill="black"/>
<path d="M42.9516 55.055C42.9516 57.9121 42.2923 60.403 40.9736 62.381C39.5084 64.6521 37.5304 65.751 34.9663 65.751C34.2337 65.751 33.5011 65.6044 32.622 65.3114C30.7905 64.6521 29.4718 63.5532 28.6659 61.9414C28.0066 60.5495 27.6403 58.718 27.6403 56.4469C27.6403 53.4433 28.2996 50.8792 29.6183 48.6081C31.1568 45.9707 33.1348 44.5788 35.7722 44.5788C38.0432 44.5788 39.8015 45.751 41.1934 48.022C42.4388 50.0733 42.9516 52.4176 42.9516 55.055ZM40.1678 54.7619C40.1678 50.6594 38.9956 48.1685 36.578 47.3627C36.3582 47.2894 36.0652 47.2162 35.6989 47.2162C34.6733 47.2162 33.7209 47.729 32.6952 48.6814C31.0835 50.2931 30.3509 53.1502 30.3509 57.2528C30.3509 57.6191 30.4242 58.1319 30.5707 58.7912C30.8637 60.3297 31.3033 61.4286 31.9626 62.088C32.622 62.8938 33.6476 63.2601 34.9663 63.2601C36.7978 63.2601 38.1165 62.3077 39.0689 60.3297C39.8015 58.8645 40.1678 56.9597 40.1678 54.7619Z" fill="black"/>
<path d="M63.611 45.2381C63.611 45.5311 63.5377 45.7509 63.318 45.9707C63.0249 46.337 62.8784 46.4835 62.8784 46.5568C62.7319 46.7765 62.6586 47.2894 62.5121 48.1685C61.9993 52.4908 61.7795 56.7399 61.7795 60.9157C61.7795 63.2601 62.1458 64.5787 62.9517 64.8718V65.7509C62.7319 66.2637 62.3656 66.5568 61.8528 66.5568C60.9004 66.5568 60.0945 65.6044 59.5817 63.7729C59.2154 62.4542 58.9956 61.0623 58.9956 59.5971C58.9956 56.4469 59.0689 53.7362 59.2154 51.6117C58.6293 54.1025 58.0432 56.5934 57.4572 59.0842C56.3583 62.8938 55.3326 64.8718 54.307 64.8718C53.1348 64.8718 52.1824 63.7729 51.3033 61.5018C50.4974 59.4505 49.4718 56.0073 48.2996 51.1721C48.1531 52.6373 48.1531 54.1025 48.1531 55.5678C48.1531 58.6447 48.2264 60.9157 48.3729 62.3077C48.3729 62.5275 48.5194 62.967 48.6659 63.5531C48.8857 64.1392 48.959 64.5787 48.959 64.8718C48.959 65.6044 48.4462 65.8974 47.3473 65.8974C46.1018 65.8974 45.4425 64.0659 45.4425 60.3297C45.4425 58.8645 45.5158 56.5934 45.6623 53.5897C45.8088 50.5861 45.8821 48.3883 45.8821 46.9231C45.8821 46.7765 45.8088 46.5568 45.6623 46.4102C45.5158 46.1905 45.4425 46.0439 45.4425 45.8974C45.4425 44.7253 46.3949 44.1392 48.3729 44.1392C48.8125 44.1392 49.3253 44.4322 49.9846 45.0916C50.0579 45.7509 50.1312 46.7033 50.2777 48.0952C50.4975 49.9267 50.937 52.4176 51.6696 55.4945C52.622 59.4505 53.4279 61.4286 54.1605 61.4286C54.307 61.4286 54.5268 61.1355 54.7465 60.4762C55.2594 59.2308 55.6989 57.3993 56.1385 55.1282C56.5048 53.2967 56.8711 51.4652 57.1641 49.6337C57.3106 48.7546 57.6037 47.5091 57.97 45.8974C58.4095 44.7253 59.2154 44.0659 60.5341 44.0659C60.9736 44.0659 61.5597 44.2124 62.2191 44.4322C63.1714 44.5055 63.611 44.7985 63.611 45.2381Z" fill="black"/>
<path d="M81.2667 60.1099C81.2667 61.1355 80.8271 61.6484 80.0213 61.6484C80.0945 62.1612 80.3143 62.8205 80.6806 63.6264C80.6806 64.0659 80.4608 64.5055 80.1678 64.7985C79.8748 65.0916 79.4352 65.2381 78.9956 65.2381C78.6293 65.2381 78.263 65.0916 77.7502 64.8718C77.5304 64.359 77.3839 63.6996 77.3839 62.8938C77.3839 62.674 77.3839 62.4542 77.3839 62.0879C77.3839 61.7216 77.3839 61.5018 77.3839 61.2821C77.3839 61.4286 77.0909 61.5018 76.4315 61.5018C75.3326 61.5018 74.0872 61.5751 72.5487 61.6484C70.4242 61.7949 69.252 61.9414 69.1055 62.1612C68.8857 62.381 68.8125 63.5531 68.7392 65.5311C68.5194 65.8974 68.1531 66.1172 67.7868 66.1172C67.3473 66.1172 66.981 65.8974 66.5414 65.5311C66.1019 65.1648 65.8821 64.7985 65.8821 64.359C65.8821 64.2125 66.0286 63.6264 66.3949 62.6007C66.7612 61.1355 67.4205 58.8645 68.2997 55.8608C70.8638 48.0952 73.0616 44.2125 74.7465 44.2125C76.4315 44.2125 77.7502 46.2637 78.6293 50.3663C79.0689 52.1978 79.4352 55.055 79.7282 58.7912C80.2411 58.9377 80.5341 59.011 80.6806 59.0843C81.0469 59.4506 81.2667 59.7436 81.2667 60.1099ZM77.1641 58.9377C76.285 51.5385 75.5524 47.8755 74.8931 47.8755C74.3802 47.8755 73.4279 49.6337 72.0359 53.0769C71.0835 55.5678 70.2777 57.7656 69.7649 59.5971C70.3509 59.4506 71.3033 59.304 72.5487 59.0843C73.5744 58.8645 75.1861 58.7912 77.1641 58.9377Z" fill="black"/>
<path d="M101.34 63.9194C101.34 64.5055 101.193 64.8718 100.974 65.0183C100.681 65.2381 100.388 65.3114 100.095 65.3846C99.6549 65.4579 98.9223 65.5311 97.8967 65.6777C96.8711 65.7509 95.6989 65.8242 94.4535 65.8974C94.1604 65.8974 93.8674 65.9707 93.7209 66.1905C93.5011 66.4103 93.2813 66.4835 92.9883 66.4835C92.7685 66.4835 92.5487 66.4103 92.3289 66.2637C92.1824 66.1172 91.9626 66.044 91.8161 66.044C91.23 66.044 90.7172 66.044 90.2777 66.1172C89.7648 66.1905 89.3253 66.1905 88.959 66.1905C87.7136 66.1905 86.7612 66.1172 86.1018 66.044C85.4425 65.9707 84.9297 65.7509 84.6366 65.3846C84.3436 65.0183 84.1238 64.5055 84.0505 63.7729C83.9773 63.0403 83.9773 61.9414 83.9773 60.6227C83.9773 59.4506 83.9773 58.2051 84.0505 56.9597C84.1238 55.7143 84.1238 54.5421 84.1971 53.37C84.2703 52.1978 84.3436 51.1722 84.3436 50.293C84.4169 49.3407 84.4168 48.6813 84.4168 48.0952C84.4168 47.5092 84.4169 47.0696 84.3436 46.7033C84.2703 46.4103 84.2703 46.1172 84.2703 45.8242C84.2703 45.3114 84.4169 44.8718 84.6366 44.5788C84.9297 44.2857 85.296 44.2125 85.7355 44.2125C85.9553 44.2125 86.1751 44.2857 86.3949 44.5055C86.6147 44.652 86.7612 44.9451 86.9077 45.1648C87.0542 45.4579 87.1275 45.7509 87.2007 46.1172C87.274 46.4835 87.3473 46.8498 87.3473 47.2161C87.3473 47.8755 87.274 48.7546 87.2007 49.9267C87.1275 51.0256 87.0542 52.2711 86.9077 53.663C86.8344 55.0549 86.6879 56.4469 86.6147 57.9853C86.5414 59.5238 86.4681 60.989 86.4681 62.5275C86.4681 62.8205 86.4681 63.0403 86.5414 63.1868C86.6147 63.3333 86.7612 63.4799 86.9077 63.5531C87.1275 63.6264 87.4205 63.6996 87.7868 63.6996C88.1531 63.6996 88.6659 63.6996 89.252 63.6996C89.6916 63.6996 90.0579 63.6996 90.4242 63.6264C90.7905 63.5531 91.0103 63.4799 91.0103 63.2601C91.0103 62.967 91.0103 62.6007 90.937 62.2344C90.937 61.8681 90.8637 61.5018 90.8637 61.0623V59.304C90.8637 58.5714 90.8637 57.6923 90.8637 56.8132C90.8637 55.9341 90.8637 54.9817 90.8637 53.956C90.8637 53.0037 90.8637 52.0513 90.8637 51.0989C90.8637 50.1465 90.8637 49.3407 90.8637 48.6081V46.8498C90.8637 46.63 90.8637 46.337 90.7905 45.9707C90.7905 45.6044 90.7172 45.3114 90.7172 45.0183C90.7172 44.7985 90.8637 44.5788 91.23 44.359C91.5231 44.1392 91.8894 43.9927 92.2557 43.9927C92.6952 43.9927 93.0615 44.1392 93.5011 44.4322C93.8674 44.7253 94.0872 45.0916 94.0872 45.6044C94.0872 45.8974 94.0139 46.1172 93.9407 46.4103C93.8674 46.7033 93.7941 47.0696 93.6476 47.5092C93.5744 48.022 93.4278 48.6813 93.3546 49.4872C93.2813 50.293 93.2081 51.3919 93.2081 52.7839C93.2081 54.6154 93.2081 56.1538 93.2081 57.326C93.2081 58.4982 93.2081 59.4505 93.2813 60.1831C93.2813 60.9157 93.3546 61.5018 93.3546 61.9414C93.4278 62.381 93.4278 62.7473 93.5011 63.1136C93.5744 63.2601 93.6476 63.3333 93.7209 63.3333C93.8674 63.4066 93.9407 63.4066 94.0139 63.4066C94.8198 63.3333 95.5524 63.2601 96.2117 63.1868C96.8711 63.1136 97.3106 63.0403 97.6037 62.967C97.4571 61.8681 97.3839 60.6227 97.3106 59.2308C97.2374 57.8388 97.2374 56.1538 97.2374 54.3223C97.2374 53.8095 97.2374 53.2234 97.2374 52.4176C97.2374 51.6117 97.3106 50.8791 97.3106 50.0733C97.3106 49.2674 97.3839 48.5348 97.3839 47.8755C97.3839 47.2161 97.3839 46.7033 97.3839 46.337C97.3839 46.1172 97.4571 45.8242 97.6037 45.6044C97.7502 45.3846 97.8967 45.1648 98.0432 44.9451C98.1897 44.7253 98.4095 44.5788 98.7026 44.5055C98.9223 44.359 99.1421 44.2857 99.3619 44.2857C99.5084 44.2857 99.7282 44.359 99.948 44.4322C100.168 44.5055 100.314 44.652 100.534 44.7985C100.681 44.9451 100.827 45.0916 100.974 45.2381C101.12 45.3846 101.12 45.6044 101.12 45.7509C101.12 45.8242 101.12 45.8974 101.047 45.9707C101.047 45.9707 100.974 46.044 100.9 46.1905C100.827 46.2637 100.827 46.4835 100.754 46.7033C100.681 46.9231 100.607 47.3626 100.607 47.8755C100.388 49.8535 100.241 51.7582 100.168 53.5165C100.095 55.2747 100.021 57.033 100.021 58.8645C100.021 59.5238 100.021 60.1099 100.021 60.7692C100.021 61.4286 100.095 62.0147 100.095 62.674C100.388 62.674 100.607 62.7473 100.754 62.8938C101.267 63.2601 101.34 63.5531 101.34 63.9194Z" fill="black"/>
<path d="M119.582 46.1905C119.582 46.4103 119.435 46.5568 119.142 46.8498C118.849 47.0696 118.703 47.2161 118.703 47.3626C118.19 48.3883 117.97 50.4396 117.97 53.4432V54.6887C118.043 54.6887 118.116 54.6887 118.19 54.6887C118.483 54.6887 118.776 54.8352 118.996 55.2015C119.289 55.5678 119.362 55.9341 119.362 56.2271C119.362 56.4469 119.142 56.6667 118.776 56.7399C118.483 56.8132 118.19 56.8865 117.897 56.9597C117.897 57.9854 117.97 58.9377 117.97 59.9634C118.043 61.2821 118.116 62.2344 118.336 62.8205C118.483 63.3333 118.556 63.6996 118.556 63.8462C118.556 64.2857 118.41 64.652 118.116 65.0183C117.823 65.3846 117.457 65.5311 117.091 65.5311C116.358 65.5311 115.845 65.0916 115.626 64.2857C115.552 64.1392 115.479 63.4066 115.333 62.0879C115.259 61.6484 115.259 61.0623 115.259 60.4029V59.0843C115.259 58.2051 115.186 57.5458 115.113 56.9597C114.014 57.033 112.622 57.1795 111.084 57.4725C109.765 57.7656 108.446 57.9854 107.127 58.2784C107.201 58.5714 107.274 59.6703 107.274 61.7216C107.274 63.3333 107.494 64.359 107.933 64.8718C108.007 64.9451 108.007 65.0916 108.007 65.1648C108.007 65.6777 107.64 65.9707 106.834 65.9707C106.102 65.9707 105.589 65.7509 105.149 65.2381C104.93 64.9451 104.637 62.7473 104.417 58.6447C104.051 58.5714 103.758 58.3517 103.538 57.9121C103.318 57.5458 103.245 57.1062 103.245 56.6667C103.245 56.4469 103.391 56.2271 103.611 56.1539C103.831 56.0806 104.124 55.9341 104.344 55.8608C104.344 55.5678 104.417 55.055 104.49 54.3956C104.563 53.8095 104.563 53.2967 104.563 52.9304C104.563 49.1942 104.783 46.8498 105.149 45.8242C105.442 45.0183 105.955 44.5788 106.761 44.5788C107.201 44.5788 107.64 44.7253 108.08 45.0916C108.519 45.3846 108.666 45.8242 108.666 46.337C108.666 46.5568 108.593 46.9231 108.446 47.2894C108.226 47.8022 108.153 48.0953 108.08 48.1685C107.567 49.9268 107.274 52.0513 107.274 54.4689V55.2015C107.421 55.2015 107.933 55.1282 108.666 54.9817C110.937 54.4689 113.062 54.2491 115.113 54.2491C115.186 51.1722 115.259 49.1209 115.333 48.2418C115.626 45.2381 116.358 43.6996 117.311 43.6996C117.897 43.6996 118.41 43.9194 118.776 44.4322C119.362 45.0183 119.582 45.5311 119.582 46.1905Z" fill="black"/>
<path d="M120.9 65.0183C120.9 64.4322 121.047 63.8462 121.34 63.3333C121.633 62.8205 121.999 62.3077 122.512 61.7949C123.025 61.2821 123.684 60.7692 124.49 60.1831C125.296 59.6703 126.175 59.011 127.201 58.3516C126.541 58.2051 125.955 57.9853 125.296 57.6923C124.637 57.3993 124.051 57.033 123.538 56.5934C123.025 56.1538 122.585 55.5678 122.292 54.9084C121.999 54.2491 121.78 53.4432 121.78 52.5641C121.78 51.2454 121.999 50.1465 122.512 49.1209C123.025 48.0952 123.684 47.2894 124.49 46.5568C125.296 45.8974 126.175 45.3114 127.128 44.9451C128.08 44.5788 129.032 44.4322 129.985 44.4322C130.278 44.4322 130.644 44.4322 131.01 44.5055C131.377 44.5788 131.596 44.5788 131.816 44.5788C131.963 44.5788 132.182 44.5055 132.402 44.2857C132.622 44.0659 132.842 43.9927 133.208 43.9927C133.574 43.9927 133.867 44.0659 134.014 44.2857C134.16 44.4322 134.307 44.652 134.38 44.8718C134.673 44.9451 134.966 45.1648 135.259 45.3846C135.479 45.6044 135.626 45.9707 135.626 46.4103C135.626 46.7766 135.552 47.0696 135.406 47.2161C135.259 47.4359 134.893 47.5092 134.454 47.5092C134.454 48.6813 134.527 49.9267 134.6 51.0989C134.673 52.2711 134.747 53.4432 134.747 54.6886V55.2747C134.747 55.4945 134.747 55.7143 134.747 55.9341C135.186 56.0806 135.552 56.3004 135.772 56.5934C135.992 56.8864 136.065 57.1795 136.065 57.4725C136.065 58.0586 135.919 58.4249 135.699 58.6447C135.406 58.8645 135.113 59.0843 134.673 59.1575C134.6 60.9158 134.454 62.3077 134.38 63.2601C134.307 64.2125 134.16 64.7985 133.941 65.0916C133.794 65.3114 133.574 65.5311 133.281 65.6777C132.988 65.8242 132.695 65.8974 132.476 65.8974C132.036 65.8974 131.67 65.8242 131.45 65.7509C131.23 65.6044 131.157 65.3846 131.157 65.0183C131.157 64.8718 131.157 64.652 131.23 64.5055C131.303 64.359 131.377 64.1392 131.523 63.8461C131.743 63.3333 131.889 62.7472 132.036 61.9414C132.182 61.2088 132.256 60.3297 132.256 59.304C132.182 59.2308 132.109 59.2308 131.963 59.2308C131.816 59.2308 131.596 59.2308 131.23 59.2308C130.791 59.2308 130.204 59.4506 129.399 59.8901C128.593 60.3297 127.64 60.989 126.541 61.7216C125.369 62.5275 124.49 63.2601 123.977 63.9194C123.391 64.5788 123.098 65.1648 123.025 65.6044C122.805 65.8242 122.439 65.9707 122.073 65.9707C121.853 65.9707 121.633 65.8974 121.413 65.7509C121.047 65.7509 120.9 65.4579 120.9 65.0183ZM124.344 52.4908C124.344 53.2967 124.49 53.956 124.856 54.3956C125.223 54.9084 125.662 55.2747 126.248 55.5678C126.834 55.8608 127.421 56.0806 128.153 56.2271C128.886 56.3736 129.618 56.5201 130.351 56.6667C130.497 56.6667 130.717 56.5934 131.084 56.5201C131.377 56.4469 131.816 56.3004 132.329 56.1538C132.329 54.6154 132.256 53.0769 132.109 51.5385C131.963 50 131.816 48.5348 131.523 47.2161C131.157 47.1429 130.644 47.1429 130.058 47.1429C129.399 47.1429 128.666 47.2894 128.007 47.5824C127.347 47.8755 126.688 48.2418 126.175 48.7546C125.662 49.2674 125.223 49.7802 124.856 50.4396C124.563 51.0989 124.344 51.7582 124.344 52.4908Z" fill="black"/>
<path d="M137.018 65.1648C137.018 64.5787 137.164 64.0659 137.384 63.6264C137.604 63.1135 137.97 62.674 138.483 62.1612C138.996 61.6483 139.582 61.2088 140.314 60.696C141.047 60.1831 141.926 59.5971 142.878 58.9377C142.292 58.7912 141.706 58.5714 141.12 58.3516C140.534 58.1319 140.021 57.7656 139.508 57.326C138.996 56.8864 138.629 56.3736 138.336 55.7875C138.043 55.2014 137.897 54.4688 137.897 53.5897C137.897 52.4176 138.117 51.3187 138.629 50.3663C139.069 49.4139 139.728 48.608 140.461 48.022C141.193 47.3626 142.073 46.8498 142.952 46.5568C143.831 46.1905 145.369 46.0439 146.248 46.0439C146.541 46.0439 146.834 46.0439 147.201 46.1172C147.494 46.1905 147.787 46.1905 147.933 46.1905C148.08 46.1905 150.204 46.2637 150.278 46.4835C150.571 46.5568 150.864 46.7033 151.084 46.9231C151.303 47.1428 151.45 47.4359 151.45 47.9487C151.45 48.315 151.377 48.5348 151.23 48.6813C151.084 48.8278 150.791 48.9743 150.351 48.9743C150.351 50.0732 150.058 54.4689 150.058 55.641V56.2271C150.058 56.4469 150.058 56.5934 150.058 56.8132C150.497 56.9597 150.791 57.1795 151.01 57.4725C151.23 57.7656 151.303 57.9853 151.303 58.2784C151.303 58.7912 150.351 59.8168 149.985 59.8901C149.179 62.8938 150.791 66.1172 150.131 66.5568C149.911 66.7033 149.399 66.7765 149.179 66.7033C147.421 66.4102 147.201 62.8938 147.64 60.1099C147.64 60.0366 147.494 60.0366 147.421 60.0366C147.347 60.0366 147.054 60.0366 146.688 60.0366C146.322 60.0366 145.736 60.2564 145.003 60.696C144.27 61.1355 143.391 61.7216 142.366 62.3809C141.267 63.1135 140.461 63.8461 139.948 64.4322C139.435 65.0916 139.142 65.6044 138.996 65.9707C138.776 66.1905 138.483 66.337 138.043 66.337C137.823 66.337 137.677 66.2637 137.457 66.1172C137.091 65.8242 137.018 65.5311 137.018 65.1648ZM140.241 53.4432C140.241 54.1758 140.388 54.7619 140.754 55.2747C141.12 55.7143 141.486 56.0806 142.073 56.3736C142.585 56.6667 143.171 56.8864 143.831 56.9597C144.49 57.1062 145.149 57.2527 145.882 57.326C146.029 57.326 146.248 57.326 146.541 57.2527C146.834 57.1795 147.201 57.033 147.714 56.8864C147.714 55.4212 147.787 49.8535 147.567 48.5348C147.201 48.4615 146.761 48.4615 146.248 48.4615C145.589 48.4615 144.417 48.608 143.758 48.8278C143.098 49.0476 142.512 49.4139 142.073 49.9267C141.56 50.3663 141.193 50.8791 140.827 51.5384C140.388 52.1245 140.241 52.7839 140.241 53.4432Z" fill="black"/>
<path d="M85.2227 32.7106C85.296 32.7106 85.3693 32.7106 85.4425 32.7106H85.589L85.9553 32.6374C86.3216 32.5641 86.6879 32.5641 87.1275 32.4908C87.3473 32.4908 87.4938 32.3443 87.5671 32.1245V31.978C87.6403 31.685 87.7136 31.3919 87.7136 31.0989C87.7136 30.9524 87.7136 30.4396 87.7136 29.7802C87.7136 29.1941 87.7136 28.5348 87.7136 28.1685V28.022C87.7136 27.6557 87.6403 26.4835 87.6403 25.8242C87.6403 25.4579 87.4938 25.2381 87.1275 25.0916C87.0542 25.0916 87.0542 25.0183 86.981 25.0183H86.3216C85.9553 25.0183 85.589 25.0183 85.1495 25.0916C84.7832 25.0916 84.4901 25.3846 84.4901 25.8242C84.4901 25.9707 84.4901 26.044 84.4901 26.1905C84.4901 26.2637 84.4901 26.337 84.4901 26.4103L84.5634 27.4359C84.5634 28.022 84.6367 28.6081 84.6367 29.1941C84.6367 29.3407 84.6367 29.5604 84.6367 29.707C84.6367 29.8535 84.6367 30 84.6367 30.2198C84.6367 30.3663 84.6367 31.4652 84.4901 32.2711C84.4901 32.5641 84.7099 32.7106 85.003 32.7106C85.1495 32.7106 85.2227 32.7106 85.2227 32.7106ZM86.3949 30.1465C86.2484 30.1465 86.1751 30.1465 86.0286 30.2198C85.9553 30.2198 85.8821 30.2198 85.8088 30.2198C85.7356 30.2198 85.6623 30.2198 85.5158 30.2198V27.5092C85.589 27.5092 85.589 27.5092 85.6623 27.5092C85.8088 27.5092 86.0286 27.4359 86.1751 27.4359C86.3216 27.4359 86.4682 27.4359 86.5414 27.2894C86.6147 27.1429 86.6147 26.9963 86.5414 26.8498V26.7766L85.3693 26.9231V26.7033C85.3693 26.4103 85.3693 26.1172 85.3693 25.8974C85.3693 25.7509 85.5158 25.7509 85.6623 25.6776C85.7356 25.6776 85.8821 25.6776 85.9553 25.6776C86.2484 25.6776 86.4682 25.6776 86.7612 25.6776C86.981 25.6776 86.981 25.6777 86.981 25.9707C86.981 26.2637 86.981 26.5568 87.0542 26.9231C87.0542 27.0696 87.0542 27.2894 87.0542 27.4359C87.0542 27.6557 87.0542 27.9487 87.0542 28.1685C87.0542 28.6813 87.1275 29.1941 87.1275 29.6337C87.1275 30.0733 87.1275 30.5128 87.0542 31.0256C87.0542 31.2454 86.981 31.4652 86.981 31.685C86.981 31.7582 86.9077 31.8315 86.8345 31.9048C86.7612 31.978 86.6147 31.978 86.5414 31.978H86.4682C86.1751 31.978 85.8821 32.0513 85.589 32.0513H85.3693L85.5158 30.8059H85.6623C85.8821 30.8059 86.1019 30.7326 86.3949 30.7326C86.4682 30.7326 86.5414 30.7326 86.6147 30.6593C86.6879 30.5861 86.7612 30.4396 86.7612 30.3663C86.6879 30.2198 86.4682 30.1465 86.3949 30.1465Z" fill="black"/>
<path d="M78.3363 28.6813H77.8235V28.8278C77.8967 29.1209 77.97 29.3406 78.263 29.2674C79.1421 29.2674 79.948 29.1941 80.8271 29.1941C80.9736 29.1941 81.1934 29.1941 81.3399 29.1941C81.4132 29.1941 81.4865 29.1209 81.5597 29.0476C81.633 28.9743 81.633 28.8278 81.633 28.6813C81.633 28.4615 81.4132 28.4615 81.4132 28.4615C81.3399 28.4615 81.3399 28.4615 81.2667 28.4615H81.1934C81.1934 28.4615 81.1934 28.4615 81.1934 28.3883C81.1934 28.315 81.1934 28.2417 81.2667 28.0952C81.2667 27.9487 81.3399 27.8754 81.3399 27.7289C81.4132 26.9231 81.4132 26.0439 81.3399 25.3113V24.8718C81.3399 24.5787 81.1202 24.4322 80.9736 24.359C80.6073 24.2124 80.241 24.0659 79.8015 24.1392C79.5817 24.1392 79.2887 24.1392 78.9956 24.2124C78.3363 24.359 78.3363 24.5055 78.3363 25.0916V25.5311C78.3363 26.1172 78.4095 26.7765 78.4095 27.4359C78.4095 27.7289 78.4095 27.9487 78.3363 28.2417C78.4095 28.4615 78.4095 28.5348 78.3363 28.6813ZM80.3876 25.1648C80.4608 25.1648 80.6073 25.1648 80.6806 25.1648H80.7539V25.2381C80.7539 25.3113 80.7539 25.3846 80.7539 25.4579V25.5311C80.7539 25.7509 80.7539 25.8242 80.7539 25.8242C80.7539 25.8242 80.7539 25.8242 80.6806 25.8242C80.6073 25.8242 80.5341 25.8242 80.4608 25.7509C80.3876 25.7509 80.3876 25.6776 80.3876 25.6044C80.3876 25.5311 80.3876 25.4579 80.3876 25.3846C80.241 25.3113 80.241 25.2381 80.3876 25.1648ZM80.3143 27.9487C80.3143 27.7289 80.3876 27.4359 80.3143 27.2161C80.3143 26.9231 80.241 26.7033 80.3876 26.4835C80.3876 26.4835 80.3876 26.4835 80.4608 26.4835V26.337V26.4835C80.7539 26.4835 80.7539 26.4835 80.7539 26.7765C80.7539 27.2894 80.7539 27.8022 80.7539 28.315C80.7539 28.3883 80.6806 28.4615 80.6806 28.4615H80.6073C80.5341 28.4615 80.3876 28.4615 80.3143 28.3883V28.315C80.3143 28.1685 80.3143 28.0952 80.3143 27.9487ZM79.655 27.2161C79.655 27.2894 79.655 27.3626 79.655 27.3626V27.5824C79.655 27.8022 79.655 28.022 79.655 28.315C79.655 28.3883 79.655 28.4615 79.655 28.4615C79.655 28.4615 79.5817 28.4615 79.5084 28.4615C79.4352 28.4615 79.2887 28.4615 79.2154 28.3883L79.1421 28.315C79.2154 27.9487 79.2154 27.6557 79.1421 27.3626C79.1421 27.0696 79.1421 26.8498 79.1421 26.5568C79.1421 26.4835 79.1421 26.4102 79.1421 26.4102C79.2154 26.4102 79.2154 26.4102 79.2887 26.4102C79.3619 26.4102 79.3619 26.4102 79.3619 26.4102C79.4352 26.4835 79.5084 26.4835 79.5084 26.4835C79.5084 26.63 79.5084 26.7033 79.5817 26.7765C79.655 26.9963 79.7282 27.0696 79.655 27.2161ZM79.0689 25.5311C79.0689 25.4579 79.0689 25.4579 79.0689 25.3846C79.0689 25.0916 79.2154 25.0916 79.2154 25.0916C79.2887 25.0916 79.3619 25.0916 79.4352 25.1648C79.5084 25.1648 79.5084 25.2381 79.5084 25.2381C79.5084 25.3846 79.5817 25.6044 79.5817 25.8242L79.5084 25.8974H79.4352C79.2887 25.8974 79.1421 25.8974 79.0689 25.8242C79.0689 25.7509 79.0689 25.7509 79.0689 25.5311Z" fill="black"/>
<path d="M70.7172 23.8461C70.2777 23.9194 70.0579 24.1391 70.0579 24.652V24.8717C70.0579 25.0915 70.0579 25.3846 70.0579 25.6043C70.0579 26.0439 70.1312 26.4835 70.2044 26.923V27.2161C70.2044 27.3626 70.2777 27.5091 70.2777 27.6556V27.7289L69.9114 27.6556V27.8021C69.9114 28.2417 69.9846 28.315 70.3509 28.3882C70.4975 28.3882 70.7172 28.3882 70.8637 28.4615C71.0835 28.4615 71.3033 28.5347 71.5231 28.5347C71.9627 28.5347 72.329 28.608 72.7685 28.608L73.4279 28.6813L73.5011 28.0219L73.0616 28.0952C73.0616 28.0219 73.0616 27.8754 72.9883 27.8021C72.915 27.5091 72.915 27.2893 72.915 26.9963C72.915 26.2637 72.915 25.6043 72.915 24.8717C72.915 24.5787 72.8418 24.3589 72.622 24.2124C72.4755 24.1391 72.329 24.0659 72.1092 23.9926C71.9627 23.9194 71.7429 23.9194 71.5231 23.9194C71.2301 23.7728 71.0103 23.7728 70.7172 23.8461ZM71.6696 25.0183C71.6696 24.945 71.6696 24.8717 71.6696 24.7985C71.6696 24.652 71.6696 24.652 71.8161 24.5787C71.8894 24.5787 71.8894 24.5787 71.9626 24.5787C72.0359 24.5787 72.0359 24.5787 72.1092 24.7985C72.1092 24.8717 72.1092 24.945 72.1092 24.945V25.0183C72.1092 25.0915 72.1092 25.1648 72.0359 25.1648C71.9627 25.1648 71.8894 25.1648 71.7429 25.1648H71.6696H71.5963V25.0915L71.6696 25.0183ZM71.6696 25.9706V25.8974L71.7429 25.8241C71.8161 25.8241 71.8894 25.8241 71.8894 25.8241H71.9626C72.0359 25.8241 72.0359 25.8241 72.0359 25.8974L72.1092 26.4102C72.1092 26.5567 72.1092 26.7032 72.1092 26.8498C72.1092 27.0695 72.1092 27.2161 72.1092 27.4358C72.1824 27.5824 72.1092 27.5824 72.1092 27.5824C72.1092 27.5824 72.0359 27.5824 71.8894 27.6556H71.8161C71.6696 27.6556 71.6696 27.6556 71.5963 27.4358C71.5963 27.2893 71.5963 27.2161 71.5963 27.0695C71.5963 26.8498 71.5964 26.5567 71.5231 26.3369C71.6696 26.2637 71.6696 26.1172 71.6696 25.9706ZM71.0835 27.1428C71.0835 27.2893 71.0835 27.4358 71.1568 27.5091V27.5824C71.0835 27.5824 71.0835 27.5824 71.0103 27.6556H70.937C70.8638 27.6556 70.8638 27.6556 70.7905 27.5091C70.7905 27.1428 70.7172 26.7765 70.7172 26.3369V25.8974C70.7172 25.8241 70.7172 25.8241 70.7172 25.8241C70.7172 25.8241 70.7172 25.8241 70.7905 25.8241H70.8637H70.937C70.937 25.8241 71.0103 25.8241 71.0103 25.8974C71.0835 25.9706 71.0835 26.0439 71.0835 26.1904C71.0835 26.3369 71.0835 26.5567 71.0835 26.7032C71.0835 26.7765 71.0835 26.9963 71.0835 27.1428ZM70.8637 24.5787C70.937 24.652 71.0103 24.7252 71.0103 24.7252C71.0103 24.7985 71.0103 24.7985 71.0103 24.8717C71.0103 25.0183 71.0835 25.1648 70.937 25.1648C70.937 25.1648 70.8638 25.1648 70.7905 25.1648C70.7172 25.1648 70.7172 25.1648 70.644 25.1648H70.5707C70.5707 25.1648 70.5707 25.1648 70.5707 25.0915C70.5707 24.945 70.5707 24.7985 70.5707 24.652V24.5787C70.7172 24.652 70.7905 24.5787 70.8637 24.5787Z" fill="black"/>
<path d="M95.3326 30.2198C95.3326 30.1465 95.2594 30.0732 95.2594 30C95.1861 29.7069 94.8931 29.5604 94.6 29.5604C94.5268 29.5604 94.5268 29.5604 94.4535 29.5604H94.307C93.7942 29.7069 93.2814 29.7802 92.7685 29.9267C92.329 30 91.9627 30.0732 91.5231 30.1465L91.0103 30.2198L90.644 30.293C90.351 30.3663 90.1312 30.3663 89.8381 30.4395C89.5451 30.4395 89.1788 30.5128 88.8858 30.5128C88.666 30.5128 88.4462 30.5128 88.2264 30.5861C88.0066 30.5861 87.9334 30.5861 87.8601 30.7326C87.7869 30.8058 87.7869 30.9524 87.8601 31.2454V31.3187H88.0799C88.1532 31.3187 88.2264 31.3187 88.2997 31.3187C88.3729 31.3187 88.3729 31.3187 88.4462 31.3187C88.5195 31.3187 88.5195 31.3187 88.5927 31.3187C88.7392 31.3187 88.8858 31.3187 89.0323 31.2454C89.1788 31.2454 89.3986 31.1721 89.5451 31.1721C90.2044 31.0989 90.8638 31.0256 91.5231 30.8791L92.1092 30.8058C92.622 30.7326 93.1348 30.6593 93.6477 30.5861C93.9407 30.5128 94.2337 30.4395 94.5268 30.293L94.6733 30.2198C94.7466 30.2198 94.8198 30.1465 94.8931 30.1465C94.9663 30.1465 94.9663 30.1465 95.0396 30.293C95.0396 30.3663 95.0396 30.4395 95.0396 30.4395C95.0396 30.4395 94.9663 30.5128 94.8198 30.5128H94.7466C94.6733 30.5128 94.6733 30.5128 94.6 30.5128C94.5268 30.5128 94.4535 30.4395 94.307 30.4395C94.1605 30.4395 94.014 30.5128 93.9407 30.5128C93.8674 30.5128 93.7942 30.5861 93.7209 30.5861C93.3546 30.6593 92.9883 30.7326 92.5488 30.8058C92.1825 30.8791 91.7429 30.9524 91.3766 31.0256C90.4975 31.1721 89.5451 31.3187 88.666 31.3919L88.3729 31.4652C88.1532 31.4652 88.0799 31.5384 88.0066 31.6117C87.9334 31.7582 87.9334 31.9047 88.0066 32.1245V32.1978L88.4462 32.1245C88.7392 32.1245 89.0323 32.0513 89.3253 32.0513C89.5451 32.0513 89.7649 31.978 89.9847 31.978C90.2044 31.9047 90.4975 31.9047 90.7173 31.8315C91.0836 31.7582 91.5231 31.685 91.8894 31.6117C92.1092 31.6117 92.329 31.5384 92.5488 31.4652C92.9151 31.3919 93.2081 31.3187 93.5744 31.3187H93.6477H93.7209L94.0872 31.2454C94.3803 31.1721 94.6733 31.0989 94.8931 31.0256C95.0396 30.9524 95.2594 30.8791 95.4059 30.8058C95.6257 30.6593 95.6989 30.5128 95.5524 30.293C95.3326 30.293 95.3326 30.2198 95.3326 30.2198Z" fill="black"/>
<path d="M68.5927 25.2381C68.5927 24.945 68.5194 24.652 68.5194 24.3589V24.2124C68.5194 23.9194 68.2996 23.8461 68.1531 23.7729C67.8601 23.6996 67.567 23.6263 67.2007 23.6263C67.0542 23.6263 66.9077 23.6263 66.8344 23.6263C66.4681 23.6996 66.2484 23.9194 66.2484 24.2857C66.2484 24.5787 66.2484 24.8718 66.2484 25.1648C66.3216 25.6776 66.3216 26.2637 66.3949 26.7765C66.3949 26.923 66.4681 27.0696 66.4681 27.2893V27.3626C66.3949 27.3626 66.3949 27.3626 66.3216 27.3626H66.1751V27.5091C66.1751 27.7289 66.1018 27.8754 66.1751 27.9487C66.2484 28.0219 66.3949 28.0952 66.5414 28.0952C66.6879 28.0952 66.8344 28.0952 66.981 28.1685H67.274L69.1788 28.3882L69.252 27.7289H68.8125C68.7392 26.8498 68.666 26.0439 68.5927 25.2381ZM66.8344 24.7985C66.8344 24.7985 66.8344 24.5787 66.8344 24.5055C66.8344 24.4322 66.8344 24.4322 66.9077 24.4322H66.981C67.0542 24.4322 67.0542 24.4322 67.0542 24.4322C67.1275 24.652 67.1275 24.7985 67.1275 24.945L66.981 25.0183L66.9077 24.945C66.8344 24.8718 66.8344 24.8718 66.8344 24.7985ZM67.1275 27.4359C67.0542 27.4359 66.981 27.2893 66.981 27.2161C66.9077 26.7033 66.9077 26.2637 66.8344 25.7509C66.8344 25.6044 66.8344 25.6044 66.9077 25.6044H66.981C67.0542 25.6044 67.0542 25.6044 67.1275 25.6776C67.1275 25.7509 67.1275 25.7509 67.1275 25.8241C67.1275 25.8974 67.1275 25.8974 67.1275 25.9707C67.1275 26.1172 67.1275 26.1904 67.1275 26.337V26.5567L67.2007 27.3626C67.2007 27.4359 67.2008 27.4359 67.1275 27.4359ZM67.7136 24.7985V24.7252C67.7136 24.4322 67.7136 24.4322 67.7868 24.4322C67.7868 24.4322 67.7868 24.4322 67.8601 24.4322C67.9334 24.4322 67.9333 24.4322 68.0066 24.652C68.0799 24.945 68.0066 24.945 67.9334 25.0183C67.8601 25.0183 67.8601 25.0183 67.7868 25.0183C67.7136 25.0183 67.7136 25.0183 67.7136 25.0183C67.7136 25.0183 67.6403 24.945 67.7136 24.7985ZM68.2264 27.3626C68.1531 27.3626 68.1531 27.3626 68.0799 27.3626H68.0066C67.9333 27.3626 67.8601 27.3626 67.8601 27.2161C67.8601 26.9963 67.8601 26.8498 67.7868 26.63C67.7868 26.337 67.7136 26.0439 67.7136 25.7509C67.7136 25.6044 67.7136 25.6044 67.7868 25.6044H67.8601C67.9334 25.6044 67.9333 25.6044 68.0066 25.6776C68.0799 25.9707 68.0799 26.2637 68.0799 26.63V26.7033C68.0799 26.8498 68.0799 26.9963 68.1531 27.1428C68.2264 27.2161 68.2264 27.2161 68.2264 27.3626Z" fill="black"/>
<path d="M68.8857 17.033C68.5194 17.1062 68.2997 17.326 68.2997 17.6923C68.2264 18.8645 68.2997 19.8901 68.3729 20.7692H68.2997C68.2264 20.7692 68.2264 20.7692 68.1531 20.7692L68.0066 20.8425L68.0799 20.989C68.2264 21.3553 68.2997 21.3553 68.666 21.4286C68.8857 21.4286 69.1055 21.5018 69.3253 21.5018C69.5451 21.5018 69.6916 21.5751 69.9114 21.5751C69.9846 21.5751 70.1312 21.5751 70.2044 21.5751C70.2777 21.5751 70.3509 21.5751 70.4242 21.5751C70.5707 21.5751 70.644 21.5751 70.7905 21.5751H71.0835L71.2301 20.9158H70.7905C70.7905 20.8425 70.7905 20.696 70.7905 20.6227C70.7905 20.3297 70.7172 20.1099 70.7172 19.8169C70.7172 19.4505 70.7172 19.011 70.7172 18.6447C70.7172 18.4249 70.7172 18.1319 70.7172 17.9121C70.7172 17.6923 70.7172 17.5458 70.644 17.3993C70.644 17.326 70.4975 17.1795 70.4242 17.1062C70.0579 16.9597 69.7649 16.8864 69.3986 16.9597C69.1788 17.033 69.0323 17.033 68.8857 17.033ZM68.8125 17.9121C68.8125 17.8388 68.8125 17.8388 68.8857 17.8388C68.8857 17.8388 68.8857 17.8388 68.959 17.8388C69.0323 17.8388 69.0323 17.8388 69.0323 17.9121C69.0323 18.0586 69.1055 18.2051 69.0323 18.3516C69.0323 18.3516 69.0323 18.4249 68.8125 18.4249H68.7392V18.3516C68.7392 18.2784 68.7392 18.2051 68.7392 18.2051L68.8125 17.9121ZM69.0323 20.7692C68.959 20.7692 68.959 20.7692 69.0323 20.7692C68.8857 20.7692 68.8857 20.7692 68.8857 20.6227C68.8857 20.4029 68.8857 20.2564 68.8125 20.0366V19.8901V19.5238C68.8125 19.3773 68.8125 19.1575 68.8125 19.011C68.8125 18.9377 68.8125 18.9377 68.8857 18.9377H68.959C69.0323 18.9377 69.0323 18.9377 69.0323 19.011V19.0842C69.0323 19.1575 69.1055 19.2308 69.1055 19.304C69.1055 19.4506 69.1055 19.5971 69.1055 19.8169C69.1055 19.9634 69.1055 20.1099 69.1055 20.2564C69.1055 20.3297 69.1055 20.4762 69.1055 20.5495V20.6227C69.1055 20.7692 69.1055 20.7692 69.0323 20.7692ZM69.8381 20.7692C69.7649 20.7692 69.6916 20.7692 69.6916 20.6227C69.6916 20.4029 69.6916 20.1099 69.6916 19.8901C69.6916 19.5971 69.6916 19.3773 69.6916 19.0842C69.6916 19.011 69.6916 18.9377 69.8381 18.9377C69.8381 18.9377 69.8381 18.9377 69.9114 18.9377C69.9846 18.9377 69.9846 18.9377 70.0579 19.011V19.4505L70.1312 20.4762C70.0579 20.7692 70.0579 20.7692 69.8381 20.7692ZM69.6183 18.2051C69.6183 18.1319 69.6916 18.0586 69.6183 17.9853L69.6916 17.9121H69.7649C69.7649 17.9121 69.8381 17.9121 69.8381 18.0586V18.1319V18.4249L69.7649 18.4982C69.6916 18.4982 69.6183 18.4982 69.5451 18.4982C69.4718 18.4982 69.4718 18.4982 69.4718 18.4982C69.6183 18.3516 69.6183 18.3517 69.6183 18.2051Z" fill="black"/>
<path d="M95.7722 23.1136C95.7722 23.0403 95.7722 22.8938 95.6256 22.7473C95.5524 22.674 95.4791 22.674 95.4791 22.6007H95.4059C93.5011 21.3553 91.9626 19.8168 90.7905 17.9853C90.3509 17.326 89.9846 16.6667 89.6183 16.0073C89.4718 15.7875 89.3253 15.4945 89.1788 15.2747C89.0322 15.0549 89.0322 15.0549 89.3253 14.8352C89.4718 14.7619 89.5451 14.6886 89.5451 14.5421C89.6183 14.3223 89.6916 14.1026 89.9114 13.8828C89.9846 13.8095 89.9846 13.8095 90.0579 13.7363L90.2044 13.5897L90.1311 13.5165C89.9846 13.2967 89.8381 13.1502 89.6183 13.1502C89.4718 13.1502 89.3253 13.2234 89.252 13.37C89.1055 13.5165 89.0322 13.5897 88.959 13.7363C88.8125 13.956 88.6659 14.1026 88.3729 14.1026C87.7136 14.1758 87.0542 14.1758 86.3949 14.1758H86.3216C84.5634 14.1758 83.0249 14.1758 81.4864 14.0293C81.5597 13.956 81.5597 13.8095 81.5597 13.7363V13.663C81.5597 13.5165 81.5597 13.37 81.5597 13.1502C81.5597 13.0037 81.5597 12.8571 81.7062 12.7106C81.926 12.4908 81.9993 12.2711 81.926 12.0513C81.8527 11.8315 81.7062 11.685 81.4132 11.5385C81.1934 11.4652 80.9736 11.3187 80.8271 11.2454C80.6806 11.1722 80.5341 11.0989 80.3875 11.0256C80.3143 11.0256 80.241 10.9524 80.0945 10.9524C79.6549 10.9524 79.2154 11.0256 78.7026 11.0256C78.5561 11.0256 78.4095 11.0989 78.4095 11.1722C78.3363 11.3187 78.3363 11.6117 78.3363 11.7582C78.3363 11.9048 78.4095 12.0513 78.556 12.1245C78.7758 12.2711 78.8491 12.4908 78.7758 12.7839V12.8571C78.7758 13.0037 78.7758 13.1502 78.7758 13.2967C78.7758 13.37 78.7758 13.4432 78.7758 13.5165V13.663C78.556 13.663 78.3363 13.5897 78.1165 13.5897L77.6037 13.5165C77.3106 13.4432 77.0176 13.4432 76.7978 13.37L76.578 13.2967C76.2117 13.2234 75.8454 13.1502 75.5524 13.0769C75.4059 13.0037 75.1861 13.0037 75.0396 12.9304C74.8198 12.8571 74.6733 12.7839 74.4535 12.7839C73.1348 12.4908 71.8894 12.0513 70.644 11.685L70.1311 11.5385C70.0579 11.5385 70.0579 11.5385 69.9846 11.5385H69.9114H69.8381C69.8381 11.5385 69.7648 11.5385 69.7648 11.4652C69.6916 11.3187 69.5451 11.0989 69.4718 10.8791C69.4718 10.8059 69.3985 10.7326 69.3985 10.7326C69.3985 10.6593 69.3985 10.6593 69.3253 10.5861C69.1788 10.293 68.959 10.0733 68.5927 10C68.5194 10 68.5194 10 68.4462 10C68.2264 10 68.0066 10.1465 67.9333 10.293C67.7868 10.5128 67.7868 10.8059 67.9333 11.0256C68.0799 11.1722 68.2264 11.3187 68.3729 11.3919C68.5194 11.4652 68.5927 11.5385 68.5927 11.685C68.5927 11.978 68.7392 12.1978 68.959 12.3443C69.1055 12.4176 69.1788 12.4908 69.3253 12.5641H69.3985C69.3253 12.7106 69.252 12.8571 69.1788 13.0037C68.959 13.4432 68.7392 13.8095 68.5194 14.2491C68.2264 14.7619 67.9333 15.2015 67.567 15.7143L67.3473 16.0073C66.8344 16.7399 66.3216 17.5458 65.8088 18.2784C65.1495 19.304 64.4169 20.1099 63.6843 20.7692C63.611 20.8425 63.0982 21.282 63.0982 21.282L63.2447 21.3553C63.3912 21.4286 63.5377 21.5018 63.611 21.5018C63.7575 21.5018 63.904 21.4286 64.0506 21.3553C63.904 24.5788 64.4169 27.5824 65.0029 30.4396C64.9297 30.4396 64.8564 30.4396 64.7832 30.5128C64.7099 30.5861 64.6366 30.6593 64.6366 30.8059C64.6366 30.9524 64.6366 31.0989 64.7099 31.3187C64.7099 31.3919 64.7099 31.4652 64.7099 31.5385C64.7099 31.9048 64.9297 32.1245 65.296 32.1978C65.589 32.2711 65.9553 32.3443 66.2484 32.4176C66.6147 32.4908 67.0542 32.5641 67.4205 32.7106C67.8601 32.7839 68.2264 32.8571 68.5927 32.9304C68.959 33.0037 69.3985 33.0037 69.7648 33.0769C70.2777 33.1502 70.7905 33.1502 71.3033 33.2234C72.4022 33.37 73.5744 33.4432 74.7465 33.37C74.893 33.37 75.0396 33.37 75.1861 33.37C75.2593 33.37 75.2593 33.37 75.3326 33.37H75.4059L75.4791 33.2967V33.2234C75.4791 33.2234 75.4791 33.1502 75.4791 33.0769C75.4791 32.7839 75.4791 32.5641 75.1128 32.5641C75.0396 32.5641 75.0396 32.5641 74.9663 32.5641C74.8198 32.5641 74.6733 32.5641 74.4535 32.5641C74.307 32.5641 74.1604 32.5641 74.0139 32.5641H73.8674C72.5487 32.4908 71.1568 32.4176 69.7648 32.2711C68.7392 32.1245 67.7868 31.978 66.8344 31.8315C66.4681 31.7582 66.1018 31.685 65.6623 31.6117L65.3692 31.5385C65.296 31.5385 65.2227 31.4652 65.1495 31.3919C65.0762 31.3187 65.1495 31.2454 65.1495 31.0989C65.2227 31.0256 65.2227 31.0256 65.2227 31.0256C65.2227 31.0256 65.2227 31.0256 65.296 31.0256C65.4425 31.0989 65.589 31.0989 65.7355 31.0989L68.0799 31.3919C69.1055 31.5385 70.2044 31.6117 71.23 31.7582C71.8161 31.8315 72.4022 31.9048 72.915 31.978C73.3546 32.0513 73.7941 32.1245 74.2337 32.1245C74.4535 32.1245 74.6 32.1245 74.8198 32.1978H75.1861C75.1861 32.1978 75.2593 32.0513 75.2593 31.978C75.2593 31.978 75.2593 31.978 75.2593 32.0513C75.2593 32.1978 75.3326 32.3443 75.3326 32.4908C75.3326 32.6374 75.4059 32.8571 75.4059 33.0037C75.4059 33.1502 75.4791 33.37 75.6989 33.37C75.7722 33.37 75.8454 33.37 75.9919 33.2967H76.0652V33.2234V33.2967L76.1385 33.4432L76.7245 33.37C77.0908 33.2967 77.4571 33.2967 77.8234 33.2967C78.1897 33.2967 78.556 33.2234 78.9223 33.2234C79.2154 33.2234 79.5817 33.2234 79.8747 33.1502C80.4608 33.0769 81.0469 33.0769 81.633 33.0037C81.9993 33.0037 82.4388 32.9304 82.8051 32.9304C83.0249 32.9304 83.2447 32.9304 83.4645 32.8571C83.6843 32.8571 83.904 32.8571 84.1238 32.7839C84.2703 32.7839 84.4169 32.7106 84.4901 32.5641C84.5634 32.4176 84.4901 32.3443 84.4168 32.1978C84.3436 32.1245 84.1971 32.0513 84.0505 32.0513C83.4645 32.0513 82.8784 32.1245 82.2923 32.1245L81.4864 32.1978C81.0469 32.1978 80.6806 32.2711 80.241 32.2711C80.0212 32.2711 79.8015 32.2711 79.5817 32.3443C79.2886 32.3443 78.9223 32.4176 78.6293 32.4176C78.1897 32.4176 77.7502 32.4176 77.3106 32.4908H76.6513C76.3582 32.4908 76.2117 32.4908 76.1385 32.6374C76.1385 32.7106 76.0652 32.7106 76.0652 32.7839C75.9919 32.3443 75.9919 31.685 75.9187 31.0989C75.8454 30.6593 75.8454 30.3663 75.8454 30.293V29.8535C75.8454 29.2674 75.7722 28.6813 75.7722 28.0952V27.8755C75.7722 27.1429 75.6989 26.337 75.7722 25.5311C75.7722 24.7253 75.8454 23.9194 75.9187 23.2601C75.9187 22.967 75.9919 22.674 76.0652 22.3809C76.0652 22.3077 76.0652 22.2344 76.1385 22.1612L76.3582 22.3809L76.4315 22.3077C76.6513 22.1612 76.7245 21.9414 76.7245 21.7949C76.7245 21.5751 76.6513 21.4286 76.4315 21.282C76.3582 21.2088 76.285 21.2088 76.2117 21.1355C76.0652 21.0623 75.9919 20.989 75.9187 20.9157C75.7722 20.7692 75.5524 20.5495 75.4059 20.4029C74.6733 19.6703 73.9407 18.9377 73.3546 17.9853C73.2813 17.8388 73.1348 17.6923 73.0615 17.5458C72.9883 17.3993 72.915 17.2527 72.7685 17.1795C72.6952 17.033 72.622 16.8864 72.4755 16.8132C72.2557 16.4469 72.0359 16.1538 71.8161 15.7875C71.4498 15.1282 71.1568 14.4689 70.8637 13.8828L70.5707 13.2967C70.4974 13.2234 70.4974 13.0769 70.4242 12.9304C70.644 13.0037 70.8637 13.0769 71.0835 13.1502C71.1568 13.1502 71.3766 13.2967 71.3766 13.2967C71.5231 13.37 71.6696 13.4432 71.8161 13.4432C71.9626 13.5165 72.1824 13.5165 72.3289 13.5897C72.5487 13.663 72.6952 13.663 72.915 13.7363C73.2081 13.8095 73.5011 13.8828 73.7941 13.956C74.0872 14.0293 74.3802 14.1026 74.6733 14.1758H74.4535L74.6 14.2491C75.0396 15.4212 75.5524 16.8864 76.285 18.2051C77.0176 19.4505 77.8234 20.5495 78.7758 21.5018C79.0689 21.7949 79.3619 21.7949 79.7282 21.7949V21.6483V21.7949H80.0212L79.8015 21.5751C79.655 21.4286 79.5084 21.3553 79.4352 21.2088C79.1421 20.989 78.9224 20.7692 78.7026 20.5494C78.263 20.0366 77.8234 19.5971 77.5304 19.0842C76.7978 17.9853 76.285 16.8864 75.7722 15.8608C75.5524 15.4212 75.4059 14.9084 75.1861 14.4689C75.1128 14.3223 75.1128 14.2491 75.0396 14.1758C75.1861 14.1758 75.3326 14.2491 75.4791 14.2491C76.1385 14.3956 76.7978 14.4689 77.5304 14.6154C77.8234 14.6886 78.1165 14.6886 78.3363 14.7619C79.655 14.9817 80.9736 15.0549 82.2923 15.1282H82.4388C82.5853 15.1282 82.7319 15.1282 82.8784 15.1282C83.2447 15.1282 83.5377 15.2015 83.904 15.2015C85.3692 15.2015 86.6147 15.1282 87.8601 15.1282H87.9333C88.2264 15.1282 88.3729 15.2015 88.5194 15.4945C89.1055 16.7399 89.6916 17.7656 90.3509 18.6447C91.3766 20.0366 92.5487 21.3553 93.9407 22.5275H93.5744C93.3546 22.5275 93.2081 22.5275 92.9883 22.6007C92.622 22.6007 92.1824 22.674 91.8161 22.674H91.7429C91.1568 22.674 90.4974 22.674 89.9114 22.674C89.252 22.674 88.5194 22.674 87.8601 22.674C86.3949 22.674 84.9297 22.5275 83.3179 22.3809C82.8051 22.3077 82.2923 22.2344 81.7795 22.2344C81.4865 22.2344 81.1934 22.1612 80.9004 22.1612C80.6806 22.1612 80.5341 22.0879 80.3143 22.0879C80.0945 22.0879 79.8015 22.0146 79.5817 22.0146C79.2886 22.0146 79.0689 21.9414 78.7758 21.9414C78.4828 21.8681 78.1897 21.8681 77.8234 21.7949C77.7502 21.7949 77.6037 21.7949 77.5304 21.7949C77.2374 21.7949 77.0908 22.0147 76.9443 22.3077L76.8711 22.4542H77.0176L77.1641 22.5275C77.3106 22.5275 77.3839 22.6007 77.5304 22.6007C77.97 22.674 78.4828 22.7473 78.9223 22.7473L79.5084 22.8205C80.3143 22.8938 81.1201 22.967 81.926 23.0403C82.219 23.0403 82.5121 23.0403 82.8051 23.1136C83.3179 23.1136 83.8308 23.1136 84.2703 23.2601C84.6366 23.3333 85.0029 23.3333 85.296 23.4066H85.7355C86.1018 23.4066 86.3949 23.4799 86.7612 23.4799C87.1275 23.4799 87.4938 23.4799 87.8601 23.4799C88.2264 23.4799 88.6659 23.4799 89.0322 23.4799C89.6916 23.4799 90.2777 23.4799 90.8637 23.4799C92.1092 23.4799 93.2813 23.4066 94.307 23.2601C94.307 23.2601 94.307 23.5531 94.2337 23.6264C94.1604 23.9927 94.1604 24.359 94.0872 24.7253C94.0872 25.1648 94.0872 25.6044 94.0139 25.9707C94.0139 26.1172 94.0139 26.337 94.0139 26.4835L94.0872 27.1429C94.1604 27.8022 94.1604 28.4615 94.2337 29.0476C94.2337 29.1209 94.2337 29.2674 94.2337 29.3407L94.307 29.6337L94.9663 29.4872V29.4139C94.8198 28.2418 94.7465 27.2161 94.7465 26.2637C94.7465 25.0916 94.8198 24.2125 95.0396 23.2601C95.1128 23.4066 95.2593 23.4799 95.4059 23.4066C95.4791 23.4066 95.5524 23.4066 95.6256 23.3333C95.6989 23.2601 95.7722 23.1868 95.7722 23.1136ZM71.23 16.3004C71.7429 17.1795 72.3289 17.9853 72.915 18.7179C73.0615 18.9377 73.2081 19.0842 73.3546 19.304C73.9407 20.1832 74.6733 20.9157 75.4059 21.5751C75.4059 21.6484 75.3326 21.7216 75.3326 21.7949C75.1128 22.674 74.893 23.7729 74.9663 24.8718C74.9663 24.9451 74.9663 25.2381 74.9663 25.5311C74.9663 25.8974 74.9663 26.2637 74.9663 26.4103C74.9663 26.8498 75.0396 27.2161 75.0396 27.6557C75.1128 28.7546 75.1128 29.8535 75.2593 30.9524C75.2593 31.0989 75.2593 31.2454 75.3326 31.3919C75.2593 31.3187 75.1128 31.2454 74.893 31.2454L71.5231 30.8791C70.7172 30.8059 69.9114 30.7326 69.1055 30.6593C68.5927 30.5861 68.0799 30.5128 67.567 30.5128L66.981 30.4396C66.8344 30.4396 66.7612 30.4396 66.6147 30.3663C66.3216 30.293 66.0286 30.293 65.7355 30.293C65.589 30.293 65.5158 30.2198 65.5158 30.0733C65.4425 29.5604 65.3692 29.1209 65.296 28.6081C65.1495 27.8755 65.0762 27.2161 64.9297 26.4835C64.6366 24.5055 64.5634 22.6007 64.8564 20.7692C64.8564 20.5495 64.9297 20.4029 65.0762 20.3297C65.7355 19.5971 66.3949 18.7912 66.9077 17.9853C66.981 17.8388 67.1275 17.6923 67.2007 17.619C67.4205 17.326 67.6403 16.9597 67.8601 16.6667C68.2996 16.0073 68.6659 15.348 69.0322 14.5421C69.252 14.1758 69.3985 13.8828 69.5451 13.5165C69.6183 13.37 69.6916 13.2234 69.7648 13.0769C69.7648 13.0769 69.7648 13.0769 69.7648 13.1502C69.8381 13.2967 69.9114 13.4432 69.9114 13.5897C70.2044 14.6154 70.7172 15.4945 71.23 16.3004ZM79.5084 13.956V13.7363C79.5084 13.663 79.5084 13.5897 79.5084 13.5897V13.37C79.5084 13.2234 79.5084 13.0037 79.5084 12.8571C79.5084 12.7106 79.5084 12.7106 79.7282 12.7106C79.7282 12.7106 79.8015 12.7106 79.8015 12.8571V12.9304V13.0037L79.8747 13.956C79.6549 13.956 79.5817 13.956 79.5084 13.956ZM80.3875 11.978C80.0212 11.978 79.6549 11.978 79.2886 11.978C79.2154 11.978 79.2154 11.978 79.2154 11.978L79.2886 11.9048C79.4352 11.9048 79.5817 11.8315 79.6549 11.8315C79.948 11.7582 80.241 11.8315 80.3875 11.978ZM80.8271 14.1026C80.7538 14.1026 80.6806 14.1026 80.5341 14.1026V12.7839C80.7539 12.7839 80.7538 12.8571 80.7538 13.0769V13.2967C80.7538 13.5165 80.7538 13.663 80.7538 13.8828C80.7538 13.956 80.8271 14.0293 80.8271 14.1026Z" fill="black"/>
<path d="M76.6513 31.1721C76.578 31.1721 76.5048 31.1721 76.4315 31.1721C76.285 31.1721 76.1385 31.2454 76.0652 31.3186C75.9919 31.4652 75.9919 31.6117 75.9919 31.7582C75.9919 31.9047 76.1385 32.0512 76.285 32.0512H76.3582C76.5048 32.0512 76.7246 32.0513 76.8711 31.978H76.9443C77.0908 31.978 77.1641 31.978 77.3106 31.978C77.4571 31.978 77.6037 31.978 77.7502 31.978C78.0432 31.978 78.4095 31.9047 78.7026 31.9047C78.9956 31.9047 79.2886 31.8315 79.6549 31.8315C79.8015 31.8315 80.0213 31.8315 80.1678 31.8315C80.3143 31.8315 80.5341 31.8315 80.6806 31.8315C80.9004 31.8315 81.1202 31.8315 81.3399 31.7582C81.633 31.7582 81.8528 31.6849 82.1458 31.6849C82.5854 31.6849 83.0249 31.6117 83.4645 31.6117H84.1238C84.1971 31.6117 84.1971 31.6117 84.2703 31.6117C84.4901 31.5384 84.6366 31.4652 84.5634 31.1721C84.4901 30.8791 84.2703 30.8791 84.1971 30.8791L81.0469 31.0256L80.3875 31.0989C79.948 31.0989 79.5084 31.1721 79.0689 31.1721C78.7758 31.1721 78.263 31.1721 77.8234 31.1721C77.3839 31.1721 77.1641 31.1721 77.0176 31.1721C76.9443 31.1721 76.7246 31.1721 76.6513 31.1721Z" fill="black"/>
<path d="M85.7355 17.2527C86.2484 17.9853 86.6879 18.6447 87.2007 19.2308C87.7868 19.9634 88.5194 20.7692 89.3985 21.3553C89.7648 21.5751 90.1311 21.7949 90.4242 22.0146C90.644 22.1612 90.8637 22.2344 91.0835 22.3809C91.1568 22.4542 91.3033 22.4542 91.3766 22.4542C91.5231 22.4542 91.5963 22.3809 91.7429 22.3077L91.8894 22.2344L91.7429 22.1612C91.6696 22.0879 91.5963 22.0879 91.5231 22.0146C91.3766 21.8681 91.1568 21.7949 91.0103 21.7216C90.4242 21.5018 89.9114 21.1355 89.3253 20.5494C87.7868 19.011 86.6879 17.6923 85.8821 16.3004C85.7355 16.0073 85.5158 15.7143 85.3692 15.4945C85.296 15.4212 85.2227 15.2747 85.0762 15.2747C85.0029 15.2747 84.9297 15.348 84.7832 15.4212L84.7099 15.4945L84.7832 15.5678C84.8564 15.7143 85.0029 15.9341 85.0762 16.0806C85.296 16.5201 85.5158 16.8864 85.7355 17.2527Z" fill="black"/>
<path d="M80.3143 18.4249C79.8015 17.6923 79.3619 16.9597 79.0689 16.3736C78.9223 16.1538 78.8491 15.934 78.7026 15.7143C78.6293 15.4945 78.4828 15.348 78.4095 15.1282C78.3363 14.9817 78.263 14.8351 78.1165 14.8351C78.0432 14.8351 77.97 14.8351 77.8967 14.9084L77.7502 14.9817L77.97 15.4945C78.1165 15.7875 78.1897 16.0073 78.3363 16.3003C78.7026 17.2527 79.2154 18.0586 79.7282 18.8644C80.4608 19.8901 81.1934 20.7692 82.0725 21.5018L82.2923 21.6483C82.5121 21.7948 82.7319 22.0146 82.9516 22.1612C83.0982 22.3077 83.318 22.3077 83.4645 22.3077C83.5377 22.3077 83.6842 22.3077 83.7575 22.2344L83.8308 22.1612L83.7575 21.9414H83.6842C83.0249 21.5751 82.3656 20.989 81.8527 20.5494C81.633 20.4029 81.4864 20.1831 81.3399 20.0366C81.1201 19.7436 80.9004 19.4505 80.6806 19.1575C80.6073 18.8644 80.4608 18.6447 80.3143 18.4249Z" fill="black"/>
<path d="M81.9993 16.0073L81.7062 15.5678C81.633 15.4212 81.4864 15.2747 81.2667 15.2747H81.1934H81.0469L81.1934 15.5678C81.2667 15.641 81.2667 15.7875 81.3399 15.8608C81.8527 16.8132 82.4388 17.7656 83.1714 18.7912C83.8308 19.7436 84.4901 20.4762 85.1494 21.0623C85.6623 21.5018 86.2483 22.0146 86.9077 22.2344C87.0542 22.3077 87.2007 22.3077 87.3472 22.3077C87.4938 22.3077 87.567 22.2344 87.7135 22.2344L87.8601 22.1612L87.7135 22.0879C87.567 22.0146 87.4938 21.9414 87.3472 21.8681C87.274 21.8681 87.274 21.8681 87.2007 21.7949C87.0542 21.7216 86.9809 21.7216 86.9077 21.6483C86.8344 21.5751 86.7612 21.5018 86.6146 21.4286C86.3216 21.2088 85.9553 20.989 85.7355 20.696C85.0762 19.9634 84.4168 19.2308 83.8308 18.4982C83.0249 17.7656 82.5121 16.8864 81.9993 16.0073Z" fill="black"/>
<path d="M84.6366 24.8717C84.9297 24.7985 85.2227 24.7985 85.4425 24.7252H85.589C85.8088 24.7252 86.0286 24.7252 86.2484 24.7252C86.4681 24.7252 86.6879 24.7252 86.8344 24.7252C87.1275 24.7252 87.3473 24.7985 87.6403 24.8717C87.567 25.0915 87.567 25.3113 87.7136 25.5311L87.7868 25.6776L88.6659 24.3589H88.4462C88.2996 24.3589 88.1531 24.2857 88.0066 24.2857C87.6403 24.2124 87.3473 24.2124 87.0542 24.2124H86.9077C86.6879 24.2124 86.3949 24.2124 86.1018 24.2124C85.1495 24.2124 84.4169 24.2857 83.7575 24.4322C83.6843 24.4322 83.5377 24.5054 83.5377 24.5787C83.4645 24.652 83.4645 24.7252 83.5377 24.7985C83.611 25.0183 83.611 25.238 83.5377 25.4578C83.5377 25.5311 83.5377 25.6043 83.5377 25.6776C83.5377 25.7509 83.611 25.8241 83.611 25.8974C83.611 25.8974 83.611 25.8974 83.611 25.9706L83.6843 26.1172L83.8308 26.0439C83.8308 26.0439 83.8308 26.0439 83.904 26.0439C83.9773 25.9706 84.0506 25.9706 84.0506 25.8974C84.1238 25.6776 84.2703 25.5311 84.2703 25.3113C84.4169 24.945 84.4901 24.8717 84.6366 24.8717Z" fill="black"/>
<path d="M63.2447 29.2674H63.5377C63.611 29.2674 63.611 29.2674 63.6843 29.2674C63.8308 29.2674 63.904 29.1941 63.9773 29.1209C63.9773 29.0476 64.0506 28.9744 64.0506 28.8278C64.0506 28.5348 63.8308 28.5348 63.6843 28.5348C63.611 28.5348 63.611 28.5348 63.5377 28.5348C63.1714 28.5348 62.7319 28.6081 62.3656 28.6813C62.1458 28.7546 61.926 28.7546 61.633 28.7546C61.1934 28.7546 60.7539 28.6813 60.1678 28.608H60.0945C59.948 28.608 59.8747 28.6813 59.8015 28.9011C59.8015 29.1941 59.948 29.1941 60.0213 29.1941H60.1678C60.3143 29.1941 60.5341 29.2674 60.6806 29.2674C60.9004 29.3407 61.1202 29.3406 61.3399 29.3406C61.4865 29.3406 61.7062 29.3407 61.926 29.2674C62.2191 29.1941 62.5121 29.1941 62.7319 29.1209L63.2447 29.2674Z" fill="black"/>
<path d="M92.2557 33.5165C92.1824 33.5165 92.1824 33.5165 92.1092 33.5165H92.0359C91.6696 33.5165 91.3766 33.5897 91.0103 33.5897C91.0835 33.5165 91.1568 33.5165 91.1568 33.37L91.23 33.2967L91.1568 33.2234L91.0835 33.1502C91.0103 33.1502 90.937 33.0769 90.8637 33.0769C90.7172 33.0037 90.5707 33.0037 90.4242 33.0037C90.3509 33.0037 90.2777 33.0037 90.2044 32.9304C90.0579 32.8571 89.8381 32.8571 89.6183 32.8571C89.252 32.8571 88.8125 32.7839 88.4462 32.7839H88.0066C87.9333 32.7839 87.8601 32.7839 87.7136 32.7839C87.567 32.7839 87.3473 32.8571 87.2007 32.8571C86.8344 32.9304 86.4681 33.0037 86.0286 33.0037C85.8088 33.0037 85.589 33.0769 85.3692 33.1502C85.296 33.1502 85.1495 33.2234 85.0762 33.2234C85.0029 33.2234 85.0029 33.2967 84.9297 33.37C84.9297 33.37 84.9297 33.4432 84.8564 33.4432L84.7099 33.5897L85.5158 33.8095C85.589 33.8095 85.7355 33.8095 85.8088 33.8828C86.0286 33.8828 86.1751 33.956 86.3216 34.0293C86.8344 34.2491 87.3473 34.3223 87.7136 34.3223C87.7868 34.3223 87.9333 34.3223 88.0066 34.3223C88.2996 34.3223 88.5194 34.2491 88.7392 34.2491H88.8857C89.0322 34.2491 89.252 34.1758 89.3985 34.1758C89.3253 34.2491 89.252 34.3223 89.252 34.3956C89.252 34.4689 89.3253 34.5421 89.3985 34.6154C89.4718 34.6886 89.5451 34.6886 89.6183 34.6886L89.8381 34.7619C90.1311 34.8352 90.4974 34.9084 90.7905 34.9084C90.8637 34.9084 90.937 34.9084 91.0103 34.9084C91.1568 34.9084 91.23 34.9084 91.3033 34.9084C91.5963 34.8352 91.8894 34.6886 92.1092 34.6154C92.2557 34.5421 92.3289 34.4689 92.4755 34.4689L92.7685 34.3223L92.6952 34.2491C92.8418 33.663 92.5487 33.5165 92.2557 33.5165ZM88.4462 33.663C88.0799 33.663 87.567 33.5897 87.1275 33.5165C86.9077 33.4432 86.6147 33.4432 86.3949 33.4432C86.3216 33.4432 85.9553 33.37 85.8821 33.37C86.0286 33.37 86.1018 33.37 86.2484 33.37C86.6147 33.37 87.1275 33.2967 87.4938 33.2234C87.7868 33.1502 88.0799 33.2234 88.4462 33.2234C88.6659 33.2234 88.8857 33.2234 89.1055 33.2234C89.3253 33.2234 89.5451 33.2234 89.7648 33.2234C89.9114 33.2234 89.9846 33.2234 90.1311 33.2234H90.4974C89.9114 33.5897 89.1055 33.7363 88.4462 33.663ZM91.3766 34.2491C91.23 34.2491 91.1568 34.2491 91.0103 34.1758C90.8637 34.1026 90.7172 34.1026 90.5707 34.1026C91.0835 34.0293 91.7429 33.956 92.2557 33.956H92.3289C92.0359 34.1026 91.7429 34.2491 91.3766 34.2491Z" fill="black"/>
<path d="M81.9993 23.9194C81.4865 23.7729 79.3619 23.6996 78.3363 23.6996C77.8967 23.6996 77.7502 23.6996 77.7502 23.7729H77.6769L77.8967 24.9451L78.0432 24.7985C78.0432 24.7985 78.1165 24.7985 78.1165 24.7253C78.1898 24.652 78.1898 24.652 78.263 24.5788C78.3363 24.4322 78.3363 24.359 78.4095 24.2125C78.4095 24.1392 78.4828 24.1392 78.5561 24.1392L81.2667 24.2125V24.652L81.4865 24.7253L82.2191 23.9194H81.9993Z" fill="black"/>
<path d="M95.6989 28.0952C95.6989 28.315 95.9187 28.315 96.0652 28.315H96.1385C96.285 28.315 96.4315 28.315 96.5781 28.315C96.7246 28.315 96.8711 28.315 97.0176 28.315H97.2374C97.3107 28.315 97.3839 28.315 97.5305 28.315H97.7502V28.2417C97.7502 28.0952 97.7502 27.8754 97.5305 27.8022C97.4572 27.8022 97.3839 27.7289 97.3839 27.7289C97.3107 27.7289 97.2374 27.6557 97.1642 27.6557C97.0176 27.5824 96.8711 27.5824 96.7246 27.5824C96.5781 27.5824 96.3583 27.5824 96.2118 27.6557H96.1385C95.7722 27.7289 95.6257 27.8754 95.6989 28.0952Z" fill="black"/>
<path d="M63.904 29.5604H63.8308C63.611 29.707 63.3179 29.7802 63.0249 29.7802C62.9516 29.7802 62.9517 29.7802 62.8784 29.7802C62.8051 29.7802 62.8051 29.7802 62.8051 29.7802H62.7319V29.8535C62.7319 30.0733 62.8051 30.1465 62.9516 30.1465C63.0249 30.1465 63.0982 30.1465 63.1714 30.2198C63.2447 30.2198 63.3912 30.293 63.4645 30.2198C63.6843 30.2198 63.8308 30.0733 63.9773 30L64.0506 29.9267C64.0506 29.9267 64.1238 29.9267 64.1238 29.8535C64.1971 29.7802 64.1971 29.6337 64.1238 29.4872C64.0505 29.6337 63.9773 29.5604 63.904 29.5604Z" fill="black"/>
<path d="M93.1348 23.9927L93.2081 23.8462L93.0615 23.7729C92.9883 23.7729 92.915 23.6996 92.2557 23.6996C91.4498 23.6996 90.0579 23.7729 89.7648 23.9194L89.6916 23.9927L89.9114 25.1648L90.1311 24.7253C90.2044 24.5788 90.2044 24.5055 90.2777 24.4322C90.2777 24.359 90.3509 24.359 90.4242 24.359C90.4975 24.359 90.5707 24.359 90.7172 24.359C90.7905 24.359 90.8637 24.359 91.0103 24.359C91.0835 24.359 91.23 24.359 91.3033 24.359C91.0835 24.359 90.937 24.4322 90.7172 24.5055C90.2777 24.652 90.1311 24.8718 90.2044 25.3114C90.2044 25.4579 90.2777 25.6044 90.2777 25.6777C90.3509 25.8974 90.3509 26.1905 90.3509 26.4103C90.3509 26.8498 90.4242 27.2894 90.4242 27.7289V28.1685L90.0579 28.2418V28.315C90.0579 28.4615 90.0579 28.6081 90.1311 28.6813C90.2044 28.7546 90.2044 28.7546 90.3509 28.7546C90.3509 28.7546 90.4242 28.7546 90.4974 28.7546C91.3033 28.6081 92.0359 28.4615 92.8418 28.2418C92.915 28.2418 93.0615 28.1685 93.1348 28.0952C93.2081 28.022 93.1348 27.8755 93.1348 27.7289L93.0615 27.6557L92.8418 27.7289C92.8418 27.6557 92.8418 27.5824 92.8418 27.5092C92.7685 26.7033 92.7685 25.8242 92.6952 25.0183C92.6952 24.8718 92.622 24.7985 92.5487 24.652L92.6952 24.5788C92.915 24.4322 92.9883 24.2857 93.1348 23.9927ZM90.937 25.3846C90.937 25.0183 91.0103 25.0183 91.0835 25.0183C91.0835 25.0183 91.1568 25.0183 91.23 25.0183C91.3033 25.0183 91.3766 25.1648 91.3766 25.1648C91.3766 25.1648 91.3766 25.1648 91.3766 25.2381V25.3114C91.3766 25.4579 91.3766 25.5311 91.3766 25.5311C91.3766 25.5311 91.3766 25.5311 91.23 25.5311C91.1568 25.5311 91.1568 25.5311 91.1568 25.5311C91.0103 25.6044 90.937 25.6044 90.937 25.3846ZM91.4498 27.7289C91.3766 27.7289 91.3766 27.7289 91.3033 27.7289C91.23 27.7289 91.1568 27.7289 91.0835 27.7289V27.6557C91.1568 27.4359 91.0835 27.2161 91.0835 26.9963C91.0835 26.8498 91.0103 26.7766 91.0103 26.63C91.0103 26.5568 91.0103 26.5568 91.0103 26.4835C91.0103 26.4103 91.0103 26.4103 91.0103 26.337C91.0103 26.1172 91.0835 26.1172 91.1568 26.1172C91.2301 26.1172 91.23 26.1172 91.3033 26.1172C91.3766 26.1172 91.3766 26.1172 91.3766 26.1905V26.2637C91.3766 26.337 91.3766 26.4103 91.3766 26.4103C91.3766 26.4835 91.3766 26.5568 91.3766 26.5568V26.63V26.7033V26.8498C91.3766 27.0696 91.3766 27.2161 91.3766 27.4359C91.4498 27.7289 91.4498 27.7289 91.4498 27.7289ZM91.8894 25.3846C91.8894 25.3114 91.8894 25.2381 91.8894 25.1648C91.8894 25.0183 91.9626 25.0183 91.9626 25.0183C92.0359 25.0183 92.1092 25.0183 92.1092 25.1648C92.1092 25.2381 92.1092 25.2381 92.1092 25.3114V25.3846C92.1092 25.5311 92.1092 25.6044 92.1092 25.6044C92.1092 25.6044 92.1092 25.6044 92.0359 25.6044C91.9626 25.5311 91.8894 25.5311 91.8894 25.3846ZM92.3289 27.2161C92.3289 27.3626 92.3289 27.4359 92.3289 27.5824C92.3289 27.7289 92.3289 27.7289 92.1092 27.7289H92.0359V27.6557V27.5824C92.0359 27.3626 92.0359 27.1429 91.9626 26.9231C91.9626 26.7766 91.9626 26.63 91.9626 26.5568C91.9626 26.4835 91.9626 26.337 91.9626 26.2637C91.9626 26.1905 91.9626 26.1905 92.1092 26.1905V26.044V26.1905C92.1824 26.1905 92.1824 26.1905 92.1824 26.337C92.1824 26.5568 92.1824 26.7033 92.2557 26.9231V27.0696L92.3289 27.2161ZM92.0359 24.2857C91.9626 24.2857 91.9627 24.2857 91.8894 24.2857H92.4755V24.5055C92.4022 24.359 92.2557 24.2857 92.0359 24.2857Z" fill="black"/>
<path d="M99.1421 28.8279C99.0689 28.7546 98.8491 28.7546 98.6293 28.7546C98.0432 28.7546 97.3839 28.7546 96.7978 28.6813H95.9919C95.8454 28.6813 95.6989 28.8279 95.6989 28.9744C95.6989 29.1209 95.8454 29.2674 95.9919 29.2674H97.7502C97.8235 29.2674 97.8967 29.2674 97.97 29.2674C98.1165 29.2674 98.1897 29.2674 98.3363 29.2674C98.4095 29.2674 98.5561 29.2674 98.6293 29.2674C98.9224 29.1942 99.1421 29.1209 99.2887 29.0476C99.2887 28.9744 99.2887 28.9011 99.1421 28.8279Z" fill="black"/>
<path d="M58.556 21.5751C58.6293 24.2125 59.0689 27.5824 58.1897 30.0733C57.97 30.6594 58.7026 31.1722 58.9223 30.5861C59.8747 27.8022 59.1421 24.0659 59.0689 21.1355C59.1421 20.4762 58.556 20.9158 58.556 21.5751Z" fill="black"/>
<path d="M102.073 25.0916C101.926 25.4579 101.56 26.4835 101.486 26.8498C101.34 26.4103 100.461 24.652 100.241 24.2125C100.021 23.6997 99.655 24.1392 99.8747 24.652C100.314 25.6044 101.047 27.729 101.193 28.8279V28.9011C101.193 28.9744 101.193 28.9744 101.193 28.9744C101.267 29.7802 101.193 30.5861 100.827 31.2454C100.607 31.7583 101.34 32.2711 101.633 31.7583C102.073 30.8791 102.073 29.6337 101.999 28.6081C101.999 27.5092 102.219 26.337 102.585 25.2381C102.732 24.7986 102.219 24.5788 102.073 25.0916Z" fill="black"/>
<path d="M55.4791 29.1209C55.6989 29.8535 55.5524 30.6593 55.5524 31.4652C55.5524 32.0513 56.4315 31.978 56.4315 31.4652C56.4315 30.5861 56.285 29.7802 56.0652 28.9011C55.8454 28.4615 55.2594 28.608 55.4791 29.1209Z" fill="black"/>
<path d="M57.3107 28.022C57.0176 27.6556 56.4315 27.5824 56.2118 27.1428C56.0652 26.8498 56.0652 26.4835 55.8455 26.1904C55.4059 25.6776 54.6 25.6776 54.0872 26.0439C53.5744 26.4102 53.5011 26.9963 53.5744 27.5824C53.1348 27.8022 52.9883 28.315 53.0616 28.8278C53.2081 29.5604 53.7942 30.1465 54.5268 30.2198C55.1128 30.293 55.0396 29.6337 54.5268 29.5604C54.2337 29.5604 54.0139 29.4139 53.8674 29.1941C53.7942 29.0476 53.7209 28.2417 54.0872 28.2417C54.3803 28.2417 54.5268 27.9487 54.4535 27.6556C54.307 27.2161 54.4535 26.4102 55.0396 26.7033C55.3326 26.8498 55.2594 27.2161 55.4059 27.5091C55.4792 27.7289 55.6257 27.8754 55.8455 28.022C55.9187 28.0952 57.4572 28.5348 56.8711 28.9011C56.3583 29.1941 56.6513 29.7069 57.0909 29.4872C57.7502 29.1941 57.7502 28.4615 57.3107 28.022Z" fill="black"/>
<path d="M104.71 25.7509C104.93 24.5787 104.051 23.6996 103.171 23.0403C103.391 22.3077 103.098 21.5751 102.366 21.2088C101.926 20.989 101.34 20.989 100.9 21.2088C100.534 21.3553 99.8015 22.0146 99.7282 22.0879C99.5817 22.0879 99.1422 21.7949 98.7759 21.8681C98.3363 21.9414 97.8967 22.3077 97.7502 22.7472C97.3107 23.6264 97.7502 24.5787 98.3363 25.3113C97.7502 26.337 98.1898 27.4359 99.3619 27.8022C99.8748 28.022 100.095 27.1428 99.5817 26.9963C98.8491 26.5568 98.7026 26.0439 99.1422 25.6044C99.2887 25.3846 99.2887 25.1648 99.1422 25.0183C98.8491 24.7253 98.6293 24.359 98.4828 23.9927C98.7026 22.967 99.0689 22.674 99.5817 22.967C99.655 22.967 99.8015 23.0403 99.948 23.0403C100.095 23.0403 100.168 22.967 100.241 22.8938C100.388 22.7472 100.461 22.674 100.607 22.5275C101.486 21.7216 102.073 21.9414 102.366 23.1135C102.219 23.3333 102.292 23.5531 102.512 23.6996C103.318 24.2124 104.27 24.8718 103.904 25.9707C103.831 26.1172 103.977 26.4102 104.124 26.4835C104.27 27.5824 103.977 28.0952 103.318 27.9487C102.732 27.8754 102.805 28.7546 103.318 28.8278C104.856 28.7546 106.248 26.7033 104.71 25.7509Z" fill="black"/>
<path d="M60.3876 19.2308C60.4608 19.6703 60.0945 20.4762 60.2411 20.9158C60.3876 21.2821 60.8271 21.5018 61.0469 21.8681C61.7795 23.0403 61.1202 24.359 60.2411 25.2381C59.8748 25.6044 60.4608 26.2637 60.8271 25.8242C61.8528 24.7985 62.5854 23.3333 61.9993 21.8681C61.8528 21.5751 61.633 21.2821 61.4865 20.989C61.1934 20.3297 61.2667 20.989 61.2667 20.1099C61.2667 19.4506 61.34 19.011 61.0469 18.4249C60.5341 17.326 59.0689 16.5934 57.8235 16.8865C56.5048 17.2528 56.3583 18.4982 56.5048 19.6703C54.8198 19.9634 55.3326 21.3553 56.1385 22.5275C55.0396 23.5531 55.7722 25.0916 57.1641 25.6044C57.677 25.8242 57.8967 24.9451 57.3839 24.7985C56.5781 24.5055 55.6989 24.359 56.9444 22.967C57.1641 22.8205 57.2374 22.6007 57.0909 22.381C56.9444 22.1612 55.6257 20.4762 57.0176 20.4762C57.3107 20.4762 57.4572 20.1832 57.4572 19.8901C56.9444 17.6923 59.8015 16.8132 60.3876 19.2308Z" fill="black"/>
</g>
</g>
</svg>
