<svg width="160" height="80" viewBox="0 0 160 80" fill="none" xmlns="http://www.w3.org/2000/svg">
<mask id="mask0" mask-type="alpha" maskUnits="userSpaceOnUse" x="0" y="0" width="160" height="80">
<rect width="160" height="80" fill="#C4C4C4"/>
</mask>
<g mask="url(#mask0)">
<g opacity="0.3">
<path d="M37.0142 18.4042H38.8582V38.5461H33.6099V29.6099L29.3546 34.078H28.7872L24.5319 29.6099V38.5461H19.2837V18.4042H21.1277L29 27.1276L37.0142 18.4042Z" fill="black"/>
<path d="M45.8794 31.383C40.844 27.9787 42.2624 18.4752 50.1348 18.4042H58.9291V38.4752H53.8227V32.5886H51.1277L47.7234 38.4752H41.9787V37.695L45.8794 31.383ZM53.8227 27.9787V23.0142C52.617 23.0142 51.3404 23.0142 50.1348 23.0142C47.227 23.0142 47.3688 27.9787 50.1348 27.9787H53.8227Z" fill="black"/>
<path d="M69.2128 38.5461H64.0355V18.4752H76.5177V23.0142H69.2128V38.5461Z" fill="black"/>
<path d="M80.1348 38.5461V18.4752H85.383V26.0638H85.7376C90.844 26.0638 90.6312 22.234 90.6312 18.4752H95.8795C95.8795 22.5886 96.0213 26.3475 91.9788 28.9007L97.4398 37.695V38.4752H91.766L87.3688 30.7447C86.6596 30.8865 86.0213 30.8865 85.383 30.8865V38.5461H80.1348Z" fill="black"/>
<path d="M102.262 38.5461H100.419V18.4752H105.667V28.2624L115.809 18.4042H117.653V38.5461H112.333V28.6879L102.262 38.5461Z" fill="black"/>
<path d="M124.816 38.5461H122.972V18.4752H128.22V28.2624L138.362 18.4042H140.206V38.5461H134.887V28.6879L124.816 38.5461Z" fill="black"/>
<path d="M19.7092 49.5389C19.5674 45.851 22.5461 44.1489 26.0213 44.1489C30.4184 44.1489 32.617 47.0567 32.617 49.9645C32.617 51.312 32.0496 52.8014 30.844 53.7233C32.9007 54.7872 33.7518 56.4184 33.7518 58.6879C33.7518 62.234 31.1986 64.9999 26.0213 64.9999C21.695 64.9999 19 62.5886 19 58.1205H23.4681C23.4681 59.6808 24.5319 60.6737 26.0213 60.6737C29.4255 60.6737 29.4255 56.1347 26.0213 56.1347H24.6028V51.8794H25.9504C28.5035 51.8794 28.4326 48.4042 26.0213 48.4042C24.8865 48.4042 24.2482 48.8297 24.2482 49.6099H19.7092V49.5389Z" fill="black"/>
<path d="M54.2483 64.5036H49V56.4894H42.8298V64.5036H37.5816V44.5035H42.8298V51.7376H49V44.5035H54.2483V64.5036Z" fill="black"/>
<path d="M70.9858 62.0213H63.1135L61.9078 64.5745H56.8723V63.7943L65.8794 44.2198H68.078L77.156 63.7943V64.5745H72.1206L70.9858 62.0213ZM67.0142 52.3759L64.7447 57.6241H69.3546L67.0142 52.3759Z" fill="black"/>
<path d="M79.8511 64.5036V44.5035H85.0993V52.0922H85.4539C90.5603 52.0922 90.3475 48.2624 90.3475 44.5035H95.5958C95.5958 48.617 95.7376 52.3759 91.695 54.9291L97.1561 63.7234V64.5036H91.4823L87.0851 56.7731C86.3759 56.9149 85.7376 56.9149 85.0993 56.9149V64.5745H79.8511V64.5036Z" fill="black"/>
<path d="M129.993 11.1702C129.993 12.8723 131.34 14.2199 133.043 14.2199C134.745 14.2199 136.092 12.8723 136.092 11.1702C136.092 8.04965 133.043 5 133.043 5C133.043 5 129.993 8.12057 129.993 11.1702Z" fill="black"/>
</g>
</g>
</svg>
