<svg width="160" height="80" viewBox="0 0 160 80" fill="none" xmlns="http://www.w3.org/2000/svg">
<mask id="mask0" mask-type="alpha" maskUnits="userSpaceOnUse" x="0" y="0" width="160" height="80">
<rect width="160" height="80" fill="#C4C4C4"/>
</mask>
<g mask="url(#mask0)">
<g opacity="0.3">
<path d="M159.944 34.8675C160.186 33.9819 159.622 33.0158 158.656 32.7743C107.212 17.0752 52.7884 17.0752 1.34391 32.7743C0.377814 33.0963 -0.185739 33.9819 0.0557841 34.8675C2.14899 42.7572 4.24219 50.647 6.33539 58.5368C6.57691 59.4223 7.4625 59.9054 8.34808 59.6639C42.9664 49.1173 79.1144 46.3801 114.457 51.3716C114.296 52.9012 114.779 54.5114 115.665 55.88C115.665 55.9605 115.745 55.9605 115.745 56.041C116.228 56.7656 116.953 57.2486 117.678 57.3291C118.08 57.4096 118.563 57.3291 118.966 57.2486C119.127 57.1681 119.368 57.0876 119.529 57.0876C120.093 56.9266 120.576 56.5241 120.898 56.1215C121.059 56.1215 121.22 56.202 121.381 56.202C122.025 56.363 122.83 56.5241 123.796 56.6851C127.017 57.2486 129.512 56.6851 131.203 54.7529C131.283 54.6724 131.364 54.5919 131.444 54.4309C138.127 55.88 144.809 57.5707 151.41 59.5833C152.296 59.8249 153.182 59.3418 153.423 58.4562C155.758 50.647 157.851 42.7572 159.944 34.8675Z" fill="black"/>
<path fill-rule="evenodd" clip-rule="evenodd" d="M34.5936 43.5623C34.2716 46.6216 33.6275 48.4733 31.0513 48.9563C29.3606 49.2784 27.6699 48.5538 26.7843 46.8631C26.7843 46.8631 26.7038 46.7826 26.7038 46.7021C26.7843 46.6216 26.8649 46.521 26.9454 46.4203C27.0259 46.3197 27.1064 46.2191 27.1869 46.1386C27.2674 46.1386 27.3479 46.2191 27.4284 46.2996C27.8309 46.7021 28.153 46.7826 28.636 46.7021C29.2801 46.5411 29.6021 45.6555 29.9241 43.8843C30.2462 41.9522 30.8097 40.503 32.3394 39.6174C31.4538 39.6174 30.7292 39.4564 30.0047 39.2149C28.5555 38.6513 27.6699 37.4437 27.3479 35.7531C26.7843 32.5327 29.1191 30.037 33.386 29.2319C36.6868 28.5879 39.9071 28.1048 43.2079 27.6218C43.2079 27.7425 43.2281 27.8633 43.2482 27.9841C43.2683 28.1048 43.2884 28.2256 43.2884 28.3463C43.1274 28.4269 43.0469 28.4269 42.9664 28.4269C42.8349 28.4269 42.7035 28.4805 42.4405 28.5879C42.3814 28.612 42.3157 28.6388 42.2418 28.6684C41.7588 28.8294 41.4368 29.1514 41.2757 29.9565C41.1147 30.5201 41.1952 31.6472 41.3562 32.9353C41.5575 34.3442 41.7387 35.7732 41.9198 37.2022C42.1009 38.6312 42.2821 40.0602 42.4834 41.4691C42.5639 42.5962 42.8054 43.8038 43.0469 44.3674C43.2884 45.0115 43.691 45.3335 44.2545 45.414H44.9791H45.2206C45.2206 45.5348 45.2407 45.6555 45.2609 45.7763C45.281 45.897 45.3011 46.0178 45.3011 46.1386C42.1613 46.6216 39.0215 47.1047 35.8817 47.6682C35.8817 47.5475 35.8616 47.4267 35.8415 47.3059C35.8213 47.1852 35.8012 47.0644 35.8012 46.9436C35.8817 46.8631 35.9622 46.8631 36.0427 46.8631C36.2038 46.8631 36.6063 46.7826 36.8478 46.6216C37.4114 46.2996 37.6529 45.897 37.7334 45.253C37.8944 44.6089 37.8139 43.4818 37.6529 42.2742C37.4919 41.3081 37.3309 40.2615 37.1698 39.2149C37.0491 39.2149 36.9484 39.235 36.8478 39.2551C36.7472 39.2753 36.6465 39.2954 36.5258 39.2954C35.3987 39.5369 35.1571 39.859 34.5936 43.5623ZM35.5597 30.359C35.3182 30.1175 34.9961 29.9565 34.1911 30.1175C32.6614 30.359 32.0979 31.8887 32.5809 34.787C32.7419 35.9141 33.225 37.2827 33.708 37.9268C34.1105 38.3293 34.5936 38.5708 36.0427 38.3293C36.2038 38.2891 36.3446 38.2689 36.4855 38.2488C36.6264 38.2287 36.7673 38.2085 36.9283 38.1683C36.7673 37.1217 36.6264 36.0952 36.4855 35.0688C36.3446 34.0423 36.2038 33.0158 36.0427 31.9692C36.0011 31.8028 35.9649 31.6364 35.9299 31.4756C35.8294 31.0139 35.7388 30.5979 35.5597 30.359ZM67.9238 25.3676V26.0116C68.0043 26.0116 68.0848 26.0116 68.2458 25.9311C68.3766 25.9747 68.5074 25.9947 68.6509 26.0166C68.7725 26.0352 68.9032 26.0552 69.0509 26.0921C69.534 26.2531 69.9365 26.4142 70.178 27.2192C70.339 27.7023 70.4195 28.7489 70.5001 30.198C70.5403 31.6472 70.5806 33.0762 70.6208 34.5052C70.6611 35.9342 70.7013 37.3632 70.7416 38.8124C70.7416 38.9802 70.7445 39.1654 70.7475 39.3603C70.7605 40.1936 70.7763 41.2039 70.5806 41.7911C70.339 42.5962 70.017 42.8377 69.534 42.9988C69.2119 43.1598 68.8899 43.1598 68.8094 43.1598H68.5679V43.8843C71.6272 43.7233 74.6865 43.6428 77.7458 43.6428V42.9183H77.5042C77.3432 42.9183 77.1822 42.9183 76.9407 42.8377C76.4576 42.6767 76.1356 42.4352 75.8941 41.7106C75.7331 41.1471 75.572 40.1005 75.572 38.7318C75.4915 37.6047 75.4915 36.5581 75.4915 35.431H80.9661V38.7318C80.9661 40.181 80.8856 41.1471 80.7245 41.7106C80.483 42.5157 80.161 42.7572 79.6779 42.9183C79.4364 42.9988 79.1949 42.9988 79.1144 42.9988H78.8729V43.7233C81.9322 43.7233 84.9915 43.8038 88.0508 43.8843V43.1598H87.8092C87.5677 43.1598 87.3262 43.1598 87.0847 43.0793C86.6016 42.9183 86.1991 42.5962 86.0381 41.8717C85.877 41.3081 85.877 40.342 85.877 38.8929C85.9173 37.4437 85.9374 36.0147 85.9576 34.5857C85.9777 33.1567 85.9978 31.7277 86.0381 30.2785C86.1186 28.8294 86.1991 27.8633 86.3601 27.2997C86.6016 26.5752 86.9236 26.3337 87.4872 26.1726C87.7287 26.0921 88.0508 26.0116 88.2923 26.0116H88.5338V25.3676C85.3135 25.2065 82.0127 25.2065 78.7924 25.2065V25.8506H79.0339C79.1144 25.8506 79.4364 25.9311 79.6779 26.0116C80.2415 26.1726 80.5635 26.4142 80.8051 27.1387C80.9661 27.6218 81.0466 28.6684 81.0466 30.1175V33.0963C79.8151 33.0428 78.6193 33.0604 77.4117 33.0783C76.8035 33.0873 76.1923 33.0963 75.572 33.0963C75.4915 32.1302 75.4915 31.0836 75.4915 30.1175C75.4915 28.8294 75.572 27.7023 75.7331 27.1387C75.8941 26.3337 76.2966 26.0921 76.7797 25.9311C77.0212 25.8506 77.2627 25.7701 77.4237 25.7701H77.6653V25.126C74.4449 25.126 71.1441 25.2065 67.9238 25.3676ZM89.9829 43.8843C93.0422 44.0454 96.1015 44.2064 99.1608 44.4479C99.2413 44.2064 99.2413 44.0454 99.0803 43.7233C99.0401 43.7233 98.9998 43.7032 98.9595 43.6831C98.9193 43.663 98.879 43.6428 98.8388 43.6428C98.4362 43.5623 98.1142 43.4013 97.8727 43.2403C97.7117 43.0793 97.5507 42.9183 97.4702 42.7572C97.3091 42.5157 97.3091 42.1132 97.4702 41.8717C99.3218 38.6513 101.335 35.3505 103.347 32.1302C103.267 33.3781 103.166 34.626 103.065 35.8738C102.965 37.1217 102.864 38.3696 102.784 39.6174C102.703 40.7445 102.623 41.7911 102.381 42.5157C102.22 43.0793 101.979 43.4013 101.576 43.5623C101.403 43.6778 101.188 43.7105 100.932 43.7494C100.831 43.7648 100.724 43.7811 100.61 43.8038H100.368C100.288 44.0454 100.288 44.2064 100.288 44.4479L100.288 44.4479C103.347 44.6894 106.407 44.931 109.466 45.3335C109.466 45.2127 109.486 45.1121 109.506 45.0115C109.526 44.9108 109.546 44.8102 109.546 44.6894C109.506 44.6894 109.446 44.6693 109.385 44.6492C109.325 44.629 109.265 44.6089 109.224 44.6089C108.902 44.5284 108.5 44.3674 108.258 44.2064C107.936 43.9649 107.695 43.5623 107.614 43.0793C107.537 42.3838 107.608 41.3916 107.685 40.3163L107.695 40.181C107.815 38.7318 107.956 37.3028 108.097 35.8738C108.238 34.4448 108.379 33.0158 108.5 31.5667C108.58 30.4395 108.741 29.3929 108.983 28.6684C109.144 28.1853 109.466 27.8633 109.868 27.7023C110.11 27.6218 110.512 27.5413 110.915 27.5413H111.317C111.317 27.4205 111.338 27.3199 111.358 27.2192C111.378 27.1186 111.398 27.018 111.398 26.8972C108.178 26.4947 104.877 26.1726 101.657 25.9311C101.576 26.1726 101.576 26.3336 101.576 26.5751V26.5752C101.616 26.5752 101.657 26.5953 101.697 26.6154C101.737 26.6356 101.777 26.6557 101.818 26.6557C102.14 26.7362 102.462 26.8972 102.784 27.0582C103.186 27.3803 103.267 27.8633 103.025 28.2658C101.013 31.4056 99.0803 34.5454 97.2286 37.7658C97.3091 36.5984 97.3695 35.4109 97.4299 34.2234C97.4903 33.0359 97.5507 31.8484 97.6312 30.6811C97.7117 29.3929 97.8727 28.3463 98.0337 27.7828C98.1947 27.2192 98.5168 26.8972 98.9193 26.7362C99.1452 26.6232 99.3711 26.5895 99.6249 26.5517C99.7328 26.5355 99.8458 26.5187 99.9659 26.4947H100.207C100.288 26.2531 100.288 26.0921 100.288 25.8506C97.2138 25.62 94.0663 25.4629 90.9855 25.309L90.5465 25.2871V25.9311C90.5868 25.9311 90.6471 25.9512 90.7075 25.9714C90.7679 25.9915 90.8283 26.0116 90.8685 26.0116C91.2711 26.0921 91.6736 26.1726 91.9151 26.3337C92.3177 26.5752 92.5592 26.8972 92.7202 27.4608C92.8812 28.1853 92.8812 29.3124 92.8007 30.359C92.7202 31.8082 92.6598 33.2372 92.5994 34.6662C92.539 36.0952 92.4787 37.5242 92.3982 38.9734C92.3799 39.2286 92.3658 39.4797 92.3521 39.7238C92.3053 40.5579 92.263 41.3111 92.0761 41.8717C91.9151 42.3547 91.6736 42.7572 91.2711 42.9183C91.11 43.0256 90.8775 43.0614 90.6449 43.0972C90.5286 43.115 90.4123 43.1329 90.305 43.1598C90.2245 43.2403 90.0634 43.2403 89.9829 43.2403V43.8843ZM45.1804 27.7023C45.2005 27.8029 45.2206 27.9036 45.2206 28.0243C45.3816 28.0243 45.4621 28.0243 45.4621 28.1048C45.7842 28.1048 46.2672 28.1048 46.5087 28.2658C46.9113 28.4269 47.1528 28.7489 47.3943 29.2319C47.6359 29.876 47.7969 31.0031 47.8774 32.0497C48.0384 33.4586 48.1793 34.8877 48.3202 36.3167C48.4611 37.7457 48.6019 39.1747 48.763 40.5835C48.8435 41.6301 48.924 42.7572 48.8435 43.4818C48.763 44.0454 48.5214 44.4479 48.1994 44.6894C48.0384 44.8504 47.6359 45.0115 47.3138 45.092C47.2736 45.092 47.2132 45.1121 47.1528 45.1322C47.0924 45.1523 47.032 45.1725 46.9918 45.1725C46.9918 45.2932 47.0119 45.3939 47.032 45.4945C47.0522 45.5951 47.0723 45.6958 47.0723 45.8165C50.0509 45.414 53.1101 45.092 56.1692 44.77L56.1697 44.7699C56.0892 44.5284 56.0892 44.3674 56.0892 44.1259H55.8476C55.7398 44.1043 55.6435 44.0885 55.5541 44.0739C55.3099 44.0338 55.1173 44.0022 54.8816 43.8843C54.5595 43.7233 54.2375 43.4013 54.0765 42.9183L54.0765 42.9182C53.9154 42.2741 53.6739 41.308 53.5934 40.02C53.4324 38.4098 53.2915 36.7997 53.1506 35.1895C53.0097 33.5794 52.8689 31.9692 52.7078 30.359C52.6273 28.9099 52.7883 28.1048 53.4324 27.6218C53.6739 27.3803 54.0765 27.2997 54.7205 27.2192C54.8815 27.2192 55.0224 27.1991 55.1633 27.179C55.3042 27.1589 55.4451 27.1387 55.6061 27.1387C55.6648 27.1322 55.7219 27.1257 55.7776 27.1193C56.4084 27.0473 56.8464 26.9973 57.2163 27.2192C57.8603 27.5413 58.2629 28.3463 58.3434 29.7955C58.5044 33.0156 58.7459 36.2358 58.9874 39.456L58.9874 39.4564C59.1485 40.8251 59.068 41.7911 58.9874 42.4352C58.9069 42.9183 58.7459 43.3208 58.3434 43.5623C58.1019 43.7233 57.8603 43.8843 57.4578 43.9649C57.4175 43.9649 57.3773 43.985 57.337 44.0051C57.2968 44.0252 57.2565 44.0454 57.2163 44.0454C57.2968 44.2869 57.2968 44.4479 57.2968 44.6894C60.3561 44.4479 63.4154 44.2064 66.4747 44.0454V43.4013C66.3942 43.3208 66.2332 43.3208 66.1526 43.3208C66.0453 43.294 65.929 43.2761 65.8127 43.2582C65.5801 43.2224 65.3476 43.1866 65.1865 43.0793C64.784 42.9183 64.5425 42.5157 64.3815 42.0327C64.1399 41.3081 64.0594 40.2615 63.9789 39.1344C63.8984 37.6853 63.8179 36.2562 63.7374 34.8272C63.6569 33.3982 63.5764 31.9692 63.4959 30.5201C63.4959 30.2558 63.4908 29.9865 63.4857 29.7198C63.4706 28.93 63.456 28.1634 63.5764 27.6218C63.6569 27.1387 63.8984 26.7362 64.301 26.4947C64.462 26.3337 64.8645 26.2531 65.2671 26.1726C65.3073 26.1726 65.3677 26.1525 65.4281 26.1324C65.4884 26.1123 65.5488 26.0921 65.5891 26.0921V25.4481C58.7459 25.8506 51.9833 26.4947 45.1401 27.3803C45.1401 27.501 45.1602 27.6017 45.1804 27.7023ZM111.72 45.6555C117.758 46.4606 123.877 47.5072 129.915 48.7148C129.593 50.0834 128.707 50.4055 126.775 50.164C126.22 50.0631 125.697 49.9306 125.205 49.8061C124.912 49.7319 124.63 49.6605 124.36 49.6004C123.635 49.3589 122.83 49.1979 121.864 49.0368C119.368 48.5538 117.678 49.6004 117.436 51.6936C117.275 52.5792 117.517 53.3843 118.08 54.2698C118.08 54.3101 118.1 54.3302 118.12 54.3504C118.141 54.3705 118.161 54.3906 118.161 54.4309C118.322 54.4309 118.563 54.3504 118.724 54.2698V54.0283C118.644 53.6258 118.724 53.3038 118.885 53.1427C119.127 52.9012 119.69 52.8207 120.415 52.9817C120.697 53.022 120.958 53.0824 121.22 53.1427C121.482 53.2031 121.743 53.2635 122.025 53.3038C122.75 53.4648 123.474 53.6258 124.44 53.7868C129.351 54.6724 130.317 51.6936 130.881 48.7148C130.881 48.6424 130.897 48.5538 130.915 48.4562C130.937 48.3367 130.961 48.2037 130.961 48.0708C130.921 48.0708 130.881 48.0506 130.841 48.0305C130.8 48.0104 130.76 47.9902 130.72 47.9902C130.237 47.8292 129.834 47.5877 129.673 47.4267C129.351 47.1047 129.11 46.7826 129.11 46.2996C129.029 45.575 129.19 44.5284 129.351 43.6428L130.8 35.1895C130.866 34.9053 130.926 34.6151 130.984 34.3303C131.141 33.5663 131.29 32.8409 131.525 32.3717C131.686 31.8887 132.008 31.6472 132.491 31.4861C132.733 31.4056 133.135 31.4056 133.538 31.4056H133.94C133.94 31.2849 133.96 31.1842 133.98 31.0836C134.001 30.983 134.021 30.8823 134.021 30.7616C130.8 30.037 127.58 29.4735 124.36 28.9099C124.36 29.0307 124.34 29.1313 124.319 29.2319C124.299 29.3326 124.279 29.4332 124.279 29.554C124.32 29.554 124.36 29.5741 124.4 29.5942C124.44 29.6143 124.481 29.6345 124.521 29.6345C124.605 29.6681 124.685 29.6982 124.762 29.727C125.054 29.8361 125.296 29.9264 125.487 30.1175C125.889 30.359 126.05 30.7616 126.131 31.3251C126.211 31.8887 126.131 32.9353 125.97 34.2234C125.728 35.8336 125.487 37.4236 125.245 39.0136C125.004 40.6037 124.762 42.1937 124.521 43.8038C124.279 45.253 123.877 46.0581 123.233 46.2996C122.863 46.4475 122.425 46.3916 121.857 46.3192C121.807 46.3127 121.756 46.3061 121.703 46.2996C121.582 46.2996 121.482 46.2794 121.381 46.2593C121.28 46.2392 121.18 46.2191 121.059 46.2191C121.037 46.2154 121.015 46.2118 120.993 46.2081C120.525 46.1308 119.998 46.0435 119.69 45.736C119.127 45.253 118.966 44.4479 119.127 42.9988C119.328 41.3886 119.549 39.7986 119.771 38.2085C119.992 36.6185 120.214 35.0285 120.415 33.4183C120.576 32.0497 120.817 31.0836 121.059 30.5201C121.3 30.037 121.622 29.715 122.025 29.554C122.347 29.4735 122.669 29.3929 123.072 29.3929H123.313C123.313 29.2722 123.333 29.1716 123.353 29.0709C123.374 28.9703 123.394 28.8696 123.394 28.7489C120.173 28.1853 116.953 27.7023 113.733 27.2997C113.733 27.4205 113.713 27.5211 113.692 27.6218C113.672 27.7224 113.652 27.823 113.652 27.9438C113.692 27.9438 113.753 27.9639 113.813 27.9841C113.874 28.0042 113.934 28.0243 113.974 28.0243C114.296 28.1048 114.699 28.2658 114.94 28.4269C115.343 28.6684 115.584 29.0709 115.665 29.6345C115.745 30.359 115.665 31.4056 115.504 32.5327C115.343 33.9416 115.182 35.3707 115.021 36.7997C114.86 38.2287 114.699 39.6577 114.538 41.0666C114.526 41.1439 114.514 41.2217 114.502 41.2997C114.353 42.2771 114.198 43.2879 113.974 43.8843C113.813 44.3674 113.491 44.6894 113.089 44.8504C112.847 44.9309 112.445 45.0115 112.123 45.0115H111.801C111.801 45.1322 111.78 45.2329 111.76 45.3335C111.74 45.4341 111.72 45.5348 111.72 45.6555ZM132.572 48.6343H132.813C133.135 48.6343 133.538 48.6343 133.86 48.4733C134.262 48.3123 134.665 48.0708 135.067 47.6682C135.47 47.2657 135.953 46.6216 136.516 45.6555C139.093 41.3886 141.83 37.1217 144.567 32.9353C144.833 33.0238 145.123 33.088 145.424 33.1546C145.67 33.2092 145.924 33.2653 146.177 33.3378C146.66 37.5242 147.143 41.7911 147.546 46.0581C147.707 48.5538 147.949 50.2445 148.271 51.2106C148.512 51.9351 148.915 52.3377 149.156 52.4987C149.398 52.6597 149.639 52.8207 149.961 52.9012C150.001 52.9012 150.042 52.9213 150.082 52.9415C150.122 52.9616 150.162 52.9817 150.203 52.9817C150.162 53.1025 150.142 53.2232 150.122 53.344C150.102 53.4648 150.082 53.5855 150.042 53.7063C146.821 52.7402 143.521 51.8546 140.3 51.0495C140.341 50.9288 140.361 50.808 140.381 50.6873C140.401 50.5665 140.421 50.4457 140.461 50.325H140.703C140.944 50.4055 141.427 50.4055 141.669 50.325C142.232 50.2445 142.555 50.0029 142.635 49.4394C142.716 48.7953 142.716 48.1513 142.635 47.2657V47.1047C142.635 46.7021 142.393 46.3801 141.991 46.2996C141.427 46.1788 140.884 46.0379 140.341 45.897C139.797 45.7562 139.254 45.6153 138.69 45.4945C138.288 45.414 137.885 45.575 137.724 45.897C137.693 45.9585 137.674 46.0083 137.658 46.0508C137.632 46.1196 137.613 46.1693 137.563 46.2191C137.08 46.9436 136.838 47.5072 136.758 47.9902C136.677 48.5538 136.838 49.0368 137.241 49.3589C137.483 49.6004 137.885 49.7614 138.127 49.8419C138.167 49.8419 138.207 49.862 138.247 49.8822C138.288 49.9023 138.328 49.9224 138.368 49.9224C138.328 50.0432 138.308 50.1639 138.288 50.2847C138.267 50.4055 138.247 50.5262 138.207 50.647C137.241 50.4457 136.275 50.2243 135.309 50.0029C134.343 49.7815 133.377 49.5601 132.411 49.3589C132.451 49.2381 132.471 49.1174 132.491 48.9966C132.511 48.8758 132.531 48.7551 132.572 48.6343ZM142.313 44.0454C142.071 42.4352 141.91 40.8251 141.749 39.2149C140.864 40.5835 140.059 41.8717 139.254 43.3208C139.777 43.4416 140.28 43.5623 140.783 43.6831C141.287 43.8039 141.79 43.9246 142.313 44.0454ZM7.58324 38.6513C7.72413 39.7785 7.86501 40.9056 8.02603 42.0327C8.26755 41.9522 8.50908 41.9522 8.7506 41.9522C8.83111 41.8717 8.83111 41.8717 8.83111 41.7911C8.87136 41.6704 8.89149 41.5496 8.91162 41.4289C8.93174 41.3081 8.95187 41.1873 8.99212 41.0666C9.23365 39.859 9.55568 38.4903 10.1192 37.3632C10.7633 35.9141 11.3268 35.27 12.3735 35.0285C12.4137 35.0285 12.4741 35.0084 12.5345 34.9882C12.5948 34.9681 12.6552 34.948 12.6955 34.948C13.1383 37.0009 13.6012 39.0338 14.0641 41.0666C14.527 43.0994 14.99 45.1322 15.4327 47.1852C15.7548 48.4733 15.8353 49.5199 15.8353 50.164C15.8353 50.8885 15.5938 51.2911 15.0302 51.6131C14.7887 51.6936 14.6277 51.7741 14.4667 51.8546C14.4264 51.8949 14.366 51.915 14.3056 51.9351C14.2453 51.9553 14.1849 51.9754 14.1446 52.0156C14.1849 52.1364 14.205 52.237 14.2251 52.3377C14.2453 52.4383 14.2654 52.5389 14.3056 52.6597C17.3649 51.7741 20.4242 51.0495 23.4835 50.325C23.4433 50.2042 23.4231 50.1036 23.403 50.0029C23.3829 49.9023 23.3628 49.8017 23.3225 49.6809H22.92H22.2759C21.7124 49.6809 21.3098 49.3589 20.9878 48.7953C20.6657 48.2318 20.3437 47.2657 20.1022 45.9776C19.6997 43.9246 19.277 41.8717 18.8543 39.8187C18.4317 37.7658 18.009 35.7128 17.6065 33.6599C17.7008 33.6599 17.7675 33.6322 17.8227 33.6093C17.8618 33.5932 17.8951 33.5794 17.9285 33.5794C18.8946 33.3378 19.8607 33.6599 20.9878 34.7065C21.8167 35.3847 22.7162 36.4861 23.4221 37.3505C23.4703 37.4096 23.5177 37.4676 23.564 37.5242C23.6445 37.6047 23.7049 37.6852 23.7653 37.7658C23.8257 37.8463 23.8861 37.9268 23.9666 38.0073C24.0873 37.967 24.188 37.9469 24.2886 37.9268C24.3892 37.9066 24.4899 37.8865 24.6106 37.8463L22.6784 31.3251C17.4454 32.5327 12.2929 33.8209 7.14045 35.27C7.30146 36.3971 7.44235 37.5242 7.58324 38.6513ZM77.9873 25.1261V26.1727H77.9068V26.4947C77.9873 26.4947 78.0879 26.5148 78.1886 26.5349C78.2892 26.5551 78.3899 26.5752 78.4704 26.5752C78.5509 26.5752 78.7923 26.6557 79.0338 26.7362L79.0339 26.7362C79.517 26.8972 79.678 27.0582 79.9195 27.6218C80 27.9438 80.161 28.7489 80.161 30.5201V32.8548H80.4831V30.198C80.4831 28.4269 80.4025 27.6218 80.2415 27.2998C80.0805 26.7362 79.839 26.5752 79.3559 26.4142C79.2548 26.3805 79.1536 26.3609 79.0643 26.3436C78.9403 26.3195 78.8392 26.2999 78.7924 26.2532C78.7119 26.2532 78.6112 26.233 78.5106 26.2129C78.41 26.1928 78.3093 26.1727 78.2288 26.1727V25.1261H77.9873ZM91.9956 27.9438C91.9151 27.5413 91.7541 27.2193 91.432 27.0582C91.2711 26.9777 90.8686 26.8168 90.4662 26.6558L90.466 26.6557C90.3788 26.6121 90.268 26.5921 90.1464 26.5702C90.0434 26.5516 89.9327 26.5316 89.8219 26.4947C89.9024 26.0921 89.9024 25.6091 89.9024 25.2066H90.2244V26.2532C90.3116 26.2968 90.4224 26.3167 90.5439 26.3387C90.6469 26.3573 90.7577 26.3773 90.8685 26.4142C90.9326 26.4356 91.0081 26.4569 91.0889 26.4798C91.3125 26.5431 91.5767 26.618 91.7541 26.7362C91.9956 26.8972 92.2371 27.2193 92.3176 27.6218C92.4786 28.3464 92.4786 29.393 92.3981 30.4396C92.3579 31.8887 92.2975 33.3177 92.2371 34.7467C92.1767 36.1757 92.1164 37.6048 92.0761 39.0539C91.9956 40.181 91.9151 41.2276 91.7541 41.8717C91.6736 42.2742 91.432 42.5157 91.1905 42.6768C91.271 42.5962 91.3515 42.4352 91.432 42.1937C91.6156 41.7044 91.6596 40.9361 91.7055 40.1363L91.7056 40.1357L91.7056 40.1353C91.7201 39.8827 91.7348 39.627 91.7541 39.3759C91.7943 37.9268 91.8547 36.4978 91.9151 35.0688C91.9755 33.6398 92.0359 32.2107 92.0761 30.7616C92.1566 29.715 92.1566 28.5879 91.9956 27.9438ZM77.4237 26.2532C77.3058 26.2532 77.1879 26.2963 77.0385 26.351C76.9838 26.371 76.9248 26.3926 76.8601 26.4142C76.6186 26.4947 76.3771 26.6557 76.216 26.8972C76.2563 26.857 76.2966 26.8368 76.3368 26.8167C76.3771 26.7966 76.4173 26.7765 76.4576 26.7362L76.4576 26.7362C76.6992 26.6557 76.9406 26.5752 77.0211 26.5752C77.1016 26.5752 77.2023 26.5551 77.3029 26.5349C77.4035 26.5148 77.5042 26.4947 77.5847 26.4947V26.2532H77.4237ZM80 41.9522C79.9195 42.1937 79.839 42.3547 79.7585 42.4352C80 42.2742 80.161 42.1132 80.322 41.6301C80.483 41.1471 80.5636 40.181 80.5636 38.7319V35.8336H75.8941V36.1556H80.2415V39.0539C80.161 40.503 80.0805 41.4691 80 41.9522ZM87.4067 26.5752C87.6482 26.4947 87.8898 26.4142 88.1313 26.4142C88.2118 26.3337 88.3728 26.3337 88.4533 26.4142V26.6557C88.2118 26.7362 88.0508 26.7362 87.8092 26.7362C87.6885 26.7765 87.5677 26.7966 87.447 26.8167C87.3262 26.8368 87.2055 26.857 87.0847 26.8972C86.9237 26.8972 86.8432 26.8972 86.7626 26.9777C86.9237 26.7362 87.1652 26.6557 87.4067 26.5752ZM98.8388 27.5413C99.1608 27.3803 99.4024 27.2998 99.8049 27.2998C99.8854 27.2998 99.9861 27.2796 100.087 27.2595C100.187 27.2394 100.288 27.2193 100.368 27.2193V26.9777H100.127C100.026 26.9979 99.9358 27.0129 99.8528 27.0268L99.8527 27.0268C99.6036 27.0683 99.4225 27.0985 99.2413 27.2193C99.0803 27.2998 98.9193 27.3803 98.8388 27.5413ZM65.2255 26.6856C65.267 26.6755 65.3079 26.6656 65.3475 26.6557C65.5085 26.6557 65.5891 26.6557 65.6696 26.5752V26.8167C65.5824 26.8603 65.4716 26.8803 65.35 26.9022C65.247 26.9208 65.1363 26.9408 65.0255 26.9777C64.7035 27.0582 64.3009 27.2193 64.1399 27.2998L64.0594 27.3803C64.1399 27.2193 64.3009 27.0582 64.4619 26.9777C64.6031 26.8365 64.93 26.7573 65.2255 26.6856ZM46.1867 28.9904C46.5087 29.0709 46.7502 29.393 46.9112 29.715C47.1527 30.3591 47.3138 31.4057 47.3943 32.4523C47.7163 35.27 48.0383 38.1683 48.2799 40.9861C48.2966 41.2042 48.3169 41.4258 48.337 41.6458C48.4135 42.4815 48.4878 43.294 48.3604 43.8039C48.3604 44.0454 48.2799 44.2064 48.1993 44.3674C48.4409 44.1259 48.6019 43.8844 48.6824 43.4818C48.7629 42.8378 48.6824 41.7106 48.6019 40.664C48.2799 37.8463 47.9578 34.948 47.7163 32.1302C47.6358 31.0836 47.4748 30.037 47.2333 29.393C47.0722 28.9904 46.8307 28.7489 46.5087 28.6684C46.2672 28.5879 45.8646 28.5074 45.5426 28.5074H44.818C44.818 28.3554 44.8001 28.2034 44.7812 28.0429L44.7811 28.0428L44.7811 28.0428C44.7599 27.8633 44.7375 27.6733 44.7375 27.4608C44.657 27.4608 44.496 27.4608 44.4155 27.5413C44.4557 27.7425 44.4759 27.9639 44.496 28.1853L44.496 28.1853L44.496 28.1854L44.496 28.1855C44.5161 28.4069 44.5363 28.6282 44.5765 28.8294H45.3011C45.4521 28.8672 45.6031 28.8872 45.7457 28.9061C45.9074 28.9276 46.0584 28.9477 46.1867 28.9904ZM69.373 27.8633C69.1314 27.1387 68.8094 27.0582 68.4874 26.9777C68.2458 26.8972 67.9238 26.8167 67.7628 26.8972C67.6018 26.8167 67.3603 26.8167 67.1992 26.8167C67.1187 26.3337 67.1187 25.9311 67.1187 25.4481H67.4408C67.5213 25.7701 67.5213 26.1726 67.5213 26.4947C67.6823 26.5752 67.9238 26.5752 68.0848 26.5752C68.2458 26.5752 68.4874 26.5752 68.8094 26.6557C69.1314 26.7362 69.4535 26.8972 69.695 27.5413C69.856 27.9438 69.9365 28.9099 70.017 30.3591C70.178 33.2573 70.2585 36.0751 70.339 38.9734C70.339 39.0509 70.3411 39.1575 70.3436 39.2851C70.3566 39.9526 70.3808 41.1958 70.178 41.8717C70.0975 42.3547 69.9365 42.5962 69.695 42.6767C69.7447 42.627 69.7637 42.5465 69.79 42.4352L69.79 42.4352C69.8063 42.3664 69.8253 42.2859 69.856 42.1937C70.0587 41.5179 70.0346 40.2747 70.0216 39.6072V39.6072V39.6071L70.0216 39.6061C70.0191 39.479 70.017 39.3727 70.017 39.2954C69.856 36.3971 69.7755 33.5794 69.695 30.6811C69.695 29.3125 69.534 28.3464 69.373 27.8633ZM36.9283 45.736C36.9283 45.9776 36.8478 46.1386 36.7673 46.2191C37.0088 46.0581 37.0893 45.736 37.1698 45.3335C37.2503 44.6894 37.2503 43.6428 37.0893 42.4352C37.003 41.9609 36.9399 41.4865 36.8751 40.9998V40.9997V40.9997C36.8189 40.5778 36.7615 40.1465 36.6867 39.698C36.6062 39.698 36.5257 39.698 36.4452 39.7785C36.4231 39.7829 36.4016 39.7871 36.3804 39.7911L36.3357 39.7995C35.9972 39.8633 35.7784 39.9044 35.5596 40.342C35.7206 40.181 35.8817 40.181 36.1232 40.181C36.2037 40.181 36.2842 40.181 36.3647 40.1005C36.451 40.5749 36.5141 41.0492 36.5789 41.536V41.536V41.536C36.6351 41.958 36.6925 42.3892 36.7673 42.8378C37.0088 44.0454 37.0893 45.1725 36.9283 45.736ZM58.2628 43.4013C58.3433 43.3208 58.4239 43.0793 58.4239 42.9183C58.5849 42.2742 58.5849 41.3081 58.4239 40.02L57.6993 30.3591C57.6188 29.0709 57.2967 28.3464 56.8137 28.1048C56.4917 27.9438 56.0891 27.9438 55.4451 28.0243C55.3243 28.0243 55.1834 28.0445 55.0425 28.0646C54.9016 28.0847 54.7608 28.1048 54.64 28.1048C54.1569 28.1853 53.8349 28.2659 53.5934 28.4269C53.6495 28.3146 53.7448 28.2415 53.8246 28.1802L53.8247 28.1802C53.8593 28.1536 53.8911 28.1292 53.9154 28.1048C54.0764 27.9438 54.3985 27.8633 54.962 27.7828C55.0828 27.7828 55.2237 27.7627 55.3646 27.7425C55.5055 27.7224 55.6463 27.7023 55.7671 27.7023C56.4112 27.6218 56.8137 27.6218 57.1357 27.7828C57.6188 28.0243 57.9408 28.7489 58.0213 30.037L58.7459 39.698C58.8264 40.9861 58.8264 41.9522 58.7459 42.5157C58.6654 42.9183 58.5044 43.2403 58.2628 43.4013ZM141.427 40.4225C141.387 40.503 141.327 40.6037 141.266 40.7043C141.206 40.8049 141.146 40.9056 141.105 40.9861C141.146 41.3886 141.186 41.8113 141.226 42.2339C141.266 42.6566 141.307 43.0793 141.347 43.4818C141.427 43.4818 141.488 43.5019 141.548 43.5221C141.608 43.5422 141.669 43.5623 141.749 43.5623C141.712 43.1144 141.657 42.6319 141.602 42.1389L141.601 42.136L141.601 42.1319L141.601 42.1318C141.536 41.5636 141.47 40.9816 141.427 40.4225ZM136.037 45.6957C135.513 46.5194 135.129 47.1232 134.745 47.5072C134.423 47.8292 134.182 47.9903 133.86 48.1513C134.021 48.0708 134.182 47.9097 134.343 47.7487C134.727 47.3647 135.111 46.7609 135.634 45.9373L135.711 45.8165C138.288 41.3886 141.025 37.0412 143.843 32.7743C143.923 32.8548 144.004 32.8548 144.084 32.8548C141.347 37.0412 138.69 41.3081 136.114 45.575L136.037 45.6957ZM142.152 49.5199C142.303 48.9166 142.242 48.3132 142.167 47.5775L142.152 47.4267V47.2657C142.152 47.0242 141.991 46.8632 141.749 46.7826C141.186 46.6619 140.642 46.521 140.099 46.3801L140.099 46.38C139.555 46.2392 139.012 46.0983 138.449 45.9776C138.207 45.8971 138.046 45.9776 137.966 46.2191H138.127C138.69 46.3398 139.233 46.4807 139.777 46.6216L139.777 46.6216C140.32 46.7625 140.864 46.9034 141.427 47.0242C141.669 47.1047 141.83 47.2657 141.83 47.5072V47.6682C141.91 48.4733 141.91 49.1174 141.83 49.7614C141.83 49.8793 141.787 49.954 141.732 50.0488C141.712 50.0835 141.69 50.1208 141.669 50.164C141.91 50.003 142.071 49.8419 142.152 49.5199ZM102.462 28.4269C102.623 28.2659 102.542 27.9438 102.301 27.7828C102.145 27.6788 101.989 27.6084 101.811 27.5283L101.811 27.5282C101.714 27.4842 101.61 27.4373 101.496 27.3803C101.39 27.345 101.299 27.3252 101.218 27.3072L101.217 27.3072C101.113 27.2843 101.022 27.2645 100.932 27.2193C100.932 27.018 100.952 26.7966 100.972 26.5752C100.992 26.3538 101.012 26.1324 101.012 25.9311H101.334C101.334 26.1436 101.312 26.3337 101.291 26.5131L101.291 26.5133C101.272 26.6738 101.254 26.8258 101.254 26.9777C101.36 27.013 101.45 27.0329 101.532 27.0508C101.637 27.0737 101.727 27.0935 101.818 27.1387C101.888 27.167 101.954 27.1927 102.015 27.2169L102.015 27.2169L102.017 27.2175L102.017 27.2176C102.306 27.3308 102.504 27.4088 102.703 27.5413C102.945 27.7023 103.025 27.9438 102.864 28.1853C101.173 30.8421 99.4828 33.5794 97.8727 36.3166V35.9946C98.9217 34.1297 100.055 32.307 101.181 30.496L101.181 30.4957L101.181 30.4956C101.611 29.8049 102.039 29.1159 102.462 28.4269ZM122.106 29.876C121.945 29.9565 121.784 30.037 121.703 30.1175H121.784C122.025 30.037 122.267 29.9565 122.669 29.9565H123.233V29.715H122.991C122.823 29.7487 122.682 29.7683 122.558 29.7856L122.558 29.7856C122.386 29.8096 122.246 29.8292 122.106 29.876ZM102.542 39.7785C102.462 40.9056 102.381 41.9522 102.14 42.5962C101.979 42.9988 101.818 43.2403 101.496 43.4013C101.657 43.2403 101.737 43.0793 101.818 42.8378C102.052 42.2132 102.135 41.1343 102.213 40.1152L102.22 40.02C102.301 39.0942 102.361 38.1482 102.421 37.2022C102.482 36.2563 102.542 35.3103 102.623 34.3844C102.703 34.3039 102.764 34.2033 102.824 34.1027C102.884 34.002 102.945 33.9014 103.025 33.8209C102.945 34.8272 102.864 35.8135 102.784 36.7997C102.703 37.7859 102.623 38.7721 102.542 39.7785ZM133.538 31.7277C133.216 31.7277 132.813 31.7277 132.652 31.8082L132.169 32.0497H132.25C132.411 31.9692 132.813 31.9692 133.135 31.9692H133.86C133.86 31.8887 133.86 31.8082 133.94 31.7277H133.538ZM110.029 28.2659C110.271 28.1853 110.673 28.1048 110.995 28.1048H111.398V28.3464C111.157 28.4269 110.915 28.4269 110.673 28.4269C110.351 28.4269 109.949 28.5074 109.707 28.5879H109.627C109.707 28.4269 109.868 28.3464 110.029 28.2659ZM114.377 29.0709C114.618 29.2319 114.86 29.554 114.86 29.9565C114.94 30.6811 114.86 31.7277 114.779 32.7743C114.619 34.1754 114.459 35.5965 114.299 37.0176L114.299 37.0181L114.296 37.0412L114.296 37.0414C114.135 38.4703 113.974 39.8993 113.813 41.3081C113.733 42.3547 113.572 43.4013 113.33 44.0454C113.25 44.2064 113.169 44.3674 113.008 44.5284C113.33 44.3674 113.491 44.1259 113.652 43.8039C113.894 43.1598 114.055 42.1132 114.135 41.0666C114.296 39.6577 114.457 38.2287 114.618 36.7997C114.779 35.3707 114.94 33.9416 115.101 32.5328C115.262 31.4862 115.343 30.3591 115.262 29.715C115.182 29.3125 115.021 28.9904 114.779 28.8294C114.538 28.6684 114.216 28.5074 113.894 28.4269C113.773 28.3866 113.672 28.3464 113.572 28.3061C113.471 28.2659 113.37 28.2256 113.25 28.1853C113.25 28.0336 113.268 27.8819 113.287 27.7218L113.287 27.7215V27.7214V27.7213V27.7213V27.7212V27.7211V27.721V27.7209V27.7207V27.7207V27.7206V27.7205V27.7205V27.7204V27.7203V27.7203V27.7202V27.7201V27.7201V27.72V27.7199V27.7199V27.7198V27.7197V27.7197V27.7196V27.7195V27.7195V27.7194V27.7193V27.7193C113.308 27.5402 113.33 27.3506 113.33 27.1387C113.25 27.1387 113.089 27.1387 113.008 27.0582C112.968 27.2595 112.948 27.4809 112.928 27.7023C112.908 27.9237 112.887 28.1451 112.847 28.3464C112.968 28.3866 113.069 28.4269 113.169 28.4671L113.169 28.4672C113.27 28.5074 113.371 28.5476 113.491 28.5879C113.638 28.7344 113.843 28.8216 114.037 28.9035C114.162 28.9567 114.282 29.0076 114.377 29.0709ZM123.631 29.2739C123.653 29.0909 123.673 28.9199 123.716 28.7489H123.957C123.919 28.9375 123.899 29.1085 123.881 29.27L123.88 29.2703L123.88 29.2704C123.859 29.4535 123.839 29.6245 123.796 29.7955C124.038 29.7955 124.199 29.876 124.36 29.9565C124.762 30.1175 125.004 30.2785 125.245 30.4395L125.245 30.4396C125.567 30.6811 125.728 31.0031 125.728 31.4057C125.809 31.9692 125.728 32.9353 125.567 34.2234C125.327 35.8254 125.087 37.4074 124.847 38.9893L124.846 38.9941L124.846 38.9945L124.843 39.0136L124.843 39.014C124.601 40.6039 124.36 42.1938 124.118 43.8039C123.957 45.0115 123.555 45.736 123.072 45.9776C123.394 45.6555 123.635 45.0115 123.796 44.0454C124.037 42.4431 124.277 40.8608 124.517 39.2786L124.518 39.2743L124.521 39.2552C124.762 37.6651 125.004 36.0751 125.245 34.465C125.406 33.1768 125.487 32.2107 125.406 31.6472C125.326 31.1641 125.165 30.8421 124.923 30.6811C124.783 30.5873 124.615 30.5208 124.435 30.4498C124.307 30.3989 124.172 30.3458 124.038 30.2785C123.796 30.2785 123.635 30.198 123.474 30.1175V29.7955H123.555C123.592 29.6068 123.612 29.4357 123.631 29.2741L123.631 29.2739ZM89.5804 44.3674V43.3208C89.4999 43.3208 89.3389 43.3208 89.2584 43.4013C89.2584 43.8039 89.2584 44.2869 89.1779 44.6894C92.4787 44.8505 95.7795 45.0115 99.0803 45.253V44.931C96.0212 44.6895 92.801 44.5284 89.5809 44.3674L89.5807 44.3674L89.5804 44.3674ZM100.087 44.4884C100.067 44.6695 100.046 44.8505 100.046 45.0115C103.186 45.253 106.407 45.575 109.546 45.9776V46.2996C106.326 45.897 103.025 45.575 99.7244 45.3335C99.7244 45.1322 99.7445 44.9108 99.7646 44.6894L99.7647 44.6892C99.7848 44.4678 99.8049 44.2466 99.8049 44.0454C99.8854 43.9649 100.046 43.9649 100.127 43.9649C100.127 44.1259 100.107 44.307 100.087 44.4882L100.087 44.4884ZM56.9345 44.7298L56.9345 44.7297L56.9345 44.7296L56.9345 44.7295C56.9144 44.5484 56.8943 44.3673 56.8943 44.2064C56.854 44.2064 56.8137 44.2265 56.7735 44.2466C56.7332 44.2668 56.693 44.2869 56.6527 44.2869C56.6527 44.4479 56.6728 44.629 56.693 44.8101L56.693 44.8102L56.693 44.8103C56.7131 44.9914 56.7332 45.1725 56.7332 45.3335H56.6527V45.6555C59.9535 45.3335 63.2544 45.092 66.5552 44.931V44.6089C63.3349 44.7699 60.1951 44.931 56.9748 45.253C56.9748 45.092 56.9546 44.9109 56.9345 44.7298ZM35.4933 31.7821L35.4934 31.7822C35.5174 31.9224 35.5385 32.0457 35.5596 32.1302C35.7206 33.0963 35.8615 34.0624 36.0024 35.0285C36.1433 35.9946 36.2842 36.9607 36.4452 37.9268C36.3647 38.0073 36.2037 38.0073 36.1232 38.0073C36.0125 37.1956 35.8849 36.367 35.7559 35.5292L35.7559 35.5291L35.7559 35.5289L35.7558 35.5288C35.6034 34.5386 35.4489 33.5357 35.3181 32.5328C35.297 32.4483 35.2759 32.3251 35.2519 32.1849L35.2518 32.1848L35.2518 32.1847L35.2518 32.1846C35.1843 31.7903 35.0937 31.2618 34.9156 31.0836C34.8351 30.9226 34.7546 30.7616 33.9495 30.9226C33.708 30.9226 33.4664 31.0031 33.1444 31.2446C33.428 30.7483 33.8365 30.6267 34.0949 30.5497L34.095 30.5497C34.13 30.5393 34.1622 30.5297 34.191 30.5201C34.9156 30.4396 35.0766 30.6006 35.1571 30.6811C35.3352 30.8592 35.4258 31.3878 35.4933 31.7821ZM78.3898 44.2064V42.9988H78.1483V44.2064H78.0678V44.5284H78.068C81.3687 44.5284 84.6695 44.5284 87.9702 44.6089V44.2869C84.75 44.2064 81.5297 44.2064 78.39 44.2064H78.3898ZM129.351 49.1174C129.19 49.4394 129.029 49.6004 128.707 49.7614C128.868 49.6809 128.949 49.5199 128.949 49.3589C122.911 48.1513 116.873 47.1047 110.834 46.3801C110.875 46.1788 110.895 45.9574 110.915 45.736C110.935 45.5146 110.955 45.2932 110.995 45.092H111.318C111.318 45.2529 111.297 45.4339 111.277 45.6149L111.277 45.6153C111.257 45.7964 111.237 45.9776 111.237 46.1386C117.275 46.9437 123.313 47.9097 129.351 49.1174ZM139.737 51.4521C139.777 51.2508 139.817 51.0697 139.857 50.8885L139.858 50.8867C139.898 50.7062 139.938 50.5256 139.978 50.325C139.898 50.325 139.737 50.325 139.656 50.2445C139.576 50.7275 139.495 51.2106 139.334 51.6131C142.796 52.4987 146.258 53.3843 149.72 54.4309C149.72 54.3975 149.733 54.3642 149.75 54.3251C149.773 54.2699 149.8 54.2032 149.8 54.1088C146.499 53.2233 143.118 52.3377 139.737 51.4521ZM117.879 54.7128C117.919 54.7731 117.959 54.8335 118 54.9139C118.241 54.8334 118.483 54.7529 118.805 54.5919V54.7529C118.603 54.8334 118.422 54.8938 118.241 54.9542C118.06 55.0146 117.879 55.0749 117.678 55.1555C117.637 55.075 117.597 55.0146 117.557 54.9543L117.557 54.9542L117.557 54.954C117.516 54.8937 117.476 54.8333 117.436 54.7529C116.872 53.8673 116.55 52.9012 116.711 51.9351C116.872 50.7275 117.436 49.8419 118.322 49.3589C117.597 49.9225 117.195 50.647 117.034 51.6936C116.872 52.5792 117.114 53.5453 117.758 54.5114C117.798 54.5918 117.839 54.6522 117.879 54.7125L117.879 54.7127L117.879 54.7128ZM132.048 49.1192L132.048 49.1189L132.048 49.1174L132.048 49.1165C132.089 48.9356 132.129 48.7547 132.169 48.5538H131.847C131.807 48.7945 131.767 49.0153 131.727 49.2359L131.726 49.2381L131.726 49.2404L131.726 49.2405C131.686 49.4611 131.646 49.6818 131.605 49.9224C133.779 50.4055 135.953 50.8885 138.046 51.3716C138.046 51.3382 138.06 51.3049 138.076 51.2658C138.099 51.2106 138.127 51.1439 138.127 51.0496C136.114 50.5665 134.021 50.0835 131.927 49.6809C131.968 49.4803 132.008 49.2997 132.048 49.1192ZM121.945 53.7063C122.669 53.8673 123.394 54.0283 124.36 54.1894C126.211 54.5114 127.5 54.3504 128.466 53.7868C127.5 54.5114 126.05 54.8334 123.957 54.4309C122.911 54.2699 122.186 54.1088 121.542 53.9478C120.978 53.7868 120.495 53.7063 119.932 53.6258C119.529 53.5453 119.207 53.5453 119.046 53.6258C119.046 53.5453 119.127 53.4648 119.127 53.4648C119.288 53.3843 119.61 53.3038 120.334 53.3843C120.616 53.4245 120.878 53.4849 121.139 53.5453L121.14 53.5453C121.401 53.6057 121.663 53.6661 121.945 53.7063ZM68.2459 44.4479C68.2459 44.0454 68.2459 43.6428 68.1654 43.2403H67.8433C67.8433 43.4725 67.8619 43.7047 67.8812 43.9458L67.8813 43.9459L67.8813 43.946C67.9021 44.2065 67.9238 44.4774 67.9238 44.7699C71.2246 44.6089 74.5255 44.5284 77.8263 44.4479V44.1259C74.606 44.2064 71.3857 44.2869 68.2459 44.4479ZM46.8307 45.8569C46.8509 46.038 46.871 46.2191 46.9112 46.3801C48.4234 46.1911 49.9178 46.0198 51.4027 45.8496L51.4028 45.8496L51.4031 45.8496C53.0805 45.6574 54.7458 45.4665 56.4111 45.253V45.575C53.1103 45.8971 49.89 46.2191 46.5892 46.7021C46.5489 46.5009 46.5288 46.2795 46.5087 46.0582L46.5087 46.0581L46.5087 46.058L46.5087 46.0579C46.4885 45.8365 46.4684 45.6152 46.4282 45.414C46.4684 45.414 46.5288 45.3939 46.5892 45.3738C46.6496 45.3536 46.71 45.3335 46.7502 45.3335C46.7905 45.4945 46.8106 45.6757 46.8307 45.8568L46.8307 45.8569ZM15.1912 50.5665C15.1912 50.6995 15.1668 50.808 15.1449 50.9056L15.1449 50.9056C15.127 50.9853 15.1107 51.0577 15.1107 51.1301C15.3522 50.8885 15.4327 50.647 15.4327 50.2445C15.4327 49.6809 15.3522 48.6343 15.0302 47.4267L12.3734 35.5921C11.7294 35.7531 11.2463 36.1556 10.8438 36.8802C11.2463 36.3971 11.5684 36.1556 12.1319 35.9946L14.7887 47.8292C15.0302 48.9563 15.1912 49.9224 15.1912 50.5665ZM29.3606 44.0454C29.1191 45.575 28.797 46.1386 28.5555 46.3801L28.5824 46.3131C28.7425 45.915 28.9668 45.3572 29.1191 44.3674C29.2801 43.0793 29.6826 41.8717 30.4877 40.8251C29.8436 41.7912 29.5216 42.9183 29.3606 44.0454ZM29.3606 40.1005C29.7631 40.2615 30.2462 40.4225 30.8097 40.4225L31.1317 40.1005C30.5682 40.02 30.0851 39.9395 29.6826 39.698C28.153 39.0539 27.1064 37.8463 26.7843 35.9946C26.5428 34.5455 26.7843 33.1768 27.5894 32.1302C26.6233 33.3378 26.2208 34.787 26.5428 36.3971C26.7843 38.2488 27.7504 39.4564 29.3606 40.1005ZM42.6142 29.0407C42.7048 29.0106 42.7652 28.9904 42.8054 28.9904C42.8859 28.9099 43.0469 28.9099 43.1274 28.9099V29.2319C43.0551 29.2319 42.9664 29.2482 42.8688 29.2661C42.7493 29.2881 42.6163 29.3125 42.4834 29.3125C42.4834 29.3125 42.3224 29.3125 41.9198 29.4735C41.8796 29.5137 41.8393 29.5339 41.7991 29.554C41.7588 29.5741 41.7186 29.5942 41.6783 29.6345C41.8393 29.393 42.0003 29.2319 42.2419 29.1514C42.4028 29.1112 42.5236 29.0709 42.6142 29.0408L42.6142 29.0407ZM7.70399 42.6767L6.7379 35.431C6.70455 35.431 6.6712 35.4449 6.63213 35.461C6.57688 35.4839 6.51018 35.5116 6.41586 35.5116C6.73789 38.0073 7.05993 40.503 7.46247 42.9988C7.66371 42.9183 7.88508 42.8579 8.10645 42.7975L8.10649 42.7975L8.10653 42.7975L8.10657 42.7975C8.32795 42.7371 8.54933 42.6767 8.75059 42.5962C8.75059 42.556 8.77072 42.4956 8.79084 42.4352C8.81097 42.3748 8.8311 42.3145 8.8311 42.2742C8.62985 42.3547 8.44873 42.4151 8.2676 42.4755L8.26754 42.4755L8.26748 42.4755C8.08636 42.5359 7.90524 42.5963 7.70399 42.6767ZM26.3013 47.1852C27.4284 48.9563 29.1996 49.8419 31.0512 49.4394C32.0131 49.2333 32.7404 48.9099 33.2332 48.3192C32.6688 49.0347 31.8519 49.5509 30.7292 49.7614C28.8775 50.164 27.1064 49.2784 25.9793 47.5072C25.8987 47.4267 25.8182 47.2657 25.7377 47.1047C25.85 47.0485 25.9231 46.9533 25.9844 46.8734L25.9844 46.8734L25.9844 46.8734L25.9845 46.8733C26.0111 46.8387 26.0354 46.807 26.0598 46.7826C26.1 46.8631 26.1402 46.9235 26.1805 46.9839L26.1805 46.9839L26.1805 46.9839L26.1805 46.9839L26.1806 46.984C26.2208 47.0443 26.261 47.1047 26.3013 47.1852ZM33.4665 47.9903C33.3941 48.104 33.3164 48.2138 33.2332 48.3192C33.3179 48.2177 33.3956 48.1083 33.4665 47.9903ZM35.4017 47.6668L35.4017 47.6667L35.4017 47.6667L35.4017 47.6666L35.4016 47.6665C35.3805 47.4648 35.3604 47.2736 35.3182 47.1047C35.2376 47.1047 35.0766 47.1047 34.9961 47.1852L35.2376 48.6343C38.619 47.9903 42.0003 47.5072 45.3816 47.0242V46.7021C42.0003 47.1047 38.6995 47.6682 35.4792 48.2318C35.4409 48.0406 35.4208 47.8494 35.4017 47.6668ZM13.8628 52.5792L13.8628 52.5793L13.8628 52.5794C13.9031 52.7604 13.9433 52.9415 13.9836 53.1427C17.1234 52.2572 20.2632 51.4521 23.4835 50.7275C23.564 50.8885 23.564 50.969 23.564 51.0495C20.613 51.6973 17.7264 52.4738 14.7891 53.2639L14.7891 53.2639L14.789 53.2639C14.4408 53.3576 14.0919 53.4514 13.742 53.5453C13.7018 53.3038 13.6414 53.0824 13.581 52.861L13.581 52.861C13.5206 52.6396 13.4603 52.4182 13.42 52.1767C13.4815 52.1459 13.5312 52.1269 13.5737 52.1107L13.5738 52.1107C13.6425 52.0844 13.6923 52.0654 13.742 52.0156C13.7823 52.2169 13.8225 52.398 13.8628 52.5791L13.8628 52.5792ZM24.6911 38.3293L23.725 38.5708C23.564 38.3293 23.403 38.0878 23.1615 37.9268C23.0174 37.7506 22.8669 37.5618 22.7113 37.3665L22.7113 37.3664C22.0846 36.5799 21.3752 35.6895 20.6658 35.109C19.6192 34.2234 18.8141 33.9014 18.009 34.0624C18.009 34.1027 18.0291 34.163 18.0493 34.2234L18.0493 34.2234C18.0694 34.2838 18.0895 34.3442 18.0895 34.3844C18.8141 34.3844 19.5386 34.7065 20.4242 35.5115C21.3098 36.2361 22.2759 37.4437 22.92 38.3293C23.081 38.5708 23.242 38.8124 23.4835 38.9734C23.5395 38.9622 23.597 38.951 23.6556 38.9396L23.657 38.9393C24.0198 38.8687 24.4255 38.7898 24.7717 38.6514C24.7717 38.5708 24.7717 38.4098 24.6911 38.3293Z" fill="white"/>
</g>
</g>
</svg>
