<svg width="120" height="98" viewBox="0 0 120 98" fill="none" xmlns="http://www.w3.org/2000/svg">
<path d="M9.88881 84.2904C9.41791 84.2904 9.26095 84.2512 8.51536 84.2512C7.76978 84.2512 7.61281 84.2904 7.14192 84.2904C7.02419 84.2904 6.94571 84.2904 6.94571 84.2512C6.94571 84.2119 6.98496 84.1727 7.06344 84.1334C7.65206 83.8195 7.76978 83.3879 7.76978 82.6815V76.0497C7.76978 75.6966 7.6913 75.2649 7.29889 75.2649H3.25703C2.86461 75.2649 2.82537 75.6573 2.82537 76.0497V82.6815C2.82537 83.3879 2.9431 83.8195 3.53172 84.1334C3.6102 84.1727 3.64944 84.2119 3.64944 84.2512C3.64944 84.2904 3.57096 84.2904 3.45323 84.2904C2.98234 84.2904 2.82537 84.2512 2.07979 84.2512C1.3342 84.2512 1.17723 84.2904 0.706339 84.2904C0.588615 84.2904 0.510132 84.2904 0.510132 84.2512C0.510132 84.2119 0.549374 84.1727 0.627857 84.1334C1.21648 83.8195 1.3342 83.3879 1.3342 82.6815V76.2067C1.3342 75.6181 1.17724 75.1472 0.784826 75.0295C0.706343 74.9902 0.667101 74.951 0.667101 74.951C0.667101 74.9117 0.745583 74.8725 0.863307 74.8725C1.05951 74.8725 1.60889 74.951 2.11903 74.951H8.55461C9.0255 74.951 9.57489 74.8725 9.81033 74.8725C9.92806 74.8725 10.0065 74.8725 10.0065 74.951C10.0065 74.951 9.92805 74.9902 9.88881 75.0295C9.45715 75.1472 9.33943 75.6181 9.33943 76.2067V82.6815C9.33943 83.3879 9.45716 83.8195 10.0458 84.1334C10.1243 84.1727 10.1635 84.2119 10.1635 84.2512C10.085 84.2904 10.0065 84.2904 9.88881 84.2904Z" fill="white"/>
<path d="M20.2093 84.2904C19.7384 84.2904 19.5814 84.2511 18.8358 84.2511C18.0902 84.2511 17.9333 84.2904 17.4624 84.2904C17.3446 84.2904 17.2662 84.2904 17.2662 84.2511C17.2662 84.2119 17.3054 84.1726 17.3839 84.1334C17.9725 83.8195 18.0902 83.3878 18.0902 82.6815V76.913L12.2433 84.2511C12.0863 84.4081 11.9686 84.5651 11.7724 84.5651C11.6547 84.5651 11.6546 84.3689 11.6546 84.2511V76.2067C11.6546 75.618 11.4977 75.1471 11.1053 75.0294C11.0268 74.9902 10.9875 74.9509 10.9875 74.9509C10.9875 74.9117 11.066 74.8725 11.1838 74.8725C11.38 74.8725 12.0078 74.9509 12.4395 74.9509C12.8711 74.9509 13.4598 74.8725 13.6952 74.8725C13.8129 74.8725 13.8914 74.8725 13.8914 74.9509C13.8914 74.9509 13.8129 74.9902 13.7737 75.0294C13.342 75.1471 13.2243 75.618 13.2243 76.2067V82.5245L19.189 75.0687C19.3067 74.9117 19.3852 74.7547 19.5422 74.7547C19.6206 74.7547 19.6599 74.8725 19.6599 75.0687V82.6815C19.6599 83.3878 19.7776 83.8195 20.3662 84.1334C20.4447 84.1726 20.4839 84.2119 20.4839 84.2511C20.4055 84.2904 20.327 84.2904 20.2093 84.2904Z" fill="white"/>
<path d="M30.0196 76.9915C29.9804 76.9915 29.8626 76.8345 29.7842 76.7561C29.1955 76.1282 28.3322 75.3041 27.0373 75.3041C26.4486 75.3041 26.2132 75.4219 26.2132 75.9712V82.6815C26.2132 83.3878 26.3702 83.9765 26.998 84.0942C27.1157 84.1334 27.1942 84.1727 27.1942 84.2119C27.1942 84.2512 27.155 84.2904 27.0765 84.2904C26.998 84.2904 26.174 84.2512 25.4676 84.2512C24.722 84.2512 23.9764 84.2904 23.8587 84.2904C23.7802 84.2904 23.741 84.2512 23.741 84.2119C23.741 84.1727 23.8587 84.1727 23.9764 84.0942C24.5651 83.8195 24.6828 83.3878 24.6828 82.0144V75.9712C24.6828 75.4219 24.4473 75.3041 23.8587 75.3041C22.5638 75.3041 21.7004 76.1282 21.1118 76.7561C21.0333 76.8738 20.9156 76.9915 20.8764 76.9915C20.8371 76.9915 20.7979 76.9523 20.7979 76.913C20.7979 76.8738 20.8371 76.7168 20.8764 76.5599L21.308 74.9117H29.4702L29.9019 76.5599C29.9411 76.7168 29.9804 76.8345 29.9804 76.913C30.0589 76.9523 30.0589 76.9915 30.0196 76.9915Z" fill="white"/>
<path d="M39.2021 82.1321L38.6135 84.2119H30.726C30.412 84.2119 30.3335 84.2119 30.3335 84.1727C30.3335 84.1334 30.6082 84.0549 30.6867 83.9372C31.1576 83.5056 31.2753 83.1132 31.2753 81.7789V76.8345C31.2753 75.8928 31.2361 75.2649 30.6867 75.1079C30.6082 75.0687 30.4513 75.0294 30.4513 74.9902C30.4513 74.951 30.4905 74.9117 30.6867 74.9117H38.0248L38.378 76.2852C38.4173 76.4421 38.4957 76.6383 38.4957 76.8345C38.4957 76.8738 38.4565 76.9523 38.4173 76.9523C38.378 76.9523 38.2995 76.8738 38.2603 76.8345C37.7109 75.8143 36.3375 75.3041 35.121 75.3041H32.7273V79.1498H35.121C36.0628 79.1498 36.8868 78.6396 37.0831 78.051C37.1223 77.9725 37.1615 77.9333 37.2008 77.9333C37.24 77.9333 37.24 78.0118 37.24 78.1295V80.5232C37.24 80.7587 37.24 80.8372 37.2008 80.8372C37.1615 80.8372 37.1223 80.7194 37.0831 80.6409C36.6906 79.5422 35.6311 79.503 34.7286 79.503H32.7273V82.5638C32.7273 83.6233 33.0412 83.8587 33.9437 83.8587H35.3957C36.4944 83.8587 37.9464 83.1916 38.7704 82.2891C38.9274 82.1321 39.0844 81.9752 39.1236 81.9752C39.1628 81.9752 39.1628 81.9752 39.1628 82.0144C39.2021 82.0536 39.2021 82.0929 39.2021 82.1321Z" fill="white"/>
<path d="M49.2871 84.2904C48.8162 84.2904 48.6593 84.2512 47.9137 84.2512C47.1681 84.2512 47.0111 84.2904 46.5402 84.2904C46.4225 84.2904 46.344 84.2904 46.344 84.2512C46.344 84.2119 46.3833 84.1727 46.4618 84.1334C47.0504 83.8195 47.1681 83.3879 47.1681 82.6815V76.913L41.3211 84.2512C41.1642 84.4081 41.0465 84.5651 40.8503 84.5651C40.7325 84.5651 40.7325 84.3689 40.7325 84.2512V76.2067C40.7325 75.6181 40.5756 75.1472 40.1831 75.0295C40.1047 74.9902 40.0654 74.951 40.0654 74.951C40.0654 74.9117 40.1439 74.8725 40.2616 74.8725C40.4578 74.8725 41.0857 74.951 41.5174 74.951C41.949 74.951 42.5376 74.8725 42.7731 74.8725C42.8908 74.8725 42.9693 74.8725 42.9693 74.951C42.9693 74.951 42.8908 74.9902 42.8516 75.0295C42.4199 75.1472 42.3022 75.6181 42.3022 76.2067V82.5246L48.2669 75.0687C48.3846 74.9117 48.4631 74.7548 48.62 74.7548C48.6985 74.7548 48.7378 74.8725 48.7378 75.0687V82.6815C48.7378 83.3879 48.8555 83.8195 49.4441 84.1334C49.5226 84.1727 49.5618 84.2119 49.5618 84.2512C49.4833 84.2904 49.4049 84.2904 49.2871 84.2904ZM44.382 74.2446C43.5971 74.2446 43.0478 73.8914 42.3414 73.1851L43.4009 72.3218C43.5187 72.2433 43.5971 72.2041 43.6364 72.2041C43.7149 72.2041 43.7149 72.361 43.7149 72.4395C43.7149 72.8319 43.8718 73.3421 44.0288 73.499C44.225 73.6952 44.4997 73.8522 44.7744 73.8522C45.4415 73.8522 47.0111 73.1066 47.639 72.2041L47.9922 73.0281C46.9719 73.6952 45.5592 74.2446 44.382 74.2446Z" fill="white"/>
<path d="M59.6076 84.2904C59.1367 84.2904 58.9797 84.2512 58.2341 84.2512C57.4886 84.2512 57.3316 84.2904 56.8607 84.2904C56.743 84.2904 56.6645 84.2904 56.6645 84.2512C56.6645 84.2119 56.7037 84.1727 56.7822 84.1334C57.3708 83.8195 57.4886 83.3879 57.4886 82.6815V79.503H52.5441V82.6815C52.5441 83.3879 52.6619 83.8195 53.2505 84.1334C53.329 84.1727 53.3682 84.2119 53.3682 84.2512C53.3682 84.2904 53.2897 84.2904 53.172 84.2904C52.7011 84.2904 52.5442 84.2512 51.7986 84.2512C51.053 84.2512 50.896 84.2904 50.4251 84.2904C50.3074 84.2904 50.2289 84.2904 50.2289 84.2512C50.2289 84.2119 50.2681 84.1727 50.3466 84.1334C50.9353 83.8195 51.053 83.3879 51.053 82.6815V76.2067C51.053 75.6181 50.896 75.1472 50.5036 75.0295C50.4251 74.9902 50.3859 74.951 50.3859 74.951C50.3859 74.9117 50.4644 74.8725 50.5821 74.8725C50.7783 74.8725 51.4062 74.951 51.8378 74.951C52.2695 74.951 52.8581 74.8725 53.0935 74.8725C53.2112 74.8725 53.2897 74.8725 53.2897 74.951C53.2897 74.951 53.2113 74.9902 53.172 75.0295C52.7404 75.1472 52.6226 75.6181 52.6226 76.2067V79.1498H57.567V76.2067C57.567 75.6181 57.4101 75.1472 57.0177 75.0295C56.9392 74.9902 56.8999 74.951 56.8999 74.951C56.8999 74.9117 56.9784 74.8725 57.0961 74.8725C57.2924 74.8725 57.9202 74.951 58.3519 74.951C58.7835 74.951 59.3721 74.8725 59.6076 74.8725C59.7253 74.8725 59.8038 74.8725 59.8038 74.951C59.8038 74.951 59.7253 74.9902 59.6861 75.0295C59.2544 75.1472 59.1367 75.6181 59.1367 76.2067V82.6815C59.1367 83.3879 59.2544 83.8195 59.843 84.1334C59.9215 84.1727 59.9608 84.2119 59.9608 84.2512C59.8038 84.2904 59.7253 84.2904 59.6076 84.2904Z" fill="white"/>
<path d="M66.0431 84.2119C65.533 84.2512 64.9836 84.2904 64.6697 84.2904C64.395 84.2904 63.4925 84.2512 62.3152 84.2512H61.2557C60.981 84.2512 60.8633 84.2904 60.6278 84.2904C60.3532 84.2904 60.2747 84.2512 60.2747 84.2512C60.2747 84.1727 60.3924 84.1727 60.5101 84.1334C61.0595 83.9372 61.3342 83.5448 61.3342 82.6423V76.2459C61.3342 75.6573 61.1772 75.1864 60.7848 75.0687C60.7063 75.0295 60.6671 74.9902 60.6671 74.9902C60.6671 74.951 60.7456 74.9117 60.8633 74.9117C61.0595 74.9117 61.6874 74.9902 62.119 74.9902C62.5507 74.9902 63.1393 74.9117 63.3747 74.9117C63.4925 74.9117 63.5709 74.9117 63.5709 74.9902C63.5709 74.9902 63.4925 75.0295 63.4532 75.0687C63.0216 75.1864 62.9038 75.6573 62.9038 76.2459V79.0713C63.1785 79.0321 63.5709 78.9536 64.3558 78.9536C66.5925 78.9536 68.947 79.6992 68.947 81.6612C68.9078 83.5056 67.2596 84.055 66.0431 84.2119ZM64.4342 79.3068C63.6102 79.3068 63.1393 79.346 62.8646 79.3853V82.0929C62.8646 83.5448 62.9431 83.8588 63.7671 83.8588H64.9444C66.2786 83.8588 67.1811 83.1917 67.1811 81.5828C67.1811 79.8561 65.4938 79.3068 64.4342 79.3068ZM72.0471 84.2904C71.5762 84.2904 71.4192 84.2512 70.6736 84.2512C69.928 84.2512 69.7711 84.2904 69.3002 84.2904C69.1825 84.2904 69.104 84.2904 69.104 84.2512C69.104 84.2119 69.1432 84.1727 69.2217 84.1334C69.8103 83.8195 69.928 83.3879 69.928 82.6815V76.2067C69.928 75.6181 69.7711 75.1472 69.3787 75.0295C69.3002 74.9902 69.2609 74.951 69.2609 74.951C69.2609 74.9117 69.3394 74.8725 69.4571 74.8725C69.6533 74.8725 70.2812 74.951 70.7129 74.951C71.1445 74.951 71.7724 74.8725 71.9686 74.8725C72.0863 74.8725 72.1648 74.8725 72.1648 74.951C72.1648 74.951 72.0863 74.9902 72.0471 75.0295C71.6154 75.1472 71.4977 75.6181 71.4977 76.2067V82.6815C71.4977 83.3879 71.6154 83.8195 72.204 84.1334C72.2825 84.1727 72.3218 84.2119 72.3218 84.2512C72.2825 84.2904 72.1648 84.2904 72.0471 84.2904Z" fill="white"/>
<path d="M82.2891 84.2904C81.8182 84.2904 81.6612 84.2512 80.9156 84.2512C80.17 84.2512 80.0131 84.2904 79.5422 84.2904C79.4244 84.2904 79.346 84.2904 79.346 84.2512C79.346 84.2119 79.3852 84.1727 79.4637 84.1334C80.0523 83.8195 80.17 83.3879 80.17 82.6815V76.913L74.3231 84.2512C74.1661 84.4081 74.0484 84.5651 73.8522 84.5651C73.7345 84.5651 73.7345 84.3689 73.7345 84.2512V76.2067C73.7345 75.6181 73.5775 75.1472 73.1851 75.0295C73.1066 74.9902 73.0674 74.951 73.0674 74.951C73.0674 74.9117 73.1458 74.8725 73.2636 74.8725C73.4598 74.8725 74.0876 74.951 74.5193 74.951C74.9509 74.951 75.5396 74.8725 75.775 74.8725C75.8927 74.8725 75.9712 74.8725 75.9712 74.951C75.9712 74.951 75.8927 74.9902 75.8535 75.0295C75.4218 75.1472 75.3041 75.6181 75.3041 76.2067V82.5246L81.2688 75.0687C81.3865 74.9117 81.465 74.7548 81.622 74.7548C81.7005 74.7548 81.7397 74.8725 81.7397 75.0687V82.6815C81.7397 83.3879 81.8574 83.8195 82.446 84.1334C82.5245 84.1727 82.5638 84.2119 82.5638 84.2512C82.4853 84.2904 82.4068 84.2904 82.2891 84.2904ZM77.3839 74.2446C76.6383 74.2446 76.0497 73.8914 75.3434 73.1851L76.4029 72.3218C76.5206 72.2433 76.5991 72.2041 76.6383 72.2041C76.7168 72.2041 76.7168 72.361 76.7168 72.4395C76.7168 72.8319 76.8738 73.3421 77.0307 73.499C77.2269 73.6952 77.5016 73.8522 77.7763 73.8522C78.4434 73.8522 80.0131 73.1066 80.6409 72.2041L80.9941 73.0281C80.0131 73.6952 78.6004 74.2446 77.3839 74.2446Z" fill="white"/>
<path d="M96.8476 85.6246C96.7691 86.017 96.6514 86.5272 96.6121 86.5664C96.6121 86.6056 96.5336 86.6056 96.4944 86.6056C96.4552 86.6056 96.4159 86.5664 96.4159 86.4487C96.4159 85.3499 95.9058 84.2119 94.807 84.2119H89.4702C88.3714 84.2119 87.8613 85.3891 87.8613 86.4879C87.8613 86.5271 87.8221 86.6449 87.7828 86.6449C87.7436 86.6449 87.7043 86.6449 87.6651 86.6056C87.6259 86.5664 87.5474 86.0563 87.4296 85.6638L87.0765 84.1727C87.0765 84.1334 87.1157 84.0157 87.155 83.9765C87.1942 83.9765 87.2727 83.898 87.5474 83.898C88.0575 83.898 88.293 83.6233 88.4892 83.1132L91.5107 76.3636L91.3538 75.932C91.2361 75.6573 91.1576 75.3826 90.7259 75.1472C90.6474 75.1079 90.569 75.0687 90.569 74.9902C90.569 74.951 90.7259 74.9117 90.7652 74.9117C91.0398 74.9117 91.4323 74.9902 91.7462 74.9902H92.6095L95.8273 83.1524C95.9843 83.5056 96.2589 83.9372 96.6121 83.9372C96.8868 83.9372 96.9653 83.9765 97.0045 84.0157C97.0438 84.0549 97.083 84.1727 97.083 84.2119L96.8476 85.6246ZM91.7854 76.7561L88.9993 83.0739C88.8423 83.4271 88.6854 83.7018 88.5284 83.8587H94.4538L91.7854 76.7561Z" fill="white"/>
<path d="M102.538 84.5258C99.9869 84.5258 97.6324 82.5638 97.6324 79.5814C97.6324 76.5991 99.9869 74.637 102.538 74.637C105.088 74.637 107.443 76.5991 107.443 79.5814C107.443 82.603 105.088 84.5258 102.538 84.5258ZM102.538 74.9902C100.183 74.9902 99.359 77.4232 99.359 79.5814C99.359 81.7397 100.183 84.1727 102.538 84.1727C104.892 84.1727 105.716 81.7397 105.716 79.5814C105.716 77.4232 104.892 74.9902 102.538 74.9902Z" fill="white"/>
<path d="M118.94 84.2904C118.862 84.2904 118.509 84.2512 117.41 84.2512C116.429 84.2512 116.076 84.2904 115.919 84.2904C115.84 84.2904 115.762 84.2512 115.762 84.2119C115.762 84.1727 115.84 84.1727 115.958 84.0942C116.625 83.898 116.664 82.76 116.664 81.8967V75.8535H116.625L113.368 83.7803C113.329 83.8588 113.172 84.3689 113.054 84.3689H113.015C112.858 84.3689 112.74 83.9372 112.662 83.7803L109.444 75.8535H109.405V81.3865C109.405 82.4068 109.523 83.7018 110.268 84.0157C110.425 84.1334 110.543 84.1727 110.543 84.2512C110.543 84.2512 110.464 84.2512 110.386 84.2512H108.149C108.031 84.2512 107.953 84.2512 107.953 84.2119C107.953 84.1727 108.031 84.1335 108.149 84.0942C108.855 83.6626 109.13 82.3283 109.13 81.3865V76.5991C109.13 76.0497 109.012 75.1864 108.502 75.0687C108.424 75.0687 108.424 74.9902 108.424 74.951C108.424 74.9117 108.463 74.8725 108.502 74.8725C108.777 74.8725 109.405 74.951 109.915 74.951H110.661L113.721 82.0929L116.547 74.951H118.627C118.783 74.951 118.783 74.9902 118.783 75.0295C118.783 75.0687 118.705 75.1079 118.627 75.1472C118.195 75.2649 118.077 75.775 118.077 76.4422V81.9359C118.077 82.7992 118.116 83.9765 118.901 84.1334C119.019 84.1727 119.097 84.2119 119.097 84.2512C119.176 84.2512 119.058 84.2904 118.94 84.2904Z" fill="white"/>
<path d="M42.3022 4.94441H39.4768L39.7122 4.00262H42.4984L42.3022 4.94441Z" fill="white"/>
<path d="M49.0125 7.57358C48.8947 7.57358 48.6985 7.53434 47.5998 7.53434C46.5403 7.53434 46.2656 7.57358 46.1871 7.57358C46.0301 7.57358 45.9516 7.57358 45.9516 7.53434C45.9516 7.4951 46.0301 7.4951 46.1871 7.45586C46.9327 7.33813 46.9719 6.59255 46.9719 5.96469V1.6089C46.9719 0.981038 46.7757 0.745592 46.1871 0.667109C46.1086 0.667109 46.1086 0.627866 46.1086 0.627866C46.1086 0.588624 46.1478 0.588625 46.1871 0.549384C46.8934 0.392419 47.5605 0.235452 48.2669 0.0392456V5.96469C48.2669 6.59255 48.3061 7.29889 49.0517 7.45586C49.2087 7.4951 49.2872 7.4951 49.2872 7.53434C49.2479 7.57358 49.1694 7.57358 49.0125 7.57358Z" fill="white"/>
<path d="M53.9176 7.73055C52.6619 7.73055 51.7201 7.37738 51.0923 7.0242L51.4454 5.84696C51.4847 5.72924 51.5239 5.53303 51.5632 5.53303C51.6416 5.53303 51.6417 5.65075 51.6417 5.80772C51.7201 6.67103 52.8189 7.4951 53.8784 7.4951C55.9582 7.4951 56.3114 5.14062 56.2721 3.96338H56.2329C55.9582 4.59124 55.2126 5.33682 53.9176 5.33682C52.348 5.33682 50.8568 4.23807 50.8568 2.66841C50.8568 1.17724 52.348 0 54.0746 0C56.9 0 57.7633 2.11903 57.7633 3.64945C57.7241 5.25834 56.8607 7.73055 53.9176 7.73055ZM54.1923 0.274694C52.9366 0.274694 52.348 1.33421 52.348 2.62917C52.348 4.19883 53.0936 5.06214 54.1139 5.06214C55.3696 5.06214 56.1152 4.00262 56.1152 2.55069C56.1152 1.17724 55.3696 0.274694 54.1923 0.274694Z" fill="white"/>
<path d="M63.2178 7.73055C61.0988 7.73055 59.5684 5.96469 59.5684 3.8849C59.5684 1.84435 61.0988 0.0392456 63.2178 0.0392456C65.3369 0.0392456 66.8673 1.80511 66.8673 3.8849C66.8673 5.92545 65.3369 7.73055 63.2178 7.73055ZM63.2178 0.274696C61.2558 0.274696 61.0596 2.35449 61.0596 3.8849C61.0596 5.41531 61.2558 7.4951 63.2178 7.4951C65.1799 7.4951 65.3761 5.41531 65.3761 3.8849C65.3761 2.35449 65.1799 0.274696 63.2178 0.274696Z" fill="white"/>
<path d="M74.9902 6.00393L74.4801 7.53434H68.8293C68.8293 6.55331 69.8496 5.53304 71.6155 4.59124C72.5573 4.08111 73.3813 3.37476 73.3813 2.19752C73.3813 1.05952 72.675 0.353178 71.4977 0.353178C70.5559 0.353178 69.7711 0.941796 69.4964 1.80511C69.4572 2.00131 69.4179 2.04056 69.3787 2.04056C69.3395 2.04056 69.3002 1.88359 69.261 1.80511L68.947 0.627866C69.7319 0.274694 70.5952 0.0392456 71.4585 0.0392456C72.9497 0.0392456 74.8332 0.549383 74.8332 2.39373C74.8332 4.12034 73.0674 4.47351 71.7724 4.90517C70.4382 5.37607 69.9281 6.04317 69.9281 6.51407H73.1459C73.9699 6.51407 74.5193 6.31786 74.8725 5.72924C74.9117 5.69 74.951 5.65076 74.9902 5.65076C75.0295 5.65076 75.0687 5.65076 75.0687 5.72924C75.1079 5.80772 75.0295 5.92545 74.9902 6.00393Z" fill="white"/>
<path d="M80.6802 4.94441H77.8549L78.0903 4.00262H80.8764L80.6802 4.94441Z" fill="white"/>
<path d="M15.6573 95.5919C15.3041 95.6312 14.9117 95.6312 14.6763 95.6312C14.4801 95.6312 13.813 95.5919 13.0281 95.5919H11.8117C11.6155 95.5919 11.537 95.5919 11.38 95.5919C11.1838 95.5919 11.1446 95.5919 11.1446 95.5527C11.1446 95.5134 11.223 95.5134 11.3015 95.4742C11.6939 95.3565 11.8901 95.0818 11.8901 94.5324V90.726C11.8901 90.2159 11.8509 89.9804 11.537 89.8234C11.4585 89.7842 11.38 89.7842 11.38 89.745C11.38 89.7057 11.4977 89.7057 11.5762 89.7057H14.7155C15.5788 89.7057 17.1092 89.9412 17.1092 91.0007C17.1092 92.021 15.932 92.2956 15.1472 92.3741C16.1282 92.4134 17.6586 92.7665 17.6586 93.983C17.6979 95.121 16.5206 95.4742 15.6573 95.5919ZM14.4408 89.9412H12.9497V92.2956H14.0877C15.3826 92.2956 15.9712 91.8247 15.9712 91.0399C15.9712 90.4121 15.4611 89.9412 14.4408 89.9412ZM14.5193 92.5311H12.9497V94.2577C12.9497 95.1603 13.0281 95.3565 13.6168 95.3565H14.9117C15.8535 95.3565 16.4814 94.9248 16.4814 93.9045C16.4421 92.845 15.2257 92.5311 14.5193 92.5311Z" fill="white"/>
<path d="M21.8575 95.7881C20.0524 95.7881 18.4042 94.5716 18.4042 92.6488C18.4042 90.7652 20.0916 89.5095 21.8575 89.5095C23.6626 89.5095 25.3107 90.726 25.3107 92.6488C25.3107 94.5324 23.6233 95.7881 21.8575 95.7881ZM21.8575 89.7842C20.1701 89.7842 19.6207 91.3146 19.6207 92.688C19.6207 94.0615 20.2093 95.5919 21.8575 95.5919C23.5448 95.5919 24.0942 94.0615 24.0942 92.688C24.0942 91.2754 23.5056 89.7842 21.8575 89.7842Z" fill="white"/>
<path d="M32.3741 96.4552C32.3349 96.6906 32.2564 97.0046 32.2172 97.0438C32.2172 97.0831 32.1779 97.0831 32.1387 97.0831C32.0994 97.0831 32.0994 97.0438 32.0994 97.0046C32.0994 96.2982 31.7463 95.5919 30.9614 95.5919H27.1943C26.4094 95.5919 26.0563 96.3375 26.0563 97.0046L26.017 97.0831C25.9778 97.0831 25.9386 97.0831 25.9386 97.0438C25.8993 97.0046 25.8601 96.6906 25.7816 96.4552L25.5461 95.5134C25.5461 95.4742 25.5854 95.3957 25.5854 95.3957C25.6246 95.3957 25.6639 95.3564 25.8601 95.3564C26.2132 95.3564 26.3702 95.1602 26.5272 94.8463L28.6854 90.569L28.5677 90.2943C28.4892 90.1373 28.45 89.9411 28.1361 89.7842C28.0576 89.7449 28.0183 89.7449 28.0183 89.6664C28.0183 89.6272 28.1361 89.6272 28.1753 89.6272C28.3715 89.6272 28.6462 89.6664 28.8817 89.6664H29.4703L31.7463 94.8071C31.864 95.0425 32.021 95.3172 32.2956 95.3172C32.4919 95.3172 32.5311 95.3564 32.5703 95.3564C32.6096 95.3564 32.6096 95.4742 32.6096 95.4742L32.3741 96.4552ZM28.8032 90.8829L26.8411 94.8463C26.7234 95.0817 26.6449 95.2387 26.5272 95.3564H30.726L28.8032 90.8829Z" fill="white"/>
<path d="M36.416 95.7881C34.6109 95.7881 32.9628 94.5716 32.9628 92.6488C32.9628 90.7652 34.6501 89.5095 36.416 89.5095C38.2211 89.5095 39.8692 90.726 39.8692 92.6488C39.9085 94.5324 38.2211 95.7881 36.416 95.7881ZM36.416 89.7842C34.7286 89.7842 34.1793 91.3146 34.1793 92.688C34.1793 94.0615 34.7679 95.5919 36.416 95.5919C38.0641 95.5919 38.6528 94.0615 38.6528 92.688C38.6528 91.2754 38.1034 89.7842 36.416 89.7842Z" fill="white"/>
<path d="M46.4618 95.6312C46.1478 95.6312 46.0301 95.5919 45.52 95.5919C45.0098 95.5919 44.8921 95.6312 44.539 95.6312C44.4605 95.6312 44.382 95.6312 44.382 95.5919C44.382 95.5527 44.4212 95.5527 44.4605 95.5134C44.8921 95.3172 44.9706 95.0425 44.9706 94.6109V92.8058C44.4605 92.8843 43.9503 92.9627 43.3225 92.9627C41.5174 92.9627 41.0072 92.4526 41.0072 90.8045V90.5298C41.0072 90.1374 40.9287 89.8627 40.6148 89.7842C40.5756 89.7842 40.5363 89.745 40.5363 89.745C40.5363 89.7057 40.5756 89.7057 40.6541 89.7057C40.811 89.7057 41.2427 89.745 41.5174 89.745C41.7921 89.745 42.263 89.7057 42.3807 89.7057C42.4592 89.7057 42.4984 89.7057 42.4984 89.745C42.4984 89.745 42.4592 89.7842 42.4199 89.7842C42.106 89.8627 42.0275 90.2551 42.0275 90.6083C42.0275 91.864 42.1452 92.7273 43.3225 92.7273C43.9111 92.7273 44.4605 92.6488 44.9314 92.5703V90.5298C44.9314 90.1374 44.8136 89.8627 44.539 89.7842C44.4997 89.7842 44.4605 89.745 44.4605 89.745C44.4605 89.7057 44.4997 89.7057 44.6174 89.7057C44.7744 89.7057 45.2061 89.745 45.4807 89.745C45.7554 89.745 46.2263 89.7057 46.3441 89.7057C46.4225 89.7057 46.4618 89.7057 46.4618 89.745C46.4618 89.745 46.4225 89.7842 46.3833 89.7842C46.0694 89.8627 45.9909 90.1766 45.9909 90.5298V94.6109C45.9909 95.0425 46.0694 95.3172 46.501 95.5134C46.5403 95.5527 46.5795 95.5527 46.5795 95.5919C46.6187 95.6312 46.5403 95.6312 46.4618 95.6312Z" fill="white"/>
<path d="M53.7606 95.6312C53.4467 95.6312 53.329 95.5919 52.7796 95.5919C52.2695 95.5919 52.1517 95.6312 51.7986 95.6312C51.7201 95.6312 51.6416 95.6312 51.6416 95.5919C51.6416 95.5527 51.6808 95.5527 51.7201 95.5134C52.1517 95.3172 52.2302 95.0425 52.2302 94.6109V92.6096H48.7377V94.6109C48.7377 95.0425 48.8162 95.3172 49.2479 95.5134C49.2871 95.5527 49.3263 95.5527 49.3263 95.5919C49.3263 95.6312 49.2871 95.6312 49.1694 95.6312C48.8555 95.6312 48.7377 95.5919 48.1884 95.5919C47.6782 95.5919 47.5605 95.6312 47.2073 95.6312C47.1288 95.6312 47.0504 95.6312 47.0504 95.5919C47.0504 95.5527 47.0896 95.5527 47.1288 95.5134C47.5605 95.3172 47.639 95.0425 47.639 94.6109V90.5298C47.639 90.1374 47.5213 89.8627 47.2466 89.7842C47.2073 89.7842 47.1681 89.745 47.1681 89.745C47.1681 89.7057 47.2073 89.7057 47.2858 89.7057C47.4428 89.7057 47.8744 89.745 48.1491 89.745C48.463 89.745 48.8947 89.7057 49.0124 89.7057C49.0909 89.7057 49.1301 89.7057 49.1301 89.745C49.1301 89.745 49.0909 89.7842 49.0517 89.7842C48.777 89.8627 48.6593 90.1766 48.6593 90.5298V92.3741H52.1517V90.5298C52.1517 90.1374 52.034 89.8627 51.7593 89.7842C51.7201 89.7842 51.6808 89.745 51.6808 89.745C51.6808 89.7057 51.7201 89.7057 51.7986 89.7057C51.9555 89.7057 52.3872 89.745 52.6619 89.745C52.9365 89.745 53.4075 89.7057 53.5252 89.7057C53.6037 89.7057 53.6821 89.7057 53.6821 89.745C53.6821 89.745 53.6429 89.7842 53.6037 89.7842C53.329 89.8627 53.2112 90.1766 53.2112 90.5298V94.6109C53.2112 95.0425 53.2897 95.3172 53.7214 95.5134C53.7606 95.5527 53.7999 95.5527 53.7999 95.5919C53.9176 95.6312 53.8783 95.6312 53.7606 95.6312Z" fill="white"/>
<path d="M58.3126 95.5919C57.9595 95.6312 57.5671 95.6312 57.3316 95.6312C57.1354 95.6312 56.4683 95.5919 55.6835 95.5919H54.9379C54.7417 95.5919 54.6632 95.5919 54.5062 95.5919C54.31 95.5919 54.2708 95.5919 54.2708 95.5527C54.2708 95.5134 54.3493 95.5134 54.4277 95.4742C54.8202 95.3565 55.0164 95.0818 55.0164 94.5324V90.5298C55.0164 90.1374 54.8986 89.8627 54.624 89.7842C54.5847 89.7842 54.5455 89.745 54.5455 89.745C54.5455 89.7057 54.5847 89.7057 54.6632 89.7057C54.8202 89.7057 55.2518 89.745 55.5265 89.745C55.8404 89.745 56.2721 89.7057 56.4291 89.7057C56.5075 89.7057 56.586 89.7057 56.586 89.745C56.586 89.745 56.5468 89.7842 56.5075 89.7842C56.2329 89.8627 56.1151 90.1766 56.1151 90.5298V92.2956C56.3113 92.2564 56.586 92.2172 57.1354 92.2172C58.7051 92.2172 60.3924 92.6881 60.3924 93.9045C60.3532 95.121 59.176 95.4742 58.3126 95.5919ZM57.1746 92.4919C56.586 92.4919 56.2721 92.5311 56.0759 92.5311V94.2577C56.0759 95.1603 56.1544 95.3565 56.743 95.3565H57.5671C58.5088 95.3565 59.1367 94.9248 59.1367 93.9045C59.1367 92.845 57.9202 92.4919 57.1746 92.4919ZM62.59 95.6312C62.276 95.6312 62.1583 95.5919 61.6089 95.5919C61.0988 95.5919 60.9811 95.6312 60.6279 95.6312C60.5494 95.6312 60.4709 95.6312 60.4709 95.5919C60.4709 95.5527 60.5102 95.5527 60.5494 95.5134C60.9811 95.3172 61.0595 95.0425 61.0595 94.6109V90.5298C61.0595 90.1374 60.9418 89.8627 60.6671 89.7842C60.6279 89.7842 60.5886 89.745 60.5886 89.745C60.5886 89.7057 60.6279 89.7057 60.7064 89.7057C60.8633 89.7057 61.295 89.745 61.5697 89.745C61.8444 89.745 62.3153 89.7057 62.433 89.7057C62.5115 89.7057 62.59 89.7057 62.59 89.745C62.59 89.745 62.5507 89.7842 62.5115 89.7842C62.2368 89.8627 62.1191 90.1766 62.1191 90.5298V94.6109C62.1191 95.0425 62.1975 95.3172 62.6292 95.5134C62.6684 95.5527 62.7077 95.5527 62.7077 95.5919C62.7469 95.6312 62.6684 95.6312 62.59 95.6312Z" fill="white"/>
<path d="M69.8104 95.6311C69.4964 95.6311 69.3787 95.5919 68.8293 95.5919C68.3192 95.5919 68.2015 95.6311 67.8875 95.6311C67.8091 95.6311 67.7306 95.6311 67.7306 95.5919C67.7306 95.5526 67.7698 95.5526 67.8091 95.5134C68.2015 95.3172 68.3192 95.0425 68.3192 94.6108V91.0006L64.1989 95.5919C64.0811 95.7096 64.0026 95.7881 63.8849 95.7881C63.8064 95.7881 63.8064 95.6704 63.8064 95.5919V90.5298C63.8064 90.1373 63.728 89.8627 63.414 89.7842C63.3748 89.7842 63.3355 89.7449 63.3355 89.7449C63.3355 89.7057 63.3748 89.7057 63.4533 89.7057C63.6102 89.7057 64.0419 89.7449 64.3166 89.7449C64.5913 89.7449 65.0622 89.7057 65.1799 89.7057C65.2584 89.7057 65.3369 89.7057 65.3369 89.7449C65.3369 89.7449 65.2976 89.7842 65.2584 89.7842C64.9837 89.8627 64.866 90.1766 64.866 90.5298V94.5324L69.104 89.8234C69.1825 89.7449 69.2217 89.6272 69.3395 89.6272C69.4179 89.6272 69.4179 89.7057 69.4179 89.8234V94.6108C69.4179 95.0425 69.4964 95.3172 69.9281 95.5134C69.9673 95.5526 70.0066 95.5526 70.0066 95.5919C69.9673 95.6311 69.9281 95.6311 69.8104 95.6311ZM66.3571 89.3133C65.8077 89.3133 65.4153 89.0778 64.9052 88.6462L65.6508 88.0968C65.7293 88.0575 65.7685 88.0183 65.8077 88.0183C65.847 88.0183 65.847 88.0968 65.847 88.1753C65.847 88.45 65.9647 88.7246 66.0824 88.8424C66.2002 88.9601 66.3964 89.0386 66.6318 89.0386C67.1027 89.0386 68.2407 88.5677 68.6724 87.9791L68.947 88.4892C68.2015 88.9601 67.2204 89.3133 66.3571 89.3133Z" fill="white"/>
<path d="M76.0497 95.7881C75.1472 95.7881 74.2054 95.6311 73.4205 95.1995L73.6952 94.3754C73.7737 94.14 73.813 94.0615 73.8522 94.0615C73.8914 94.0615 73.8914 94.1007 73.8914 94.1792C74.0092 95.0033 74.9117 95.5919 75.7358 95.5919C76.7168 95.5919 77.6586 95.1602 77.6586 94.0615C77.6586 93.002 76.7168 92.6095 75.775 92.6095C75.5396 92.6095 75.3434 92.6488 75.1472 92.7273V92.2956C75.3041 92.3741 75.5396 92.3741 75.6965 92.3741C76.5598 92.3741 77.3447 92.0994 77.3447 91.0791C77.3447 90.2158 76.6776 89.8626 75.8927 89.8626C75.1864 89.8626 74.4408 90.3728 74.2838 90.9614C74.2446 91.1969 74.2054 91.2753 74.1661 91.2753C74.1269 91.2753 74.1269 91.1576 74.0484 90.9614L73.813 90.1373C74.4408 89.8234 75.1864 89.6272 75.932 89.6272C76.9523 89.6272 78.5612 89.7842 78.5612 91.1184C78.5612 92.2171 77.1485 92.4133 76.3244 92.4918C77.3054 92.4918 78.8751 92.845 78.8751 94.1007C78.9143 95.4349 77.1092 95.7881 76.0497 95.7881Z" fill="white"/>
<path d="M86.3702 95.6311C86.2917 95.6311 85.8601 95.5919 85.3499 95.5919C84.6044 95.5919 84.2904 95.6311 84.2512 95.6311C84.2119 95.6311 84.1727 95.6311 84.1727 95.5919C84.1727 95.5526 84.2119 95.5526 84.2904 95.5134C84.4866 95.4349 84.5259 95.2779 84.5259 95.0425C84.5259 94.8855 84.3297 94.4539 84.1335 93.983L83.6233 92.8842H81.4258L80.9157 93.8653C80.7587 94.1792 80.6017 94.5323 80.6017 94.9248C80.6017 95.3172 80.8372 95.4349 81.1119 95.5134C81.1904 95.5134 81.2296 95.5526 81.2296 95.5919C81.2296 95.6311 81.1904 95.6311 81.1119 95.6311C81.0334 95.6311 80.7195 95.5919 80.2093 95.5919C79.8562 95.5919 79.6207 95.6311 79.503 95.6311C79.4245 95.6311 79.3853 95.6311 79.3853 95.5919C79.3853 95.5134 79.503 95.4741 79.5422 95.4349C79.8954 95.121 80.4055 94.3754 80.6017 93.983L82.8385 89.6272C82.8777 89.5879 82.8777 89.5487 82.917 89.5487H82.9562C82.9955 89.5487 82.9955 89.5879 83.0347 89.6272L85.7424 94.6893C85.8993 94.964 86.0955 95.2387 86.3702 95.4349C86.4879 95.5134 86.5664 95.5526 86.5664 95.5919C86.4879 95.5919 86.4487 95.6311 86.3702 95.6311ZM82.4853 90.7652L81.5043 92.688H83.4664L82.4853 90.7652Z" fill="white"/>
<path d="M91.0792 95.5919C90.726 95.6312 90.3336 95.6312 90.0981 95.6312C89.9019 95.6312 89.2348 95.5919 88.45 95.5919H87.2335C87.0373 95.5919 86.9588 95.5919 86.8018 95.5919C86.6056 95.5919 86.5664 95.5919 86.5664 95.5527C86.5664 95.5134 86.6449 95.5134 86.7234 95.4742C87.1158 95.3565 87.312 95.0818 87.312 94.5324V90.726C87.312 90.2159 87.312 89.9804 86.9588 89.8234C86.8803 89.7842 86.8018 89.7842 86.8018 89.745C86.8018 89.7057 86.9196 89.7057 86.9981 89.7057H90.1374C91.0007 89.7057 92.5311 89.9412 92.5311 91.0007C92.5311 92.021 91.3538 92.2956 90.569 92.3741C91.55 92.4134 93.0805 92.7665 93.0805 93.983C93.0805 95.121 91.9032 95.4742 91.0792 95.5919ZM89.8627 89.9412H88.3715V92.2956H89.5095C90.8045 92.2956 91.3931 91.8247 91.3931 91.0399C91.3931 90.4121 90.8437 89.9412 89.8627 89.9412ZM89.9412 92.5311H88.3715V94.2577C88.3715 95.1603 88.45 95.3565 89.0386 95.3565H90.3336C91.2754 95.3565 91.9032 94.9248 91.9032 93.9045C91.864 92.845 90.6475 92.5311 89.9412 92.5311Z" fill="white"/>
<path d="M97.24 95.7881C95.4349 95.7881 93.7868 94.5716 93.7868 92.6488C93.7868 90.7652 95.4742 89.5095 97.24 89.5095C99.0451 89.5095 100.693 90.726 100.693 92.6488C100.733 94.5324 99.0451 95.7881 97.24 95.7881ZM97.24 89.7842C95.5527 89.7842 95.0033 91.3146 95.0033 92.688C95.0033 94.0615 95.5919 95.5919 97.24 95.5919C98.9274 95.5919 99.4768 94.0615 99.4768 92.688C99.4768 91.2754 98.9274 89.7842 97.24 89.7842Z" fill="white"/>
<path d="M107.796 96.4552C107.757 96.6906 107.639 97.0046 107.639 97.0438C107.639 97.0831 107.6 97.0831 107.561 97.0831C107.521 97.0831 107.521 97.0438 107.521 97.0046C107.521 96.2982 107.168 95.5919 106.383 95.5919H102.616C101.831 95.5919 101.478 96.3375 101.478 97.0046C101.478 97.0046 101.478 97.0831 101.439 97.0831C101.4 97.0831 101.36 97.0831 101.36 97.0438C101.36 97.0046 101.282 96.6906 101.203 96.4552L100.968 95.5134C100.968 95.4742 101.007 95.3957 101.007 95.3957C101.046 95.3957 101.086 95.3564 101.282 95.3564C101.635 95.3564 101.792 95.1602 101.949 94.8463L104.107 90.569L103.99 90.2943C103.911 90.1373 103.872 89.9411 103.558 89.7842C103.479 89.7449 103.44 89.7449 103.44 89.6664C103.44 89.6272 103.558 89.6272 103.597 89.6272C103.793 89.6272 104.068 89.6664 104.303 89.6664H104.892L107.168 94.8071C107.286 95.0425 107.443 95.3172 107.717 95.3172C107.914 95.3172 107.953 95.3564 107.992 95.3564C108.031 95.3564 108.031 95.4742 108.031 95.4742L107.796 96.4552ZM104.225 90.8829L102.263 94.8463C102.145 95.0817 102.067 95.2387 101.949 95.3564H106.148L104.225 90.8829Z" fill="white"/>
<path fill-rule="evenodd" clip-rule="evenodd" d="M61.9228 21.1903C62.5507 20.8764 62.8646 20.2485 62.8646 19.3067C62.8646 18.6789 62.5507 18.051 61.9228 17.4232C61.6089 17.1092 60.6671 16.7953 60.0393 16.7953C59.4114 16.7953 58.7835 17.1092 58.1557 17.4232C57.5278 18.051 57.5278 18.6789 57.5278 19.3067C57.5278 20.2485 57.5278 20.8764 58.1557 21.1903C58.7835 21.8182 59.4114 22.1321 60.0393 22.1321C60.6671 22.1321 61.6089 21.8182 61.9228 21.1903ZM60.0393 21.1903C59.7253 21.1903 59.0975 20.8764 58.7835 20.5625C58.4696 20.2485 58.4696 19.9346 58.4696 19.3067C58.4696 18.9928 58.4696 18.6789 58.7835 18.3649C59.0975 18.051 59.7253 17.7371 60.0393 17.7371C60.6671 17.7371 60.981 18.051 61.295 18.3649C61.6089 18.6789 61.6089 18.9928 61.6089 19.3067C61.6089 19.9346 61.6089 20.2485 61.295 20.5625C60.981 20.8764 60.6671 21.1903 60.0393 21.1903Z" fill="white"/>
<path fill-rule="evenodd" clip-rule="evenodd" d="M58.7835 31.5893V38.1818H60.0393H60.9811V31.5893H60.0393H58.7835Z" fill="white"/>
<path fill-rule="evenodd" clip-rule="evenodd" d="M59.0975 27.8221V30.3336H60.0393H60.9811V27.8221C60.3532 27.5082 59.7253 27.5082 59.0975 27.8221Z" fill="white"/>
<path fill-rule="evenodd" clip-rule="evenodd" d="M56.586 50.4644H58.4696V47.9529C57.2139 48.2276 56.586 49.5226 56.586 50.4644Z" fill="white"/>
<path fill-rule="evenodd" clip-rule="evenodd" d="M55.9581 30.3336H58.1557V28.136C57.2139 28.45 56.2721 29.3918 55.9581 30.3336Z" fill="white"/>
<path fill-rule="evenodd" clip-rule="evenodd" d="M60.0392 25.6246H59.7253C56.8999 25.6246 54.7024 27.8221 54.0745 30.6475C54.0745 31.2753 54.0745 31.9032 54.0745 32.2171C54.0745 35.0425 54.0745 37.5539 54.0745 40.0654V40.3793V41.0072H60.0392H66.0039V40.3793V40.0654C66.0039 37.5539 66.0039 35.0425 66.0039 32.2171C66.0039 31.9032 66.0039 31.2753 66.0039 30.6475C65.376 27.8221 63.1785 25.6246 60.3532 25.6246H60.0392ZM65.3761 31.5893V39.7515H60.3532H59.7253H54.7024V31.5893C54.7024 28.7639 57.2139 26.5664 60.0392 26.2524C62.8646 26.5664 65.3761 28.7639 65.3761 31.5893Z" fill="white"/>
<path fill-rule="evenodd" clip-rule="evenodd" d="M119.765 22.76C118.823 21.1903 117.567 19.9346 116.625 18.3649H116.311C100.262 18.3649 88.3323 18.3649 73.2243 18.3649L60 13.656L46.7757 18.3649C31.6678 18.3649 19.7384 18.3649 3.68869 18.3649H3.37475C2.43296 19.9346 1.17724 21.1903 0.235448 22.76C-0.0784827 23.0739 -0.0784827 23.3878 0.235448 23.3878C0.235448 24.0157 0.549381 24.3296 0.863312 24.9575C0.863312 25.2714 1.17724 25.2714 1.17724 25.8993V42.5768C0.549382 42.5768 0.54938 42.8908 0.54938 43.5186C0.54938 44.1465 0.549381 44.4604 0.863312 45.0883C0.863312 45.0883 1.17724 45.4022 1.17724 46.0301V67.7305H59.6861H60.3139H118.823V46.0301C118.823 45.4022 119.137 45.0883 119.137 45.0883C119.451 44.4604 119.451 44.1465 119.451 43.5186C119.451 42.8908 119.451 42.5768 118.823 42.5768V25.8993C118.823 25.2714 119.137 25.2714 119.137 24.9575C119.451 24.3296 119.765 24.0157 119.765 23.3878C120.078 23.3878 120.078 23.0739 119.765 22.76ZM60.0392 15.5396L77.6586 22.1321H60.0392H42.4199L60.0392 15.5396ZM4.04186 19.3067C26.3702 19.3067 28.5677 19.3067 43.9895 19.3067C42.106 19.9346 40.5363 20.5624 38.9666 21.1903H38.6527L38.0249 21.5042L38.3388 22.446C26.0562 22.446 14.1269 22.446 1.84435 22.446L4.04186 19.3067ZM36.4552 24.9967H25.7816C25.7816 24.6828 25.7816 24.3689 25.7816 24.3689H36.1413C36.1413 24.3296 36.4552 24.6436 36.4552 24.9967ZM24.4866 24.9967H13.8129C13.8129 24.6828 13.8129 24.3689 13.8129 24.3689H24.1727C24.1727 24.6435 24.4866 24.6436 24.4866 24.9967ZM12.2433 24.3296C12.2433 24.6435 12.5572 24.6435 12.5572 24.9575H2.19751C2.19751 24.6435 1.88358 24.3296 1.88358 24.3296H12.2433ZM12.2433 44.4604C12.2433 44.7744 12.5572 44.7744 12.5572 45.0883H2.19751C2.19751 44.7744 1.88358 44.7744 1.88358 44.4604H12.2433ZM12.8712 65.847H2.19751V65.533H12.8712V65.847ZM12.8712 64.2773H2.19751V46.0301C3.76717 46.0301 8.1622 46.0301 12.8712 46.0301C12.8712 52.3479 12.8712 58.3126 12.8712 64.2773ZM12.8712 28.7639V42.6161H2.19751V25.9385H12.8712C12.8712 26.8803 12.8712 27.8221 12.8712 28.7639ZM24.1727 44.4604C24.4866 44.7744 24.4866 44.7744 24.4866 45.0883H14.1269C14.1269 44.7744 13.8129 44.4604 13.8129 44.4604H24.1727ZM24.8005 65.847H14.1269V65.533H24.8005V65.847ZM24.8005 64.2773H14.1269C14.1269 58.3126 14.1269 52.3479 14.1269 46.0301H24.8005C24.8005 52.3479 24.8005 58.3126 24.8005 64.2773ZM24.8005 42.5768H14.1269V25.8993H24.8005V42.5768ZM25.7423 44.4604H36.102C36.102 44.7744 36.416 44.7744 36.416 45.0883H25.7423C25.7423 44.7744 25.7423 44.7744 25.7423 44.4604ZM36.7691 65.847H26.0955V65.533H36.7691V65.847ZM36.7691 64.2773H26.0955V46.0301H36.7691V64.2773ZM36.7691 42.5768H26.0955V25.8993H36.7691V42.5768ZM48.0706 65.847H38.0249V65.533H48.0706V65.847ZM48.0706 64.2773H38.0249C38.0249 58.3126 38.0249 52.3479 38.0249 46.0301C39.2806 46.0301 43.6756 46.0301 48.6985 46.0301L48.0706 64.2773ZM48.6985 45.0883H37.6717C37.6717 44.7744 37.6717 44.7744 37.6717 44.4604H48.6985C48.6985 44.7744 48.6985 44.7744 48.6985 45.0883ZM48.3846 42.5768H38.0249V25.8993H48.6985C48.6985 31.5893 48.3846 36.9261 48.3846 42.5768ZM37.7109 24.9967C37.7109 24.6828 37.7109 24.3689 37.7109 24.3689H48.3846C48.6985 24.3689 48.6985 24.6828 48.6985 24.9967H37.7109ZM51.8378 65.847H49.6403V65.533H51.8378V65.847ZM49.6403 64.2773L49.9542 45.7161H51.5239L51.8378 64.2773H49.6403ZM49.6403 42.5768L49.9542 25.8993H51.5239C51.5239 31.2361 51.8378 36.9261 51.8378 42.5768H49.6403ZM51.5239 24.6435H49.9542C49.6403 24.6435 49.6403 24.3296 49.6403 24.3296H51.8378L51.5239 24.6435ZM55.0163 65.847H53.4467V64.9052H55.0163V65.847ZM53.4075 52.3479V51.7201H54.3493V52.3479H53.4075ZM54.3885 53.2897V63.6494H53.7606V53.2897H54.3885ZM53.1328 50.4643H52.8188V45.1275H56.586C54.7024 46.0301 53.4075 47.9137 53.1328 50.4643ZM64.1203 65.847H60.3532H59.7253H55.9582V64.9052H59.7253H60.3532H64.1203V65.847ZM64.4343 57.6848V63.9634H60.3532H59.7253H55.6442V57.6848V52.3479H59.7253H60.3532H64.4343V57.6848ZM64.7482 50.7783V51.4061H60.3532H59.7253H55.3303V50.7783V50.4643C55.3303 48.2668 56.8999 46.6972 59.0975 46.0693C59.4114 46.3832 59.7253 46.6972 60.0392 46.6972C60.3532 46.6972 60.6671 46.6972 60.981 46.0693C63.1786 46.6972 64.7482 48.2668 64.7482 50.4643V50.7783ZM59.7253 45.4022V44.4604H60.0392H60.3532V45.4022H59.7253ZM66.6318 65.847H65.0621V64.9052H66.6318V65.847ZM65.69 63.6494V53.2897H66.3179V63.6494H65.69ZM66.6318 52.3479H65.69V51.7201H66.6318V52.3479ZM67.2597 50.4643H66.9457C66.6318 47.9529 65.3761 46.0693 63.4925 45.1275H67.2597V50.4643ZM66.6318 42.5768H60.3532H59.7253H53.4467L52.8188 25.2714H59.7253H60.3532H67.2597L66.6318 42.5768ZM70.399 65.847H68.2014V65.533H70.399V65.847ZM68.2014 64.2773L68.5154 45.7161H70.085L70.399 64.2773H68.2014ZM68.2014 42.5768C68.2014 36.9261 68.5154 31.2753 68.5154 25.8993H70.085L70.399 42.5768H68.2014ZM70.085 24.6435H68.5154L68.2014 24.3296H70.399C70.399 24.3296 70.399 24.6435 70.085 24.6435ZM82.0536 65.847H71.9686V65.533H82.0536V65.847ZM82.0536 64.2773H71.9686L71.3408 46.0301C76.3636 46.0301 80.7587 46.0301 82.0144 46.0301C82.0536 52.3479 82.0536 58.3126 82.0536 64.2773ZM82.3676 45.0883H71.38C71.38 44.7744 71.38 44.7744 71.38 44.4604H82.3676C82.3676 44.7744 82.3676 44.7744 82.3676 45.0883ZM71.3408 25.8993H82.0144V42.5768H71.6547C71.6547 36.9261 71.3408 31.5893 71.3408 25.8993ZM82.3676 24.9967H71.38C71.38 24.6828 71.38 24.3689 71.6939 24.3689H82.3676C82.3676 24.3296 82.3676 24.6436 82.3676 24.9967ZM93.983 65.847H83.3094V65.533H93.983V65.847ZM93.983 64.2773H83.3094V46.0301H93.983V64.2773ZM94.2969 45.0883H83.6233C83.6233 44.7744 83.9372 44.7744 83.9372 44.4604H94.2969C94.2969 44.7744 94.2969 44.7744 94.2969 45.0883ZM83.3094 42.5768V25.8993H93.983V42.5768H83.3094ZM94.2969 24.9967H83.6233C83.6233 24.6828 83.9372 24.3689 83.9372 24.3689H94.2969C94.2969 24.3296 94.2969 24.6436 94.2969 24.9967ZM105.952 65.847H95.278V65.533H105.952V65.847ZM105.952 64.2773H95.278C95.278 58.3126 95.278 52.3479 95.278 46.0301H105.952C105.952 52.3479 105.952 58.3126 105.952 64.2773ZM105.952 45.0883H95.5919C95.5919 44.7744 95.5919 44.7744 95.9058 44.4604H106.266C106.266 44.4604 105.952 44.7744 105.952 45.0883ZM95.2387 42.5768V25.8993H105.912V42.5768H95.2387ZM106.266 24.9967H95.5919C95.5919 24.6828 95.9058 24.6828 95.9058 24.3689H106.266C106.266 24.3296 106.266 24.6436 106.266 24.9967ZM117.881 65.847H107.207V65.533H117.881V65.847ZM117.881 64.2773H107.207C107.207 58.3126 107.207 52.3479 107.207 46.0301C111.916 46.0301 116.311 46.0301 117.881 46.0301V64.2773ZM117.881 45.0883H107.521C107.521 44.7744 107.835 44.7744 107.835 44.4604H118.195C118.195 44.7744 117.881 44.7744 117.881 45.0883ZM107.207 42.5768V28.7247C107.207 27.7829 107.207 26.8411 107.207 25.8993H117.881V42.5768H107.207ZM117.881 24.9967H107.521C107.521 24.6828 107.835 24.6828 107.835 24.3689H118.195C118.195 24.3296 117.881 24.6436 117.881 24.9967ZM81.7397 22.446L82.0536 21.5042L81.4258 21.1903H81.1118C79.5422 20.5624 77.9725 19.9346 76.089 19.3067C91.5108 19.3067 93.7083 19.3067 116.037 19.3067L118.234 22.446C105.952 22.446 93.983 22.446 81.7397 22.446Z" fill="white"/>
<path fill-rule="evenodd" clip-rule="evenodd" d="M10.3597 30.3336C9.73187 30.0196 9.10401 29.3918 8.16222 29.3918V32.2171H10.3597V30.3336Z" fill="white"/>
<path fill-rule="evenodd" clip-rule="evenodd" d="M7.18115 29.3918C6.23936 29.3918 5.6115 30.0196 4.98364 30.3336V32.2171H7.18115V29.3918Z" fill="white"/>
<path d="M7.18115 33.4729H4.98364V38.4958H7.18115V33.4729Z" fill="white"/>
<path d="M10.3597 33.4729H8.16222V38.4958H10.3597V33.4729Z" fill="white"/>
<path fill-rule="evenodd" clip-rule="evenodd" d="M22.2891 30.3336C21.6612 30.0196 21.0333 29.3918 20.0915 29.3918V32.2171H22.2891V30.3336Z" fill="white"/>
<path fill-rule="evenodd" clip-rule="evenodd" d="M19.1498 29.3918C18.208 29.3918 17.5801 30.0196 16.9523 30.3336V32.2171H19.1498V29.3918Z" fill="white"/>
<path d="M19.1498 33.4729H16.9523V38.4958H19.1498V33.4729Z" fill="white"/>
<path d="M22.2891 33.4729H20.0915V38.4958H22.2891V33.4729Z" fill="white"/>
<path fill-rule="evenodd" clip-rule="evenodd" d="M33.9437 30.3336C33.3159 30.0196 32.688 29.3918 32.0602 29.3918V32.2171H33.9437V30.3336Z" fill="white"/>
<path fill-rule="evenodd" clip-rule="evenodd" d="M30.8045 29.3918C30.1766 29.3918 29.2348 30.0196 28.9209 30.3336V32.2171H30.8045V29.3918Z" fill="white"/>
<path d="M30.7652 33.4729H28.8816V38.4958H30.7652V33.4729Z" fill="white"/>
<path d="M33.9437 33.4729H32.0602V38.4958H33.9437V33.4729Z" fill="white"/>
<path fill-rule="evenodd" clip-rule="evenodd" d="M45.8731 30.3336C45.5592 30.0196 44.6174 29.3918 43.9895 29.3918V32.2171H45.8731V30.3336Z" fill="white"/>
<path fill-rule="evenodd" clip-rule="evenodd" d="M42.7338 29.3918C42.106 29.3918 41.4781 30.0196 40.8503 30.3336V32.2171H42.7338V29.3918Z" fill="white"/>
<path d="M42.7338 33.4729H40.8503V38.4958H42.7338V33.4729Z" fill="white"/>
<path d="M45.8731 33.4729H43.9895V38.4958H45.8731V33.4729Z" fill="white"/>
<path fill-rule="evenodd" clip-rule="evenodd" d="M10.3597 51.7201C9.73187 51.0922 9.10401 50.7783 8.16222 50.7783V53.6037H10.3597V51.7201Z" fill="white"/>
<path fill-rule="evenodd" clip-rule="evenodd" d="M7.18115 50.7783C6.23936 50.7783 5.6115 51.0922 4.98364 51.7201V53.6037H7.18115V50.7783Z" fill="white"/>
<path d="M7.18115 54.5455H4.98364V59.8823H7.18115V54.5455Z" fill="white"/>
<path d="M10.3597 54.5455H8.16222V59.8823H10.3597V54.5455Z" fill="white"/>
<path fill-rule="evenodd" clip-rule="evenodd" d="M22.2891 51.7201C21.6612 51.0922 21.0333 50.7783 20.0915 50.7783V53.6037H22.2891V51.7201Z" fill="white"/>
<path fill-rule="evenodd" clip-rule="evenodd" d="M19.1498 50.7783C18.208 50.7783 17.5801 51.0922 16.9523 51.7201V53.6037H19.1498V50.7783Z" fill="white"/>
<path d="M19.1498 54.5455H16.9523V59.8823H19.1498V54.5455Z" fill="white"/>
<path d="M22.2891 54.5455H20.0915V59.8823H22.2891V54.5455Z" fill="white"/>
<path fill-rule="evenodd" clip-rule="evenodd" d="M33.9437 51.7201C33.3159 51.0922 32.688 50.7783 32.0602 50.7783V53.6037H33.9437V51.7201Z" fill="white"/>
<path fill-rule="evenodd" clip-rule="evenodd" d="M30.8045 50.7783C30.1766 50.7783 29.2348 51.0922 28.9209 51.7201V53.6037H30.8045V50.7783Z" fill="white"/>
<path d="M30.7652 54.5455H28.8816V59.8823H30.7652V54.5455Z" fill="white"/>
<path d="M33.9437 54.5455H32.0602V59.8823H33.9437V54.5455Z" fill="white"/>
<path fill-rule="evenodd" clip-rule="evenodd" d="M45.8731 51.7201C45.5592 51.0922 44.6174 50.7783 43.9895 50.7783V53.6037H45.8731V51.7201Z" fill="white"/>
<path fill-rule="evenodd" clip-rule="evenodd" d="M42.7338 50.7783C42.106 50.7783 41.4781 51.0922 40.8503 51.7201V53.6037H42.7338V50.7783Z" fill="white"/>
<path d="M42.7338 54.5455H40.8503V59.8823H42.7338V54.5455Z" fill="white"/>
<path d="M45.8731 54.5455H43.9895V59.8823H45.8731V54.5455Z" fill="white"/>
<path fill-rule="evenodd" clip-rule="evenodd" d="M77.6586 32.2171H79.5422V30.3336C78.9143 30.0196 78.2865 29.3918 77.6586 29.3918V32.2171Z" fill="white"/>
<path fill-rule="evenodd" clip-rule="evenodd" d="M74.4801 32.2171H76.3637V29.3918C75.7358 29.3918 74.794 30.0196 74.4801 30.3336V32.2171Z" fill="white"/>
<path d="M76.3637 33.4729H74.4801V38.4958H76.3637V33.4729Z" fill="white"/>
<path d="M79.5422 33.4729H77.6586V38.4958H79.5422V33.4729Z" fill="white"/>
<path fill-rule="evenodd" clip-rule="evenodd" d="M89.588 32.2171H91.4715V30.3336C91.1576 30.0196 90.2158 29.3918 89.588 29.3918V32.2171Z" fill="white"/>
<path fill-rule="evenodd" clip-rule="evenodd" d="M86.4486 32.2171H88.3322V29.3918C87.7044 29.3918 87.0765 30.0196 86.4486 30.3336V32.2171Z" fill="white"/>
<path d="M88.3322 33.4729H86.4486V38.4958H88.3322V33.4729Z" fill="white"/>
<path d="M91.4715 33.4729H89.588V38.4958H91.4715V33.4729Z" fill="white"/>
<path fill-rule="evenodd" clip-rule="evenodd" d="M101.243 32.2171H103.44V30.3336C102.812 30.0196 102.184 29.3918 101.243 29.3918V32.2171Z" fill="white"/>
<path fill-rule="evenodd" clip-rule="evenodd" d="M98.0641 32.2171H100.262V29.3918C99.3198 29.3918 98.6919 30.0196 98.0641 30.3336V32.2171Z" fill="white"/>
<path d="M100.262 33.4729H98.0641V38.4958H100.262V33.4729Z" fill="white"/>
<path d="M103.44 33.4729H101.243V38.4958H103.44V33.4729Z" fill="white"/>
<path fill-rule="evenodd" clip-rule="evenodd" d="M113.172 32.2171H115.37V30.3336C114.742 30.0196 114.114 29.3918 113.172 29.3918V32.2171Z" fill="white"/>
<path fill-rule="evenodd" clip-rule="evenodd" d="M110.033 32.2171H112.23V29.3918C111.288 29.3918 110.661 30.0196 110.033 30.3336V32.2171Z" fill="white"/>
<path d="M112.23 33.4729H110.033V38.4958H112.23V33.4729Z" fill="white"/>
<path d="M115.37 33.4729H113.172V38.4958H115.37V33.4729Z" fill="white"/>
<path fill-rule="evenodd" clip-rule="evenodd" d="M79.5422 51.7201C78.9143 51.0922 78.2865 50.7783 77.6586 50.7783V53.6037H79.5422V51.7201Z" fill="white"/>
<path fill-rule="evenodd" clip-rule="evenodd" d="M76.4029 50.7783C75.775 50.7783 74.8332 51.0922 74.5193 51.7201V53.6037H76.4029V50.7783Z" fill="white"/>
<path d="M76.3637 54.5455H74.4801V59.8823H76.3637V54.5455Z" fill="white"/>
<path d="M79.5422 54.5455H77.6586V59.8823H79.5422V54.5455Z" fill="white"/>
<path fill-rule="evenodd" clip-rule="evenodd" d="M91.4715 51.7201C91.1576 51.0922 90.2158 50.7783 89.588 50.7783V53.6037H91.4715V51.7201Z" fill="white"/>
<path fill-rule="evenodd" clip-rule="evenodd" d="M88.3322 50.7783C87.7044 50.7783 87.0765 51.0922 86.4486 51.7201V53.6037H88.3322V50.7783Z" fill="white"/>
<path d="M88.3322 54.5455H86.4486V59.8823H88.3322V54.5455Z" fill="white"/>
<path d="M91.4715 54.5455H89.588V59.8823H91.4715V54.5455Z" fill="white"/>
<path fill-rule="evenodd" clip-rule="evenodd" d="M103.44 51.7201C102.812 51.0922 102.184 50.7783 101.243 50.7783V53.6037H103.44V51.7201Z" fill="white"/>
<path fill-rule="evenodd" clip-rule="evenodd" d="M100.301 50.7783C99.359 50.7783 98.7312 51.0922 98.1033 51.7201V53.6037H100.301V50.7783Z" fill="white"/>
<path d="M100.262 54.5455H98.0641V59.8823H100.262V54.5455Z" fill="white"/>
<path d="M103.44 54.5455H101.243V59.8823H103.44V54.5455Z" fill="white"/>
<path fill-rule="evenodd" clip-rule="evenodd" d="M115.37 51.7201C114.742 51.0922 114.114 50.7783 113.172 50.7783V53.6037H115.37V51.7201Z" fill="white"/>
<path fill-rule="evenodd" clip-rule="evenodd" d="M112.23 50.7783C111.288 50.7783 110.661 51.0922 110.033 51.7201V53.6037H112.23V50.7783Z" fill="white"/>
<path d="M112.23 54.5455H110.033V59.8823H112.23V54.5455Z" fill="white"/>
<path d="M115.37 54.5455H113.172V59.8823H115.37V54.5455Z" fill="white"/>
<path fill-rule="evenodd" clip-rule="evenodd" d="M55.9581 31.5893V38.1818H56.8999H58.1557V31.5893H56.8999H55.9581Z" fill="white"/>
<path fill-rule="evenodd" clip-rule="evenodd" d="M59.4114 47.5998V50.4251H60.0392H60.6671V47.5998C60.3532 47.2858 59.7253 47.2858 59.4114 47.5998Z" fill="white"/>
<path fill-rule="evenodd" clip-rule="evenodd" d="M61.6089 47.9137V50.4251H63.4925C63.4925 49.5226 62.8646 48.5415 61.6089 47.9137Z" fill="white"/>
<path fill-rule="evenodd" clip-rule="evenodd" d="M64.7482 21.1903C66.6318 21.1903 66.9457 19.9346 66.9457 19.9346C66.3179 19.9346 65.69 19.3067 64.4343 19.6207C63.1785 19.9346 62.5507 21.1903 62.5507 21.1903C63.4925 20.8764 63.4925 21.5043 64.7482 21.1903Z" fill="white"/>
<path fill-rule="evenodd" clip-rule="evenodd" d="M61.9229 28.136V30.3336H63.8065C63.4925 29.3918 62.8647 28.45 61.9229 28.136Z" fill="white"/>
<path fill-rule="evenodd" clip-rule="evenodd" d="M63.8065 38.1818V31.5893H62.8647H61.9229V38.1818H62.8647H63.8065Z" fill="white"/>
<path d="M63.1785 55.8012H60.6671V57.6848H63.1785V55.8012Z" fill="white"/>
<path d="M63.1785 58.6265H60.6671V62.7076H63.1785V58.6265Z" fill="white"/>
<path d="M63.1785 53.2897H60.6671V54.5454H63.1785V53.2897Z" fill="white"/>
<path d="M59.4114 55.8012H56.8999V57.6848H59.4114V55.8012Z" fill="white"/>
<path d="M59.4114 58.6265H56.8999V62.7076H59.4114V58.6265Z" fill="white"/>
<path d="M59.4114 53.2897H56.8999V54.5454H59.4114V53.2897Z" fill="white"/>
<path fill-rule="evenodd" clip-rule="evenodd" d="M55.3303 21.1903C56.8999 21.5043 56.586 20.8764 57.8417 21.1903C57.8417 21.1903 57.2139 19.9346 55.9581 19.6207C54.3885 19.3067 54.0746 19.9346 53.1328 19.9346C53.1328 19.9346 53.7606 21.1903 55.3303 21.1903Z" fill="white"/>
</svg>
